/* XPM */
static char * closefcs_xpm[] = {
"19 19 92 2",
"  	c #A7A7A7",
". 	c #BCBCBC",
"+ 	c #D3D3D3",
"@ 	c #D0D0D0",
"# 	c #CDCDCD",
"$ 	c #CACACA",
"% 	c #CFCFCF",
"& 	c #D2D2D2",
"* 	c #DFDFDF",
"= 	c #DADADA",
"- 	c #C9C9C9",
"; 	c #C2C2C2",
"> 	c #C0C0C0",
", 	c #C3C3C3",
"' 	c #CCCCCC",
") 	c #D6D6D6",
"! 	c #D9D9D9",
"~ 	c #E2E2E2",
"{ 	c #BBBBBB",
"] 	c #979797",
"^ 	c #8F8F8F",
"/ 	c #919191",
"( 	c #9C9C9C",
"_ 	c #A9A9A9",
": 	c #BABABA",
"< 	c #CBCBCB",
"[ 	c #DCDCDC",
"} 	c #E3E3E3",
"| 	c #DBDBDB",
"1 	c #C8C8C8",
"2 	c #ADADAD",
"3 	c #8A8A8A",
"4 	c #959595",
"5 	c #EAEAEA",
"6 	c #F9F9F9",
"7 	c #ECECEC",
"8 	c #B3B3B3",
"9 	c #AFAFAF",
"0 	c #C6C6C6",
"a 	c #DDDDDD",
"b 	c #E5E5E5",
"c 	c #ACACAC",
"d 	c #818181",
"e 	c #FAFAFA",
"f 	c #F5F5F5",
"g 	c #F6F6F6",
"h 	c #F7F7F7",
"i 	c #D5D5D5",
"j 	c #B2B2B2",
"k 	c #E0E0E0",
"l 	c #B6B6B6",
"m 	c #868686",
"n 	c #D1D1D1",
"o 	c #F4F4F4",
"p 	c #E7E7E7",
"q 	c #BEBEBE",
"r 	c #D3D3D6",
"s 	c #939393",
"t 	c #C5C5C5",
"u 	c #F2F2F2",
"v 	c #EDEDED",
"w 	c #EEEEEE",
"x 	c #AEAEAE",
"y 	c #000000",
"z 	c #E1E1E1",
"A 	c #E8E8E8",
"B 	c #D8D8D8",
"C 	c #D7D7D7",
"D 	c #F0F0F0",
"E 	c #F8F8F8",
"F 	c #F1F1F1",
"G 	c #ABABAB",
"H 	c #D4D4D4",
"I 	c #B1B1B1",
"J 	c #C4C4C4",
"K 	c #F3F3F3",
"L 	c #EFEFEF",
"M 	c #BFBFBF",
"N 	c #A3A3A3",
"O 	c #9E9E9E",
"P 	c #E6E6E6",
"Q 	c #A2A2A2",
"R 	c #E9E9E9",
"S 	c #FBFBFB",
"T 	c #EBEBEB",
"U 	c #B4B4B4",
"V 	c #A4A4A4",
"W 	c #EFF1F1",
"X 	c #BDBDBD",
"Y 	c #CECECE",
"Z 	c #C1C1C1",
"` 	c #C3C0C3",
"                                      ",
". . . . . . . . . . . . . . . . . . . ",
"+ + + + + + @ # $ $ $ # % & + + + + + ",
"* * * * = & - ; > > , ' @ ) ! * * * * ",
"~ ~ ~ = ' {   ] ^ / ( _ : < ) [ ~ ~ ~ ",
"} } | 1 2 3 4 , 5 6 7 % 8 9 0 ) a } } ",
"b a - c d > e f f f g h e i j # [ k b ",
"~ i l m n h g g o g f g h h p q r k b ",
"[ ; s t h u v w u o u w w f h ~ # a ~ ",
"n x _ g u p y y z p z y y A o h [ B ~ ",
"0 ( | o v C y y y ' y y y ! D E F = z ",
"{ G o o 7 H 9 y y 2 y y I C F E E A z ",
"j J u K L k M N O y O N > z o e E u p ",
"9 = F o K P ' y y Q y y # R E S 6 f R ",
"I F F K D k y y y Q y y y ~ f e e 6 T ",
"U D u K 7 C y y V x V y y ! F e e 6 W ",
"{ D u f L = X I ; Y ; j q [ u e 6 e F ",
"Z K f h h 7 [ = b 7 b = [ 5 g 6 6 e u ",
"` K g 6 S 6 o f 6 S 6 f o h e 6 e 6 L "};
