/* XPM */
static char * gripfcs_xpm[] = {
"19 19 274 2",
"  	c #A4A4A5",
". 	c #A1A2A1",
"+ 	c #9F9F9F",
"@ 	c #9D9D9D",
"# 	c #9B9B9B",
"$ 	c #9A9A99",
"% 	c #999999",
"& 	c #979898",
"* 	c #979897",
"= 	c #989897",
"- 	c #989898",
"; 	c #989998",
"> 	c #9A9999",
", 	c #9A9A9B",
"' 	c #9C9D9D",
") 	c #9E9F9E",
"! 	c #A1A1A1",
"~ 	c #A4A4A3",
"{ 	c #A6A7A7",
"] 	c #9D9D9E",
"^ 	c #9B9B9A",
"/ 	c #969695",
"( 	c #949494",
"_ 	c #939392",
": 	c #919191",
"< 	c #919091",
"[ 	c #8F9090",
"} 	c #909090",
"| 	c #929292",
"1 	c #959595",
"2 	c #999A9A",
"3 	c #9C9C9D",
"4 	c #A0A0A0",
"5 	c #979797",
"6 	c #939493",
"7 	c #919291",
"8 	c #8F8E8F",
"9 	c #8C8D8D",
"0 	c #8B8B8B",
"a 	c #8A898A",
"b 	c #898989",
"c 	c #888988",
"d 	c #898889",
"e 	c #8A8A89",
"f 	c #8A8A8B",
"g 	c #8C8D8C",
"h 	c #8E8E8E",
"i 	c #909091",
"j 	c #939393",
"k 	c #969596",
"l 	c #919090",
"m 	c #8D8D8D",
"n 	c #8A8B8A",
"o 	c #878787",
"p 	c #868586",
"q 	c #838384",
"r 	c #838383",
"s 	c #828181",
"t 	c #818181",
"u 	c #818182",
"v 	c #828282",
"w 	c #848585",
"x 	c #8C8C8C",
"y 	c #8F8F90",
"z 	c #89898A",
"A 	c #868686",
"B 	c #808080",
"C 	c #7F7E7E",
"D 	c #7C7D7C",
"E 	c #7B7B7B",
"F 	c #7A7A7A",
"G 	c #7A797A",
"H 	c #7B7B7A",
"I 	c #7C7C7C",
"J 	c #7D7E7E",
"K 	c #828283",
"L 	c #858586",
"M 	c #80807F",
"N 	c #797A79",
"O 	c #777777",
"P 	c #767575",
"Q 	c #747374",
"R 	c #737373",
"S 	c #727272",
"T 	c #727273",
"U 	c #757575",
"V 	c #767776",
"W 	c #797878",
"X 	c #7C7B7C",
"Y 	c #7E7F7E",
"Z 	c #828182",
"` 	c #858686",
" .	c #7D7C7C",
"..	c #787878",
"+.	c #767675",
"@.	c #707070",
"#.	c #6E6E6E",
"$.	c #6C6D6D",
"%.	c #6B6B6B",
"&.	c #6A6A6B",
"*.	c #6C6C6B",
"=.	c #6E6D6D",
"-.	c #6F706F",
";.	c #727172",
">.	c #747575",
",.	c #787877",
"'.	c #7C7B7B",
").	c #807F7F",
"!.	c #767676",
"~.	c #6F6F6F",
"{.	c #696969",
"].	c #676666",
"^.	c #656565",
"/.	c #646464",
"(.	c #636363",
"_.	c #646363",
":.	c #636464",
"<.	c #656465",
"[.	c #666666",
"}.	c #696868",
"|.	c #717171",
"1.	c #797979",
"2.	c #6C6C6C",
"3.	c #686868",
"4.	c #646565",
"5.	c #626262",
"6.	c #5F605F",
"7.	c #5D5D5E",
"8.	c #5C5C5C",
"9.	c #5B5C5C",
"0.	c #5C5B5C",
"a.	c #5E5D5D",
"b.	c #5F5F5F",
"c.	c #616161",
"d.	c #676767",
"e.	c #747373",
"f.	c #6A6A6A",
"g.	c #656666",
"h.	c #616261",
"i.	c #5E5E5E",
"j.	c #5B5B5B",
"k.	c #585858",
"l.	c #565756",
"m.	c #555555",
"n.	c #545454",
"o.	c #565656",
"p.	c #575857",
"q.	c #5A5A5A",
"r.	c #5D5D5D",
"s.	c #606061",
"t.	c #646564",
"u.	c #686969",
"v.	c #606060",
"w.	c #575858",
"x.	c #515252",
"y.	c #4F4F4F",
"z.	c #4D4D4E",
"A.	c #4D4D4D",
"B.	c #4E4F4F",
"C.	c #505050",
"D.	c #535354",
"E.	c #565657",
"F.	c #5A5A5B",
"G.	c #5E5E5F",
"H.	c #686867",
"I.	c #5A5A59",
"J.	c #515151",
"K.	c #4A4A4B",
"L.	c #484847",
"M.	c #464647",
"N.	c #464546",
"O.	c #454545",
"P.	c #474747",
"Q.	c #4A4949",
"R.	c #4C4C4C",
"S.	c #585958",
"T.	c #636262",
"U.	c #5A5959",
"V.	c #4A4A4A",
"W.	c #474647",
"X.	c #434444",
"Y.	c #414041",
"Z.	c #3F3F3E",
"`.	c #3E3E3E",
" +	c #404140",
".+	c #424243",
"++	c #494A49",
"@+	c #4E4D4E",
"#+	c #535353",
"$+	c #585757",
"%+	c #545455",
"&+	c #4F4E4E",
"*+	c #454445",
"=+	c #3D3D3D",
"-+	c #3A393A",
";+	c #383838",
">+	c #373636",
",+	c #373637",
"'+	c #373837",
")+	c #393939",
"!+	c #3C3C3C",
"~+	c #3F3F3F",
"{+	c #444344",
"]+	c #484849",
"^+	c #4E4D4D",
"/+	c #595958",
"(+	c #4A4A49",
"_+	c #444444",
":+	c #3A3B3A",
"<+	c #363636",
"[+	c #333233",
"}+	c #303031",
"|+	c #2F2F2F",
"1+	c #30302F",
"2+	c #323232",
"3+	c #353636",
"4+	c #434343",
"5+	c #484848",
"6+	c #4E4E4E",
"7+	c #4B4B4B",
"8+	c #464545",
"9+	c #3A3A39",
"0+	c #343434",
"a+	c #303030",
"b+	c #2C2C2C",
"c+	c #292929",
"d+	c #272827",
"e+	c #282727",
"f+	c #282928",
"g+	c #2B2B2B",
"h+	c #333333",
"i+	c #3E3D3E",
"j+	c #424141",
"k+	c #3B3B3B",
"l+	c #353435",
"m+	c #292A2A",
"n+	c #252626",
"o+	c #222222",
"p+	c #202020",
"q+	c #222122",
"r+	c #242424",
"s+	c #2E2E2D",
"t+	c #343333",
"u+	c #393A39",
"v+	c #40403F",
"w+	c #464646",
"x+	c #4D4C4D",
"y+	c #373737",
"z+	c #313031",
"A+	c #2B2A2B",
"B+	c #242525",
"C+	c #1B1C1C",
"D+	c #191918",
"E+	c #191819",
"F+	c #1A1A1B",
"G+	c #1F1E1E",
"H+	c #232323",
"I+	c #353635",
"J+	c #3C3D3C",
"K+	c #424242",
"L+	c #343534",
"M+	c #2E2D2E",
"N+	c #262626",
"O+	c #1A1A1A",
"P+	c #151515",
"Q+	c #121112",
"R+	c #111111",
"S+	c #141414",
"T+	c #181819",
"U+	c #1E1F1E",
"V+	c #252524",
"W+	c #2C2C2B",
"X+	c #39393A",
"Y+	c #414140",
"  . + @ # $ % & * = - ; > , ' ) ! ~ { ",
"] ^ - / ( _ : < [ } } : | ( 1 & 2 3 4 ",
"5 6 7 8 9 0 a b c d b e f g h i j k % ",
"l m n o p q r s t t u v q w o b x y _ ",
"z A r B C D E F F G F H I J B K L b x ",
"r M I N O P Q R S S T R U V W X Y Z ` ",
" ...+.T @.#.$.%.%.&.%.*.=.-.;.>.,.'.).",
"!.S ~.*.{.].^./.(._.:.<.[.}.%.#.|.U 1.",
"@.2.3.4.5.6.7.8.9.0.8.a.b.c./.d.%.~.e.",
"f.g.h.i.j.k.l.m.n.n.m.o.p.q.r.s.t.u.=.",
"/.v.j.w.n.x.y.z.A.A.A.B.C.D.E.F.G.(.H.",
"b.I.m.J.A.K.L.M.N.O.N.P.Q.R.C.n.S.7.T.",
"U.n.y.V.W.X.Y.Z.`.`.`. +.+N.++@+#+$+7.",
"%+&+Q.*+ +=+-+;+>+,+'+)+!+~+{+]+^+#+/+",
"y.(+_+~+:+<+[+}+|+|+1+2+3+)+=+4+5+6+n.",
"7+8+~+9+0+a+b+c+d+e+f+g+|+h+;+i+X.V.C.",
"5+j+k+l+|+m+n+o+p+p+q+r+c+s+t+u+v+w+x+",
"O.`.y+z+A+B+p+C+D+E+F+G+H+c+|+I+J+4+V.",
"K+k+L+M+N+p+O+P+Q+R+S+T+U+V+W+[+X+Y+5+"};
