/* XPM */
static char * maxfcs_xpm[] = {
"19 19 93 2",
"  	c #A7A7A7",
". 	c #BCBCBC",
"+ 	c #D3D3D3",
"@ 	c #D0D0D0",
"# 	c #CDCDCD",
"$ 	c #CACACA",
"% 	c #CFCFCF",
"& 	c #D2D2D2",
"* 	c #DFDFDF",
"= 	c #DADADA",
"- 	c #C9C9C9",
"; 	c #C2C2C2",
"> 	c #C0C0C0",
", 	c #C3C3C3",
"' 	c #CCCCCC",
") 	c #D6D6D6",
"! 	c #D9D9D9",
"~ 	c #E2E2E2",
"{ 	c #BBBBBB",
"] 	c #979797",
"^ 	c #8F8F8F",
"/ 	c #919191",
"( 	c #9C9C9C",
"_ 	c #A9A9A9",
": 	c #BABABA",
"< 	c #CBCBCB",
"[ 	c #DCDCDC",
"} 	c #E3E3E3",
"| 	c #DBDBDB",
"1 	c #C8C8C8",
"2 	c #ADADAD",
"3 	c #8A8A8A",
"4 	c #959595",
"5 	c #EAEAEA",
"6 	c #F9F9F9",
"7 	c #ECECEC",
"8 	c #B3B3B3",
"9 	c #AFAFAF",
"0 	c #C6C6C6",
"a 	c #DDDDDD",
"b 	c #E5E5E5",
"c 	c #ACACAC",
"d 	c #818181",
"e 	c #FAFAFA",
"f 	c #F5F5F5",
"g 	c #F6F6F6",
"h 	c #F7F7F7",
"i 	c #D5D5D5",
"j 	c #B2B2B2",
"k 	c #E0E0E0",
"l 	c #B6B6B6",
"m 	c #868686",
"n 	c #D1D1D1",
"o 	c #F8F8F8",
"p 	c #E7E7E7",
"q 	c #BEBEBE",
"r 	c #D3D3D6",
"s 	c #939393",
"t 	c #C5C5C5",
"u 	c #AEAEAE",
"v 	c #FBFBFB",
"w 	c #D8D8D8",
"x 	c #000000",
"y 	c #F1F1F1",
"z 	c #E1E1E1",
"A 	c #ABABAB",
"B 	c #F4F4F4",
"C 	c #F0F0F0",
"D 	c #FCFCFC",
"E 	c #E8E8E8",
"F 	c #C4C4C4",
"G 	c #F2F2F2",
"H 	c #EFEFEF",
"I 	c #EDEDED",
"J 	c #797979",
"K 	c #8B8B8B",
"L 	c #E9E9E9",
"M 	c #B1B1B1",
"N 	c #F3F3F3",
"O 	c #808080",
"P 	c #7A7A7A",
"Q 	c #EBEBEB",
"R 	c #B4B4B4",
"S 	c #A4A4A4",
"T 	c #AAAAAA",
"U 	c #9D9D9D",
"V 	c #D4D4D4",
"W 	c #EFF1F1",
"X 	c #C1C1C1",
"Y 	c #DEDEDE",
"Z 	c #E6E6E6",
"` 	c #C3C0C3",
" .	c #FEFEFE",
"                                      ",
". . . . . . . . . . . . . . . . . . . ",
"+ + + + + + @ # $ $ $ # % & + + + + + ",
"* * * * = & - ; > > , ' @ ) ! * * * * ",
"~ ~ ~ = ' {   ] ^ / ( _ : < ) [ ~ ~ ~ ",
"} } | 1 2 3 4 , 5 6 7 % 8 9 0 ) a } } ",
"b a - c d > e f f f g h e i j # [ k b ",
"~ i l m n o h h f g g h o o p q r k b ",
"[ ; s t o h h o o o o o o e o ~ # a ~ ",
"n u _ h h 6 o 6 v 6 v e e e 6 o [ w ~ ",
"0 ( | f h o 6 o h x h e v e e 6 y = z ",
"{ A B f h o h C x x x y 6 D D 6 o E z ",
"j F G B g g H x x x x x C o v v o G p ",
"9 = y B B I x x 3 J K x x C 6 v 6 f L ",
"M y y N H a x 4 O P O 4 x * B e e 6 Q ",
"R C G G 5 & u ( S T S U 9 V H 6 e 6 W ",
"{ C G B I w > X V Y V ; X = C 6 6 e y ",
"X N f h g Q z Z y h y Z z L f 6 6 e G ",
"` N g 6 e 6 h e D  .D e h h 6 6 e 6 H "};
