/* XPM */
static char * minfcs_xpm[] = {
"19 19 91 1",
" 	c #A7A7A7",
".	c #BCBCBC",
"+	c #D3D3D3",
"@	c #D0D0D0",
"#	c #CDCDCD",
"$	c #CACACA",
"%	c #CFCFCF",
"&	c #D2D2D2",
"*	c #DFDFDF",
"=	c #DADADA",
"-	c #C9C9C9",
";	c #C2C2C2",
">	c #C0C0C0",
",	c #C3C3C3",
"'	c #CCCCCC",
")	c #D6D6D6",
"!	c #D9D9D9",
"~	c #E2E2E2",
"{	c #BBBBBB",
"]	c #979797",
"^	c #8F8F8F",
"/	c #919191",
"(	c #9C9C9C",
"_	c #A9A9A9",
":	c #BABABA",
"<	c #CBCBCB",
"[	c #DCDCDC",
"}	c #E3E3E3",
"|	c #DBDBDB",
"1	c #C8C8C8",
"2	c #ADADAD",
"3	c #8A8A8A",
"4	c #959595",
"5	c #EAEAEA",
"6	c #F9F9F9",
"7	c #ECECEC",
"8	c #B3B3B3",
"9	c #AFAFAF",
"0	c #C6C6C6",
"a	c #DDDDDD",
"b	c #E5E5E5",
"c	c #ACACAC",
"d	c #818181",
"e	c #FAFAFA",
"f	c #F5F5F5",
"g	c #F6F6F6",
"h	c #F7F7F7",
"i	c #D5D5D5",
"j	c #B2B2B2",
"k	c #E0E0E0",
"l	c #B6B6B6",
"m	c #868686",
"n	c #D1D1D1",
"o	c #F8F8F8",
"p	c #E7E7E7",
"q	c #BEBEBE",
"r	c #D3D3D6",
"s	c #939393",
"t	c #C5C5C5",
"u	c #AEAEAE",
"v	c #FBFBFB",
"w	c #D8D8D8",
"x	c #F3F3F3",
"y	c #000000",
"z	c #FCFCFC",
"A	c #F1F1F1",
"B	c #E1E1E1",
"C	c #ABABAB",
"D	c #F4F4F4",
"E	c #E6E6E6",
"F	c #F0F0F0",
"G	c #E9E9E9",
"H	c #E8E8E8",
"I	c #C4C4C4",
"J	c #F2F2F2",
"K	c #D7D7D7",
"L	c #BFBFBF",
"M	c #EFEFEF",
"N	c #B1B1B1",
"O	c #808080",
"P	c #EBEBEB",
"Q	c #B4B4B4",
"R	c #8B8B8B",
"S	c #797979",
"T	c #EFF1F1",
"U	c #B9B9B9",
"V	c #A8A8A8",
"W	c #C1C1C1",
"X	c #FEFEFE",
"Y	c #E4E4E4",
"Z	c #C3C0C3",
"                   ",
"...................",
"++++++@#$$$#%&+++++",
"****=&-;>>,'@)!****",
"~~~='{ ]^/(_:<)[~~~",
"}}|1234,567%890)a}}",
"ba-cd>efffgheij#[kb",
"~ilmnohhfgghoopqrkb",
"[;stohhooooooeo~#a~",
"nu_hh6h6veve6e6o[w~",
"0(|ffxygezeoyfo6A=B",
"{CDDAEyyFgFyyGgooHB",
"jIJJ5KLyyyyy>wM6oJp",
"9=AJ5nu(yyy(u+M66fG",
"NAAxMa:4OyO4:*Dee6P",
"QFJDDMwNRSRj!A6ve6T",
"{FJg6oFwUVU!Aezv6eA",
"WxfozXeJY[YJezve6eJ",
"Zxg6zXXz6g6zXzv6e6M"};
