/* XPM */
static char * minpr_xpm[] = {
"19 19 85 1",
" 	c #A7A7A7",
".	c #BCBCBC",
"+	c #D3D3D3",
"@	c #D0D0D0",
"#	c #CDCDCD",
"$	c #CACACA",
"%	c #CFCFCF",
"&	c #D2D2D2",
"*	c #DFDFDF",
"=	c #DADADA",
"-	c #C9C9C9",
";	c #C2C2C2",
">	c #C0C0C0",
",	c #C3C3C3",
"'	c #CCCCCC",
")	c #D6D6D6",
"!	c #D9D9D9",
"~	c #E2E2E2",
"{	c #BBBBBB",
"]	c #979797",
"^	c #8F8F8F",
"/	c #919191",
"(	c #9C9C9C",
"_	c #A9A9A9",
":	c #BABABA",
"<	c #CBCBCB",
"[	c #DCDCDC",
"}	c #E3E3E3",
"|	c #DBDBDB",
"1	c #C8C8C8",
"2	c #ADADAD",
"3	c #8A8A8A",
"4	c #959595",
"5	c #EAEAEA",
"6	c #F9F9F9",
"7	c #ECECEC",
"8	c #B3B3B3",
"9	c #AFAFAF",
"0	c #C6C6C6",
"a	c #DDDDDD",
"b	c #E5E5E5",
"c	c #ACACAC",
"d	c #818181",
"e	c #FAFAFA",
"f	c #F5F5F5",
"g	c #F6F6F6",
"h	c #F7F7F7",
"i	c #D5D5D5",
"j	c #B2B2B2",
"k	c #E0E0E0",
"l	c #B6B6B6",
"m	c #868686",
"n	c #D1D1D1",
"o	c #F8F8F8",
"p	c #E7E7E7",
"q	c #BEBEBE",
"r	c #D3D3D6",
"s	c #939393",
"t	c #C5C5C5",
"u	c #AEAEAE",
"v	c #FBFBFB",
"w	c #D8D8D8",
"x	c #FCFCFC",
"y	c #FDFDFD",
"z	c #F1F1F1",
"A	c #E1E1E1",
"B	c #ABABAB",
"C	c #F4F4F4",
"D	c #F2F2F2",
"E	c #000000",
"F	c #E8E8E8",
"G	c #C4C4C4",
"H	c #F3F3F3",
"I	c #EEEEEE",
"J	c #F0F0F0",
"K	c #EFEFEF",
"L	c #E9E9E9",
"M	c #B1B1B1",
"N	c #EBEBEB",
"O	c #B4B4B4",
"P	c #E6E6E6",
"Q	c #EFF1F1",
"R	c #C1C1C1",
"S	c #FEFEFE",
"T	c #C3C0C3",
"                   ",
"...................",
"++++++@#$$$#%&+++++",
"****=&-;>>,'@)!****",
"~~~='{ ]^/(_:<)[~~~",
"}}|1234,567%890)a}}",
"ba-cd>efffgheij#[kb",
"~ilmnohhfgghoopqrkb",
"[;stohhooooooeo~#a~",
"nu_hh6o6veveee6o[w~",
"0(|fghh6xyxv6666z=A",
"{BCffDEfevegEge6oFA",
"jGDHDIEEzCzEEJheoDp",
"9=zHH7~EEEEE}Koe6fL",
"MzzCCzp|EEE|FH6ve6N",
"OJDCgozb!E!PDevve6Q",
"{JDg6v6zF~FDeyxv6ez",
"RHfoxSyvgHgvyxve6eD",
"THg6xSSSyxySSxv6e6K"};
