/* XPM */
static char * stickfcs_xpm[] = {
"19 19 52 1",
" 	c #A7A7A7",
".	c #BCBCBC",
"+	c #D3D3D3",
"@	c #DFDFDF",
"#	c #E2E2E2",
"$	c #E3E3E3",
"%	c #E5E5E5",
"&	c #E7E7E7",
"*	c #E9EAEA",
"=	c #EAEAEB",
"-	c #EBEBEB",
";	c #EAEAEA",
">	c #E8E8E8",
",	c #E6E6E6",
"'	c #EDEDED",
")	c #EFEFEF",
"!	c #EEEEEE",
"~	c #ECECEC",
"{	c #EFEEEE",
"]	c #F1F1F1",
"^	c #F3F3F3",
"/	c #F2F2F2",
"(	c #F0F0F0",
"_	c #E9E9E9",
":	c #F4F5F4",
"<	c #F7F7F7",
"[	c #F8F7F7",
"}	c #F6F6F6",
"|	c #FBFBFB",
"1	c #FCFCFC",
"2	c #F9F9F9",
"3	c #F5F5F4",
"4	c #9D9D9D",
"5	c #A0A0A0",
"6	c #A3A3A3",
"7	c #A6A6A6",
"8	c #A8A8A8",
"9	c #AAAAAA",
"0	c #A4A4A4",
"a	c #A2A2A2",
"b	c #9E9E9E",
"c	c #F1F2F2",
"d	c #F5F5F5",
"e	c #F8F8F8",
"f	c #EFF0EF",
"g	c #F4F4F4",
"h	c #F1F0F1",
"i	c #E4E4E4",
"j	c #EBEBEA",
"k	c #EAEAE9",
"l	c #E1E1E1",
"m	c #DCDCDC",
"                   ",
"...................",
"+++++++++++++++++++",
"@@@@@@@@@@@@@@@@@@@",
"###################",
"$$$$$#%&*=-;>,$$$$$",
"%%%%%%>-'))!~;,%%%%",
"&&&&&&-{]^^/('_&&&&",
">>>>>_']:<[}^)->>>>",
"_____;{^<|123(~____",
">>>>>456789 0ab>>>>",
">>>>>*!cde2<^f->>>>",
">>>>>>~)/gg^h';>>>>",
",,,,,%_~!(()';&,,,,",
"iiiii$,>j~~-k&iiiii",
"lllllllllllllllllll",
"lllllllllllllllllll",
"lllllllllllllllllll",
"mmmmmmmmmmmmmmmmmmm"};
