/* XPM */
static char * close_xpm[] = {
"15 15 2 1",
" 	c #313131",
".	c #F1F1F1",
"               ",
"               ",
"               ",
"               ",
"    ..   ..    ",
"    ... ...    ",
"     .....     ",
"      ...      ",
"     .....     ",
"    ... ...    ",
"    ..   ..    ",
"               ",
"               ",
"               ",
"               "};
