/* XPM */
static char * close_xpm[] = {
"20 17 27 1",
" 	c None",
".	c #EBEBEB",
"+	c #E9E9E9",
"@	c #E5E5E5",
"#	c #000000",
"$	c #CACACA",
"%	c #DCDCDC",
"&	c #E8E8E8",
"*	c #B0B0B0",
"=	c #D9D9D9",
"-	c #E2E2E2",
";	c #A7A7A7",
">	c #ADADAD",
",	c #757575",
"'	c #9D9D9D",
")	c #7B7B7B",
"!	c #919191",
"~	c #DBDBDB",
"{	c #747474",
"]	c #8C8C8C",
"^	c #E6E6E6",
"/	c #888888",
"(	c #C8C8C8",
"_	c #898989",
":	c #7E7E7E",
"<	c #868686",
"[	c #929292",
"....................",
"....................",
".....+@@+...+@@+....",
"....+##$%&.&##$%+...",
"....@###*=-###;$@...",
"....@$###>###,'$@...",
"....+%*#####)!*%+...",
".....&~>###{]>=^....",
"......-#####/(-.....",
".....&###{###>=^....",
"....+###)]_###*%+...",
"....@##:!>(>##<$@...",
"....@$;'*=-~*<[$@...",
"....+%$$%&.&%$$%+...",
".....+@@+...+@@+....",
"....................",
"...................."};
