/* XPM */
static char * close_pressed_xpm[] = {
"20 17 17 1",
" 	c None",
".	c #EBEBEB",
"+	c #E9E9E9",
"@	c #E5E5E5",
"#	c #DCDCDC",
"$	c #CACACA",
"%	c #E8E8E8",
"&	c #000000",
"*	c #B0B0B0",
"=	c #D9D9D9",
"-	c #E2E2E2",
";	c #DBDBDB",
">	c #ADADAD",
",	c #C8C8C8",
"'	c #898989",
")	c #E6E6E6",
"!	c #888888",
"....................",
"....................",
"....................",
".....+@@+...+@@+....",
"....+#$$#%.%#$$#+...",
"....@$&&*=-;*&&$@...",
"....@$&&&>,>&&&$@...",
"....+#*&&&'&&&*#+...",
".....%;>&&&&&>=)....",
"......-,'&&&!,-.....",
".....%;>&&&&&>=)....",
"....+#*&&&'&&&*#+...",
"....@$&&&>,>&&&$@...",
"....@$&&*=-;*&&$@...",
"....+#$$#%.%#$$#+...",
".....+@@+...+@@+....",
"...................."};
