/* XPM */
static char * icon_unfocus_xpm[] = {
"20 17 17 1",
" 	c None",
".	c #EBEBEB",
"+	c #E8E8E8",
"@	c #E1E1E1",
"#	c #DFDFDF",
"$	c #DEDEDE",
"%	c #FEFEFE",
"&	c #C4C4C4",
"*	c #DBDBDB",
"=	c #888888",
"-	c #727272",
";	c #B8B8B8",
">	c #717171",
",	c #6B6B6B",
"'	c #6F6F6F",
")	c #B6B6B6",
"!	c #B4B4B4",
"....................",
"....................",
"....................",
"....................",
"....................",
"....................",
"....................",
"....................",
".....+@##$$$$#@+....",
"....+%%%%%%%%%&*+...",
"....@%%%%%%%%%=&#...",
"....#%%%%%%%%%-;$...",
"....@&=>,,,,,'=&#...",
"....+*&)!!!!!)&*+...",
".....+@##$$$$#@+....",
"....................",
"...................."};
