/* XPM */
static char * icon_xpm[] = {
"20 17 17 1",
" 	c None",
".	c #EBEBEB",
"+	c #E9E9E9",
"@	c #E6E6E6",
"#	c #E5E5E5",
"$	c #E4E4E4",
"%	c #000000",
"&	c #D1D1D1",
"*	c #DEDEDE",
"=	c #A0A0A0",
"-	c #CFCFCF",
";	c #898989",
">	c #C8C8C8",
",	c #858585",
"'	c #818181",
")	c #7F7F7F",
"!	c #C5C5C5",
"....................",
"....................",
"....................",
"....................",
"....................",
"....................",
"....................",
"....................",
".....+@##$$$$#@+....",
"....+%%%%%%%%%&*+...",
"....@%%%%%%%%%=-#...",
"....#%%%%%%%%%;>$...",
"....@&=,')))),=-#...",
"....+*&!!!!!!!&*+...",
".....+@##$$$$#@+....",
"....................",
"...................."};
