/* XPM */
static char * stuck_xpm[] = {
"20 17 27 1",
" 	c None",
".	c #EBEBEB",
"+	c #E9E9E9",
"@	c #E6E6E6",
"#	c #E5E5E5",
"$	c #E2E2E2",
"%	c #DFDFDF",
"&	c #DEDEDE",
"*	c #000000",
"=	c #CDCDCD",
"-	c #989898",
";	c #CBCBCB",
">	c #616161",
",	c #717171",
"'	c #7B7B7B",
")	c #7D7D7D",
"!	c #C1C1C1",
"~	c #E4E4E4",
"{	c #A0A0A0",
"]	c #BBBBBB",
"^	c #C0C0C0",
"/	c #BDBDBD",
"(	c #7C7C7C",
"_	c #EDEDED",
":	c #E8E8E8",
"<	c #E1E1E1",
"[	c #E0E0E0",
"....................",
"....................",
".....+@#$%&%$#@+....",
"....+*********=&+...",
"....@*********-;#...",
"....#**>,')'**)!~...",
"....$**,{]^/**'^$...",
"....%**'/*****(^&...",
"....&**)^*_:**)^&...",
"....&**'/*:<**(^&...",
"....[*********'^[...",
"....[*********)!&...",
"....@=-)')))')-;#...",
"....+&=!!^^^^!=&+...",
".....:<%%&&&&%@+....",
"....................",
"...................."};
