/* XPM */
static char * stuck_pressed_xpm[] = {
"20 17 18 1",
" 	c None",
".	c #EBEBEB",
"+	c #E9E9E9",
"@	c #E6E6E6",
"#	c #E5E5E5",
"$	c #E4E4E4",
"%	c #DEDEDE",
"&	c #CDCDCD",
"*	c #C1C1C1",
"=	c #C0C0C0",
"-	c #000000",
";	c #CBCBCB",
">	c #A0A0A0",
",	c #BBBBBB",
"'	c #BDBDBD",
")	c #E1E1E1",
"!	c #E8E8E8",
"~	c #EDEDED",
"....................",
"....................",
"....................",
".....+@##$$$$#@+....",
"....+%&**====*&%+...",
"....@&---------;#...",
"....#*---------*$...",
"....$=-->,='>--=$...",
"....$=--')!)'--=$...",
"....$=--=!-----=$...",
"....$=--')-~!--=$...",
"....$=-->,-!)--=$...",
"....#*---------*$...",
"....@&---------;#...",
"....+%&**====*&%+...",
".....+@##$$$$#@+....",
"...................."};
