/* XPM */
static char * button_close_active_xpm[] = {
"22 22 140 2",
"  	c None",
". 	c #45666F",
"+ 	c #68858D",
"@ 	c #97ADB4",
"# 	c #6A8A97",
"$ 	c #517887",
"% 	c #507786",
"& 	c #527684",
"* 	c #647379",
"= 	c #898E8F",
"- 	c #989A9B",
"; 	c #8D9192",
"> 	c #69767B",
", 	c #527481",
"' 	c #507785",
") 	c #D1D5D6",
"! 	c #B8BBBC",
"~ 	c #868686",
"{ 	c #B7B7B7",
"] 	c #C0C0C0",
"^ 	c #BFBFBF",
"/ 	c #BBBBBB",
"( 	c #8E8E8E",
"_ 	c #A8AAAB",
": 	c #CDD1D2",
"< 	c #C0C6C7",
"[ 	c #B6BBBC",
"} 	c #787878",
"| 	c #A3A3A3",
"1 	c #AAAAAA",
"2 	c #ACACAC",
"3 	c #A7A7A7",
"4 	c #A6A6A6",
"5 	c #A4A4A4",
"6 	c #7E7E7E",
"7 	c #A2A7A8",
"8 	c #BDC3C4",
"9 	c #C2C8C9",
"0 	c #C1C7C8",
"a 	c #808283",
"b 	c #808080",
"c 	c #8C8C8C",
"d 	c #919191",
"e 	c #8B8B8B",
"f 	c #878787",
"g 	c #828282",
"h 	c #6D6E6F",
"i 	c #B4B9BA",
"j 	c #C5CACB",
"k 	c #C0C5C6",
"l 	c #616161",
"m 	c #6C6C6C",
"n 	c #1B1B1B",
"o 	c #1E1E1E",
"p 	c #7D7D7D",
"q 	c #1D1D1D",
"r 	c #1A1A1A",
"s 	c #6A6A6A",
"t 	c #5B5B5B",
"u 	c #9DA1A2",
"v 	c #C7CCCD",
"w 	c #B6BABB",
"x 	c #545454",
"y 	c #636363",
"z 	c #737373",
"A 	c #7A7A7A",
"B 	c #707070",
"C 	c #656565",
"D 	c #565656",
"E 	c #7E8182",
"F 	c #BCC0C1",
"G 	c #C8CDCE",
"H 	c #C9CECF",
"I 	c #AFB3B4",
"J 	c #525252",
"K 	c #717171",
"L 	c #747474",
"M 	c #1C1C1C",
"N 	c #646464",
"O 	c #707273",
"P 	c #B7BCBD",
"Q 	c #CBCFD0",
"R 	c #CCD0D1",
"S 	c #CACECF",
"T 	c #B5B9BA",
"U 	c #505050",
"V 	c #6D6D6D",
"W 	c #4F4F4F",
"X 	c #6F7172",
"Y 	c #CED2D3",
"Z 	c #BBBEBF",
"` 	c #5B5C5C",
" .	c #5D5D5D",
"..	c #181818",
"+.	c #191919",
"@.	c #606060",
"#.	c #494A4A",
"$.	c #797B7C",
"%.	c #BCBFC0",
"&.	c #D1D4D4",
"*.	c #C5C8C8",
"=.	c #828484",
"-.	c #545555",
";.	c #595959",
">.	c #484949",
",.	c #8E9090",
"'.	c #D3D6D6",
").	c #CED0D0",
"!.	c #ABADAD",
"~.	c #5E5F5F",
"{.	c #434343",
"].	c #646565",
"^.	c #D6D8D8",
"/.	c #D5D7D7",
"(.	c #C6C8C8",
"_.	c #939595",
":.	c #505151",
"<.	c #5C5C5C",
"[.	c #5F5F5F",
"}.	c #3C3C3C",
"|.	c #D8DADA",
"1.	c #C1C2C2",
"2.	c #929393",
"3.	c #616262",
"4.	c #444545",
"5.	c #3C3D3D",
"6.	c #3A3A3A",
"7.	c #454646",
"8.	c #626363",
"9.	c #C1C3C3",
"0.	c #DADCDC",
"a.	c #C8C9C9",
"b.	c #7E7F7F",
"c.	c #DDDEDE",
"d.	c #DBDCDC",
"e.	c #D6D7D7",
"f.	c #CFD0D0",
"g.	c #E6E5E5",
"h.	c #E5E4E4",
"i.	c #F6F6F6",
". . . . . . . . . . . . . . . . . . . . . . ",
"+ + + + + + + + + + + + + + + + + + + + + + ",
"@ @ @ @ @ @ @ @ @ @ @ @ @ @ @ @ @ @ @ @ @ @ ",
"# # # # # # # # # # # # # # # # # # # # # # ",
"$ $ $ $ $ $ $ $ $ $ % % $ $ $ $ $ $ $ $ $ $ ",
"$ $ $ $ $ $ $ & * = - ; > , ' $ $ $ $ $ $ $ ",
") ) ) ) ) ) ! ~ { ] ] ^ / ( _ : ) ) ) ) ) ) ",
"< < < < < [ } | 1 2 1 3 4 5 6 7 8 < < < < < ",
"9 9 9 9 0 a b c d e f ~ f f g h i 0 9 9 9 9 ",
"j j j j k l m n o 6 6 p q r s t u k j j j j ",
"v v v v w x y z q q A q q B C D E F v v v v ",
"G H H v I J y K L M M M L K N x O P v H H G ",
"Q R R S T U l V n n B n n V y W X ! S R R Q ",
": Y Y R Z `  ...+.s s s +.+.@.#.$.%.R Y Y : ",
"&.&.&.&.*.=.-.s s s s s s s ;.>.,.*.&.&.&.&.",
"'.'.'.'.).!.~. .C C C C C @.{.].!.).'.'.'.'.",
"^.^.^.^./.(._.-.:.<.[.<.W }.-._.(./.^.^.^.^.",
"|.|.|.|.|./.1.2.3.4.5.6.7.8.2.9./.|.|.|.|.|.",
"0.0.0.0.0.0.^.a.!.,.b.b.,.!.a.^.0.0.0.0.0.0.",
"c.c.c.c.c.c.c.d.e.f.a.a.f.e.d.c.c.c.c.c.c.c.",
"g.g.g.g.g.g.g.g.g.g.h.h.g.g.g.g.g.g.g.g.g.g.",
"i.i.i.i.i.i.i.i.i.i.i.i.i.i.i.i.i.i.i.i.i.i."};
