/* XPM */
static char * button_close_pressed_xpm[] = {
"22 22 147 2",
"  	c None",
". 	c #45666F",
"+ 	c #68858D",
"@ 	c #97ADB4",
"# 	c #6A8A97",
"$ 	c #517887",
"% 	c #D1D5D6",
"& 	c #C8CCCD",
"* 	c #989A9A",
"= 	c #989898",
"- 	c #9F9F9F",
"; 	c #9A9B9B",
"> 	c #98999A",
", 	c #C4C8C8",
"' 	c #D0D4D5",
") 	c #C0C6C7",
"! 	c #ACB0B1",
"~ 	c #868686",
"{ 	c #B7B7B7",
"] 	c #C0C0C0",
"^ 	c #BFBFBF",
"/ 	c #BBBBBB",
"( 	c #8F8F8F",
"_ 	c #A2A6A7",
": 	c #BEC4C5",
"< 	c #C2C8C9",
"[ 	c #B9BFBF",
"} 	c #787979",
"| 	c #A3A3A3",
"1 	c #7D7E7E",
"2 	c #707070",
"3 	c #999A9A",
"4 	c #A4A4A4",
"5 	c #7F7F7F",
"6 	c #ACB1B2",
"7 	c #C1C7C8",
"8 	c #C5CACB",
"9 	c #858788",
"0 	c #808080",
"a 	c #8D8E8F",
"b 	c #8C8D8D",
"c 	c #828282",
"d 	c #BEC2C3",
"e 	c #C7CCCD",
"f 	c #C4C9CA",
"g 	c #636464",
"h 	c #6C6C6C",
"i 	c #818283",
"j 	c #747474",
"k 	c #757575",
"l 	c #818282",
"m 	c #6A6A6A",
"n 	c #5D5D5D",
"o 	c #B3B7B8",
"p 	c #C9CECF",
"q 	c #C8CDCE",
"r 	c #BDC2C3",
"s 	c #555555",
"t 	c #636363",
"u 	c #535353",
"v 	c #565656",
"w 	c #7A7A7A",
"x 	c #797979",
"y 	c #505050",
"z 	c #656565",
"A 	c #9CA0A0",
"B 	c #C3C8C9",
"C 	c #CACECF",
"D 	c #CCD0D1",
"E 	c #CBCFD0",
"F 	c #BBBFC0",
"G 	c #525252",
"H 	c #737374",
"I 	c #575757",
"J 	c #595959",
"K 	c #7E7E7E",
"L 	c #585858",
"M 	c #717272",
"N 	c #646464",
"O 	c #545454",
"P 	c #969899",
"Q 	c #C3C6C7",
"R 	c #CED2D3",
"S 	c #CDD1D2",
"T 	c #C3C7C8",
"U 	c #616161",
"V 	c #848585",
"W 	c #777777",
"X 	c #838484",
"Y 	c #A0A3A4",
"Z 	c #D1D4D4",
"` 	c #C8CBCB",
" .	c #6A6B6B",
"..	c #898989",
"+.	c #606060",
"@.	c #5E5E5E",
"#.	c #878787",
"$.	c #888888",
"%.	c #5E5F5F",
"&.	c #A9ACAC",
"*.	c #D3D6D6",
"=.	c #CED0D0",
"-.	c #A3A5A5",
";.	c #585959",
">.	c #494949",
",.	c #ABABAB",
"'.	c #A7A8A8",
").	c #4A4A4A",
"!.	c #5C5C5C",
"~.	c #B3B6B6",
"{.	c #D6D8D8",
"].	c #D3D5D5",
"^.	c #C3C5C5",
"/.	c #878888",
"(.	c #626262",
"_.	c #777878",
":.	c #A1A2A2",
"<.	c #D8DADA",
"[.	c #D0D2D2",
"}.	c #B8BABA",
"|.	c #8F9090",
"1.	c #6B6C6C",
"2.	c #5F5F5F",
"3.	c #686868",
"4.	c #808181",
"5.	c #9B9C9C",
"6.	c #DADCDC",
"7.	c #D9DBDB",
"8.	c #B9BBBB",
"9.	c #A2A3A3",
"0.	c #939494",
"a.	c #8A8B8B",
"b.	c #8D8E8E",
"c.	c #959696",
"d.	c #CFD1D1",
"e.	c #DDDEDE",
"f.	c #DBDCDC",
"g.	c #D4D5D5",
"h.	c #C7C8C8",
"i.	c #B9BABA",
"j.	c #B1B2B2",
"k.	c #E6E5E5",
"l.	c #E5E4E4",
"m.	c #E3E2E2",
"n.	c #DFDEDE",
"o.	c #DCDBDB",
"p.	c #F6F6F6",
". . . . . . . . . . . . . . . . . . . . . . ",
"+ + + + + + + + + + + + + + + + + + + + + + ",
"@ @ @ @ @ @ @ @ @ @ @ @ @ @ @ @ @ @ @ @ @ @ ",
"# # # # # # # # # # # # # # # # # # # # # # ",
"$ $ $ $ $ $ $ $ $ $ $ $ $ $ $ $ $ $ $ $ $ $ ",
"$ $ $ $ $ $ $ $ $ $ $ $ $ $ $ $ $ $ $ $ $ $ ",
"% % % % % % % & * = - ; > , ' % % % % % % % ",
") ) ) ) ) ) ! ~ { ] ] ^ / ( _ : ) ) ) ) ) ) ",
"< < < < < [ } | ; 1 2 1 3 4 5 6 7 < < < < < ",
"8 8 8 8 8 9 0 a 2 2 2 2 2 b c } d 8 8 8 8 8 ",
"e e e e f g h i j j j k j l m n o f e e e e ",
"e p p q r s t u v w w x s y z v A B e p p q ",
"C D D E F G t H I J K L s M N O P Q C D D E ",
"D R R S T u U V x J J I W X t y Y T D R R S ",
"Z Z Z Z `  .n ..+.@.#.n @.$.+.%.&.` Z Z Z Z ",
"*.*.*.*.=.-.;.>.z ,.| '.z ).!.X ~.=.*.*.*.*.",
"{.{.{.{.].^./.U z z z z z (._.:.^.].{.{.{.{.",
"<.<.<.<.<.[.}.|.1.2.2.@.3.4.5.}.[.<.<.<.<.<.",
"6.6.6.6.6.7.=.8.9.0.a.b.c.9.8.d.7.6.6.6.6.6.",
"e.e.e.e.e.e.f.g.h.i.j.j.i.h.g.f.e.e.e.e.e.e.",
"k.k.k.k.k.k.k.l.m.n.o.o.n.m.l.k.k.k.k.k.k.k.",
"p.p.p.p.p.p.p.p.p.p.p.p.p.p.p.p.p.p.p.p.p.p."};
