/* XPM */
static char * button_max_pressed_xpm[] = {
"22 22 146 2",
"  	c None",
". 	c #45666F",
"+ 	c #68858D",
"@ 	c #97ADB4",
"# 	c #6A8A97",
"$ 	c #517887",
"% 	c #D1D5D6",
"& 	c #C8CCCD",
"* 	c #989A9A",
"= 	c #989898",
"- 	c #9F9F9F",
"; 	c #9A9B9B",
"> 	c #98999A",
", 	c #C4C8C8",
"' 	c #D0D4D5",
") 	c #C0C6C7",
"! 	c #ACB0B1",
"~ 	c #868686",
"{ 	c #B7B7B7",
"] 	c #C0C0C0",
"^ 	c #BFBFBF",
"/ 	c #BBBBBB",
"( 	c #8F8F8F",
"_ 	c #A2A6A7",
": 	c #BEC4C5",
"< 	c #C2C8C9",
"[ 	c #B9BFBF",
"} 	c #787979",
"| 	c #A3A3A3",
"1 	c #7D7E7E",
"2 	c #707070",
"3 	c #999A9A",
"4 	c #A4A4A4",
"5 	c #7F7F7F",
"6 	c #ACB1B2",
"7 	c #C1C7C8",
"8 	c #C5CACB",
"9 	c #858788",
"0 	c #808080",
"a 	c #8D8E8F",
"b 	c #8C8D8D",
"c 	c #828282",
"d 	c #BEC2C3",
"e 	c #C7CCCD",
"f 	c #C4C9CA",
"g 	c #636464",
"h 	c #6C6C6C",
"i 	c #818283",
"j 	c #747474",
"k 	c #585858",
"l 	c #757575",
"m 	c #818282",
"n 	c #6A6A6A",
"o 	c #5D5D5D",
"p 	c #B3B7B8",
"q 	c #C8CDCE",
"r 	c #C9CECF",
"s 	c #BDC2C3",
"t 	c #555555",
"u 	c #636363",
"v 	c #787878",
"w 	c #5C5C5C",
"x 	c #5B5B5B",
"y 	c #727272",
"z 	c #656565",
"A 	c #565656",
"B 	c #9CA0A0",
"C 	c #CBCFD0",
"D 	c #CCD0D1",
"E 	c #CACECF",
"F 	c #BBBFC0",
"G 	c #525252",
"H 	c #737373",
"I 	c #5E5E5E",
"J 	c #5A5A5A",
"K 	c #717272",
"L 	c #646464",
"M 	c #545454",
"N 	c #969899",
"O 	c #C4C7C8",
"P 	c #CDD1D2",
"Q 	c #CED2D3",
"R 	c #C3C7C8",
"S 	c #535353",
"T 	c #616161",
"U 	c #606161",
"V 	c #595959",
"W 	c #5F5F5F",
"X 	c #505050",
"Y 	c #A0A3A4",
"Z 	c #C4C8C9",
"` 	c #D1D4D4",
" .	c #C8CBCB",
"..	c #6A6B6B",
"+.	c #626363",
"@.	c #888888",
"#.	c #878787",
"$.	c #626262",
"%.	c #606060",
"&.	c #5E5F5F",
"*.	c #A9ACAC",
"=.	c #D3D6D6",
"-.	c #CED0D0",
";.	c #A3A5A5",
">.	c #585959",
",.	c #676767",
"'.	c #949595",
").	c #ABABAB",
"!.	c #A7A8A8",
"~.	c #939494",
"{.	c #686868",
"].	c #838484",
"^.	c #B3B6B6",
"/.	c #D6D8D8",
"(.	c #D3D5D5",
"_.	c #C3C5C5",
":.	c #878888",
"<.	c #777878",
"[.	c #A1A2A2",
"}.	c #D8DADA",
"|.	c #D0D2D2",
"1.	c #B8BABA",
"2.	c #8F9090",
"3.	c #6B6C6C",
"4.	c #808181",
"5.	c #9B9C9C",
"6.	c #DADCDC",
"7.	c #D9DBDB",
"8.	c #B9BBBB",
"9.	c #A2A3A3",
"0.	c #8A8B8B",
"a.	c #8D8E8E",
"b.	c #959696",
"c.	c #CFD1D1",
"d.	c #DDDEDE",
"e.	c #DBDCDC",
"f.	c #D4D5D5",
"g.	c #C7C8C8",
"h.	c #B9BABA",
"i.	c #B1B2B2",
"j.	c #E6E5E5",
"k.	c #E5E4E4",
"l.	c #E3E2E2",
"m.	c #DFDEDE",
"n.	c #DCDBDB",
"o.	c #F6F6F6",
". . . . . . . . . . . . . . . . . . . . . . ",
"+ + + + + + + + + + + + + + + + + + + + + + ",
"@ @ @ @ @ @ @ @ @ @ @ @ @ @ @ @ @ @ @ @ @ @ ",
"# # # # # # # # # # # # # # # # # # # # # # ",
"$ $ $ $ $ $ $ $ $ $ $ $ $ $ $ $ $ $ $ $ $ $ ",
"$ $ $ $ $ $ $ $ $ $ $ $ $ $ $ $ $ $ $ $ $ $ ",
"% % % % % % % & * = - ; > , ' % % % % % % % ",
") ) ) ) ) ) ! ~ { ] ] ^ / ( _ : ) ) ) ) ) ) ",
"< < < < < [ } | ; 1 2 1 3 4 5 6 7 < < < < < ",
"8 8 8 8 8 9 0 a 2 2 2 2 2 b c } d 8 8 8 8 8 ",
"e e e e f g h i j j k l j m n o p f e e e e ",
"q r r e s t u l v w w x v y z A B f e r r r ",
"C D D E F G u H w I I o J K L M N O E D D D ",
"P Q Q D R S T U J o 5 x V W u X Y Z D Q Q Q ",
"` ` ` `  ...o +.L @.#.~ $.+.%.&.*. .` ` ` ` ",
"=.=.=.=.-.;.>.,.'.).| !.~.{.w ].^.-.=.=.=.=.",
"/./././.(._.:.T z z z z z $.<.[._.(././././.",
"}.}.}.}.}.|.1.2.3.W W I {.4.5.1.|.}.}.}.}.}.",
"6.6.6.6.6.7.-.8.9.~.0.a.b.9.8.c.7.6.6.6.6.6.",
"d.d.d.d.d.d.e.f.g.h.i.i.h.g.f.e.d.d.d.d.d.d.",
"j.j.j.j.j.j.j.k.l.m.n.n.m.l.k.j.j.j.j.j.j.j.",
"o.o.o.o.o.o.o.o.o.o.o.o.o.o.o.o.o.o.o.o.o.o."};
