/* XPM */
static char * button_stick_unfocus_xpm[] = {
"22 22 124 2",
"  	g None",
". 	g #5D5D5D",
"+ 	g #7D7D7D",
"@ 	g #A7A7A7",
"# 	g #818181",
"$ 	g #6D6D6D",
"% 	g #6C6C6C",
"& 	g #717171",
"* 	g #707070",
"= 	g #8D8D8D",
"- 	g #999999",
"; 	g #909090",
"> 	g #747474",
", 	g #6E6E6E",
"' 	g #D3D3D3",
") 	g #777777",
"! 	g #727272",
"~ 	g #808080",
"{ 	g #B7B7B7",
"] 	g #C0C0C0",
"^ 	g #BFBFBF",
"/ 	g #BBBBBB",
"( 	g #8A8A8A",
"_ 	g #C4C4C4",
": 	g #6B6B6B",
"< 	g #737373",
"[ 	g #A3A3A3",
"} 	g #A9A9A9",
"| 	g #ACACAC",
"1 	g #AAAAAA",
"2 	g #A8A8A8",
"3 	g #A4A4A4",
"4 	g #7B7B7B",
"5 	g #797979",
"6 	g #C6C6C6",
"7 	g #C5C5C5",
"8 	g #868686",
"9 	g #8C8C8C",
"0 	g #919191",
"a 	g #8E8E8E",
"b 	g #898989",
"c 	g #828282",
"d 	g #5F5F5F",
"e 	g #7F7F7F",
"f 	g #C8C8C8",
"g 	g #C3C3C3",
"h 	g #616161",
"i 	g #767676",
"j 	g #878787",
"k 	g #292929",
"l 	g #858585",
"m 	g #6A6A6A",
"n 	g #595959",
"o 	g #CACACA",
"p 	g #B8B8B8",
"q 	g #545454",
"r 	g #636363",
"s 	g #282828",
"t 	g #7C7C7C",
"u 	g #656565",
"v 	g #565656",
"w 	g #5B5B5B",
"x 	g #CCCCCC",
"y 	g #CBCBCB",
"z 	g #B2B2B2",
"A 	g #525252",
"B 	g #262626",
"C 	g #272727",
"D 	g #646464",
"E 	g #535353",
"F 	g #CECECE",
"G 	g #CDCDCD",
"H 	g #505050",
"I 	g #242424",
"J 	g #252525",
"K 	g #4F4F4F",
"L 	g #515151",
"M 	g #848484",
"N 	g #929292",
"O 	g #D0D0D0",
"P 	g #CFCFCF",
"Q 	g #BEBEBE",
"R 	g #232323",
"S 	g #606060",
"T 	g #464646",
"U 	g #5A5A5A",
"V 	g #979797",
"W 	g #989898",
"X 	g #C7C7C7",
"Y 	g #838383",
"Z 	g #676767",
"` 	g #222222",
" .	g #686868",
"..	g #3A3A3A",
"+.	g #696969",
"@.	g #939393",
"#.	g #9C9C9C",
"$.	g #D5D5D5",
"%.	g #5E5E5E",
"&.	g #3B3B3B",
"*.	g #4C4C4C",
"=.	g #9B9B9B",
"-.	g #A0A0A0",
";.	g #D7D7D7",
">.	g #D6D6D6",
",.	g #949494",
"'.	g #5C5C5C",
").	g #393939",
"!.	g #383838",
"~.	g #9F9F9F",
"{.	g #D9D9D9",
"].	g #C1C1C1",
"^.	g #444444",
"/.	g #3C3C3C",
"(.	g #454545",
"_.	g #626262",
":.	g #9A9A9A",
"<.	g #DBDBDB",
"[.	g #8F8F8F",
"}.	g #7E7E7E",
"|.	g #DDDDDD",
"1.	g #E5E5E5",
"2.	g #E4E4E4",
"3.	g #F6F6F6",
". . . . . . . . . . . . . . . . . . . . . . ",
"+ + + + + + + + + + + + + + + + + + + + + + ",
"@ @ @ @ @ @ @ @ @ @ @ @ @ @ @ @ @ @ @ @ @ @ ",
"# # # # # # # # # # # # # # # # # # # # # # ",
"$ $ $ $ $ $ $ $ $ $ $ % % $ $ $ $ $ $ $ $ $ ",
"$ $ $ $ $ & & & * * = - ; > , * & & & & & & ",
"' ' ' ' ' $ ) ! ~ { ] ] ^ / ( % > ) ) ) ) ) ",
"_ _ _ _ _ ' : < [ } | 1 } 2 3 4 % 5 4 4 4 4 ",
"6 6 6 6 6 7 8 ~ 9 ; 0 0 a = b c d ) e ~ ~ ~ ",
"f f f f f g h % i e j k l + > m n m # l l l ",
"o o o o o p q r ! e s s s t * u v w # b b b ",
"x x x x y z A r < B C C B B & D q E # = a a ",
"F F F F G p H h I J J J J J I r K L M 0 N N ",
"O O O O P Q w . $ * R R R * $ S T U ( V W W ",
"' ' ' ' ' X Y q Z m ` ` ` m  .n ..+.@.#.#.#.",
"$.$.$.$.$.P | %.. u u u u u S &.*.# =.-.-.-.",
";.;.;.;.;.>.X ,.q H '.d '.K ).!., ,.~.-.-.-.",
"{.{.{.{.{.{.>.].N h ^./...(._.b ~ :.#.#.#.#.",
"<.<.<.<.<.<.<.;.f | [.}.}.[.| f X [.[.[.[.[.",
"|.|.|.|.|.|.|.|.<.>.P f f P >.<.|.y y y y y ",
"1.1.1.1.1.1.1.1.1.1.1.2.2.1.1.1.1.1.1.1.1.1.",
"3.3.3.3.3.3.3.3.3.3.3.3.3.3.3.3.3.3.3.3.3.3."};
