/* XPM */
static char * button_stick_active_xpm[] = {
"22 22 180 2",
"  	c None",
". 	c #45666F",
"+ 	c #68858D",
"@ 	c #97ADB4",
"# 	c #6A8A97",
"$ 	c #517887",
"% 	c #507786",
"& 	c #557C8B",
"* 	c #567A87",
"= 	c #65757B",
"- 	c #8A8E90",
"; 	c #989A9B",
"> 	c #8E9193",
", 	c #6A787D",
"' 	c #557784",
") 	c #547B89",
"! 	c #D1D5D6",
"~ 	c #5A828F",
"{ 	c #5C7B85",
"] 	c #7E8181",
"^ 	c #B7B7B7",
"/ 	c #C0C0C0",
"( 	c #BFBFBF",
"_ 	c #BBBBBB",
": 	c #8A8B8C",
"< 	c #59747C",
"[ 	c #587F8C",
"} 	c #C0C6C7",
"| 	c #517482",
"1 	c #717475",
"2 	c #A3A3A3",
"3 	c #A9A9A9",
"4 	c #ACACAC",
"5 	c #AAAAAA",
"6 	c #A8A8A8",
"7 	c #A4A4A4",
"8 	c #7B7C7C",
"9 	c #56757F",
"0 	c #5C8491",
"a 	c #5E8693",
"b 	c #C2C8C9",
"c 	c #C1C7C8",
"d 	c #868788",
"e 	c #808080",
"f 	c #8C8C8C",
"g 	c #909090",
"h 	c #919191",
"i 	c #8E8E8E",
"j 	c #8D8D8D",
"k 	c #898989",
"l 	c #828282",
"m 	c #596264",
"n 	c #5C818D",
"o 	c #628A97",
"p 	c #638B98",
"q 	c #C5CACB",
"r 	c #C0C5C6",
"s 	c #616161",
"t 	c #6C6C6C",
"u 	c #767676",
"v 	c #7F7F7F",
"w 	c #878787",
"x 	c #292929",
"y 	c #858585",
"z 	c #7D7D7D",
"A 	c #747474",
"B 	c #6A6A6A",
"C 	c #595A5A",
"D 	c #53737D",
"E 	c #648C98",
"F 	c #67909C",
"G 	c #C7CCCD",
"H 	c #B6BABB",
"I 	c #545454",
"J 	c #636363",
"K 	c #727272",
"L 	c #282828",
"M 	c #7C7C7C",
"N 	c #707070",
"O 	c #656565",
"P 	c #565656",
"Q 	c #4B6269",
"R 	c #668C97",
"S 	c #6C95A0",
"T 	c #C9CECF",
"U 	c #C8CDCE",
"V 	c #AFB4B4",
"W 	c #525252",
"X 	c #737373",
"Y 	c #262626",
"Z 	c #272727",
"` 	c #717171",
" .	c #646464",
"..	c #46595F",
"+.	c #668B96",
"@.	c #6F98A4",
"#.	c #7099A5",
"$.	c #CCD0D1",
"%.	c #CBCFD0",
"&.	c #505050",
"*.	c #242424",
"=.	c #252525",
"-.	c #4F4F4F",
";.	c #41575D",
">.	c #698E98",
",.	c #749DA8",
"'.	c #759EA9",
").	c #CED2D3",
"!.	c #CDD1D2",
"~.	c #BCBFC0",
"{.	c #5B5C5C",
"].	c #5D5D5D",
"^.	c #6D6D6D",
"/.	c #232323",
"(.	c #606060",
"_.	c #444747",
":.	c #486166",
"<.	c #6F959E",
"[.	c #79A3AC",
"}.	c #7AA4AD",
"|.	c #D1D4D4",
"1.	c #C5C8C8",
"2.	c #828484",
"3.	c #545555",
"4.	c #676767",
"5.	c #222222",
"6.	c #686868",
"7.	c #595959",
"8.	c #333E40",
"9.	c #557278",
"0.	c #779EA7",
"a.	c #7EA8B1",
"b.	c #D3D6D6",
"c.	c #CED0D0",
"d.	c #ABADAD",
"e.	c #5E5F5F",
"f.	c #363D3E",
"g.	c #3D5255",
"h.	c #688C92",
"i.	c #7DA8B0",
"j.	c #81ADB5",
"k.	c #D6D8D8",
"l.	c #D5D7D7",
"m.	c #C6C8C8",
"n.	c #939595",
"o.	c #505151",
"p.	c #5C5C5C",
"q.	c #5F5F5F",
"r.	c #393A3B",
"s.	c #2C3D40",
"t.	c #59777C",
"u.	c #77A0A8",
"v.	c #80ACB4",
"w.	c #D8DADA",
"x.	c #C1C2C2",
"y.	c #929393",
"z.	c #616262",
"A.	c #444545",
"B.	c #3C3D3D",
"C.	c #3A3A3A",
"D.	c #454646",
"E.	c #626363",
"F.	c #868B8D",
"G.	c #658B91",
"H.	c #7CA7AE",
"I.	c #7EA9B1",
"J.	c #DADCDC",
"K.	c #C8C9C9",
"L.	c #8E9090",
"M.	c #7E7F7F",
"N.	c #C2CACC",
"O.	c #719BA2",
"P.	c #DDDEDE",
"Q.	c #DBDCDC",
"R.	c #D6D7D7",
"S.	c #CFD0D0",
"T.	c #C6CED0",
"U.	c #E6E5E5",
"V.	c #E5E4E4",
"W.	c #F6F6F6",
". . . . . . . . . . . . . . . . . . . . . . ",
"+ + + + + + + + + + + + + + + + + + + + + + ",
"@ @ @ @ @ @ @ @ @ @ @ @ @ @ @ @ @ @ @ @ @ @ ",
"# # # # # # # # # # # # # # # # # # # # # # ",
"$ $ $ $ $ $ $ $ $ $ $ % % $ $ $ $ $ $ $ $ $ ",
"$ $ $ $ $ & & & * = - ; > , ' ) & & & & & & ",
"! ! ! ! ! $ ~ { ] ^ / / ( _ : < [ ~ ~ ~ ~ ~ ",
"} } } } } ! | 1 2 3 4 5 3 6 7 8 9 0 a a a a ",
"b b b b b c d e f g h h i j k l m n o p p p ",
"q q q q q r s t u v w x y z A B C D E F F F ",
"G G G G G H I J K v L L L M N O P Q R S S S ",
"T T T T U V W J X Y Z Z Y Y `  .I ..+.@.#.#.",
"$.$.$.$.%.H &.s *.=.=.=.=.=.*.J -.;.>.,.'.'.",
").).).).!.~.{.].^.N /././.N ^.(._.:.<.[.}.}.",
"|.|.|.|.|.1.2.3.4.B 5.5.5.B 6.7.8.9.0.a.a.a.",
"b.b.b.b.b.c.d.e.].O O O O O (.f.g.h.i.j.j.j.",
"k.k.k.k.k.l.m.n.3.o.p.q.p.-.r.s.t.u.v.j.j.j.",
"w.w.w.w.w.w.l.x.y.z.A.B.C.D.E.F.G.H.I.I.I.I.",
"J.J.J.J.J.J.J.k.K.d.L.M.M.L.d.K.N.O.O.O.O.O.",
"P.P.P.P.P.P.P.P.Q.R.S.K.K.S.R.Q.P.T.T.T.T.T.",
"U.U.U.U.U.U.U.U.U.U.U.V.V.U.U.U.U.U.U.U.U.U.",
"W.W.W.W.W.W.W.W.W.W.W.W.W.W.W.W.W.W.W.W.W.W."};
