/* XPM */
static char * button_stick_pressed_xpm[] = {
"22 22 165 2",
"  	c None",
". 	c #45666F",
"+ 	c #68858D",
"@ 	c #97ADB4",
"# 	c #6A8A97",
"$ 	c #517887",
"% 	c #557C8B",
"& 	c #D1D5D6",
"* 	c #5A828F",
"= 	c #5B808C",
"- 	c #68787D",
"; 	c #8A8F90",
"> 	c #999B9C",
", 	c #8F9394",
"' 	c #6D7C80",
") 	c #5B7E89",
"! 	c #59818E",
"~ 	c #C0C6C7",
"{ 	c #517482",
"] 	c #5F7E89",
"^ 	c #7F8283",
"/ 	c #B7B7B7",
"( 	c #C0C0C0",
"_ 	c #BFBFBF",
": 	c #BBBBBB",
"< 	c #8B8C8D",
"[ 	c #5E7A83",
"} 	c #5D8491",
"| 	c #5E8693",
"1 	c #C2C8C9",
"2 	c #737373",
"3 	c #A3A3A3",
"4 	c #8E8E8E",
"5 	c #747474",
"6 	c #6E6E6E",
"7 	c #8D8D8D",
"8 	c #A4A4A4",
"9 	c #7B7D7E",
"0 	c #5F7F8A",
"a 	c #628A97",
"b 	c #638B98",
"c 	c #C5CACB",
"d 	c #5E5E5E",
"e 	c #808080",
"f 	c #7E7E7E",
"g 	c #727272",
"h 	c #7C7C7C",
"i 	c #828282",
"j 	c #5F6A6D",
"k 	c #638A96",
"l 	c #67909C",
"m 	c #C7CCCD",
"n 	c #C4C9CA",
"o 	c #636464",
"p 	c #6C6C6C",
"q 	c #717171",
"r 	c #767676",
"s 	c #777777",
"t 	c #575757",
"u 	c #787878",
"v 	c #707070",
"w 	c #6A6A6A",
"x 	c #5A5B5C",
"y 	c #628690",
"z 	c #6A939E",
"A 	c #6C95A0",
"B 	c #C9CECF",
"C 	c #BDC2C3",
"D 	c #555555",
"E 	c #636363",
"F 	c #797979",
"G 	c #5C5C5C",
"H 	c #5B5B5B",
"I 	c #7A7A7A",
"J 	c #656565",
"K 	c #565656",
"L 	c #6D95A1",
"M 	c #7099A5",
"N 	c #CCD0D1",
"O 	c #BBBFC0",
"P 	c #525252",
"Q 	c #5D5D5D",
"R 	c #5F5F5F",
"S 	c #5A5A5A",
"T 	c #646464",
"U 	c #545454",
"V 	c #5D787F",
"W 	c #7097A2",
"X 	c #759EA9",
"Y 	c #CED2D3",
"Z 	c #C3C7C8",
"` 	c #535353",
" .	c #616161",
"..	c #606060",
"+.	c #4F5050",
"@.	c #608087",
"#.	c #749CA4",
"$.	c #7AA4AD",
"%.	c #D1D4D4",
"&.	c #C8CBCB",
"*.	c #6A6B6B",
"=.	c #898989",
"-.	c #8B8B8B",
";.	c #666666",
">.	c #878787",
",.	c #505759",
"'.	c #66888F",
").	c #79A1AA",
"!.	c #7EA8B1",
"~.	c #D3D6D6",
"{.	c #CED0D0",
"].	c #A3A5A5",
"^.	c #585959",
"/.	c #676767",
"(.	c #949595",
"_.	c #909192",
":.	c #686868",
"<.	c #5B5B5C",
"[.	c #576E73",
"}.	c #6D939A",
"|.	c #7DA8B0",
"1.	c #81ADB5",
"2.	c #D6D8D8",
"3.	c #D3D5D5",
"4.	c #C3C5C5",
"5.	c #878888",
"6.	c #626262",
"7.	c #4B5A5C",
"8.	c #5D7D83",
"9.	c #759EA5",
"0.	c #7FAAB2",
"a.	c #D8DADA",
"b.	c #D0D2D2",
"c.	c #B8BABA",
"d.	c #8F9090",
"e.	c #6B6C6C",
"f.	c #7E7F7F",
"g.	c #8B9092",
"h.	c #56767B",
"i.	c #77A1A7",
"j.	c #7EA9B1",
"k.	c #DADCDC",
"l.	c #D9DBDB",
"m.	c #B9BBBB",
"n.	c #A2A3A3",
"o.	c #939494",
"p.	c #8A8B8B",
"q.	c #8D8E8E",
"r.	c #959696",
"s.	c #B8C0C2",
"t.	c #709AA1",
"u.	c #719BA2",
"v.	c #DDDEDE",
"w.	c #DBDCDC",
"x.	c #D4D5D5",
"y.	c #C7C8C8",
"z.	c #B9BABA",
"A.	c #B1B2B2",
"B.	c #C6CED0",
"C.	c #E6E5E5",
"D.	c #E5E4E4",
"E.	c #E3E2E2",
"F.	c #DFDEDE",
"G.	c #DCDBDB",
"H.	c #F6F6F6",
". . . . . . . . . . . . . . . . . . . . . . ",
"+ + + + + + + + + + + + + + + + + + + + + + ",
"@ @ @ @ @ @ @ @ @ @ @ @ @ @ @ @ @ @ @ @ @ @ ",
"# # # # # # # # # # # # # # # # # # # # # # ",
"$ $ $ $ $ $ $ $ $ $ $ $ $ $ $ $ $ $ $ $ $ $ ",
"$ $ $ $ $ % % % % % % % % % % % % % % % % % ",
"& & & & & $ * * = - ; > , ' ) ! * * * * * * ",
"~ ~ ~ ~ ~ & { ] ^ / ( ( _ : < [ } | | | | | ",
"1 1 1 1 1 1 & 2 3 4 5 6 5 7 8 9 0 a b b b b ",
"c c c c c c d e f g 2 5 2 g h i j k l l l l ",
"m m m m m n o p q r s t u r v w x y z A A A ",
"B B B B B C D E 2 F G G H I v J K [ L M M M ",
"N N N N N O P E 6 Q R R d S p T U V W X X X ",
"Y Y Y Y Y Z `  .K H R ..Q S U E +.@.#.$.$.$.",
"%.%.%.%.%.&.*.Q =.-.;.;.J >.2 ..,.'.).!.!.!.",
"~.~.~.~.~.{.].^./.(._ _ _ _.:.<.[.}.|.1.1.1.",
"2.2.2.2.2.3.4.5. .J J J J J 6.7.8.9.0.1.1.1.",
"a.a.a.a.a.a.b.c.d.e.R R d /.f.g.h.i.j.j.j.j.",
"k.k.k.k.k.k.l.{.m.n.o.p.q.r.n.m.s.t.u.u.u.u.",
"v.v.v.v.v.v.v.w.x.y.z.A.A.z.y.x.w.B.B.B.B.B.",
"C.C.C.C.C.C.C.C.D.E.F.G.G.F.E.D.C.C.C.C.C.C.",
"H.H.H.H.H.H.H.H.H.H.H.H.H.H.H.H.H.H.H.H.H.H."};
