/* XPM */
static char * button_min_pressed_xpm[] = {
"22 22 169 2",
"  	c None",
". 	c #45666F",
"+ 	c #68858D",
"@ 	c #97ADB4",
"# 	c #6A8A97",
"$ 	c #517887",
"% 	c #557C8B",
"& 	c #5A828F",
"* 	c #5B808C",
"= 	c #68787D",
"- 	c #8A8F90",
"; 	c #999B9C",
"> 	c #8F9394",
", 	c #6D7C80",
"' 	c #5B7E89",
") 	c #59818E",
"! 	c #587F8C",
"~ 	c #D1D5D6",
"{ 	c #5E8693",
"] 	c #5F7E89",
"^ 	c #7F8283",
"/ 	c #B7B7B7",
"( 	c #C0C0C0",
"_ 	c #BFBFBF",
": 	c #BBBBBB",
"< 	c #8B8C8D",
"[ 	c #5E7A83",
"} 	c #4B6A75",
"| 	c #CED2D3",
"1 	c #C0C6C7",
"2 	c #638B98",
"3 	c #628793",
"4 	c #717475",
"5 	c #A3A3A3",
"6 	c #838C8F",
"7 	c #6A7072",
"8 	c #6A6A6A",
"9 	c #828B8E",
"0 	c #A4A4A4",
"a 	c #7B7C7C",
"b 	c #B6B9BA",
"c 	c #C4C9CA",
"d 	c #C1C7C8",
"e 	c #C2C8C9",
"f 	c #67909C",
"g 	c #607175",
"h 	c #808080",
"i 	c #7B8385",
"j 	c #707070",
"k 	c #798184",
"l 	c #828282",
"m 	c #5C5C5C",
"n 	c #BFC4C5",
"o 	c #C5CACB",
"p 	c #6C95A0",
"q 	c #6A939E",
"r 	c #5B5F60",
"s 	c #6C6C6C",
"t 	c #70787A",
"u 	c #747474",
"v 	c #757575",
"w 	c #616161",
"x 	c #595959",
"y 	c #B3B7B8",
"z 	c #C7CCCD",
"A 	c #7099A5",
"B 	c #6C919C",
"C 	c #555555",
"D 	c #636363",
"E 	c #555656",
"F 	c #7A7A7A",
"G 	c #797979",
"H 	c #525252",
"I 	c #656565",
"J 	c #565656",
"K 	c #9CA0A0",
"L 	c #C9CECF",
"M 	c #759EA9",
"N 	c #6E939C",
"O 	c #545555",
"P 	c #5B5B5B",
"Q 	c #5D5D5D",
"R 	c #7E7E7E",
"S 	c #646464",
"T 	c #545454",
"U 	c #969899",
"V 	c #C4C7C8",
"W 	c #CCD0D1",
"X 	c #7AA4AD",
"Y 	c #749CA4",
"Z 	c #4F5151",
"` 	c #747C7E",
" .	c #5A5A5A",
"..	c #5E5E5E",
"+.	c #5F5F5F",
"@.	c #838484",
"#.	c #505050",
"$.	c #A0A3A4",
"%.	c #C4C8C9",
"&.	c #7EA8B1",
"*.	c #79A1AA",
"=.	c #545F62",
"-.	c #788082",
";.	c #8B8B8B",
">.	c #878787",
",.	c #888888",
"'.	c #606060",
").	c #5E5F5F",
"!.	c #A9ACAC",
"~.	c #C8CBCB",
"{.	c #D1D4D4",
"].	c #81ADB5",
"^.	c #7DA8B0",
"/.	c #68888E",
"(.	c #565758",
"_.	c #676767",
":.	c #7D7D7D",
"<.	c #9C9C9C",
"[.	c #9A9A9A",
"}.	c #989898",
"|.	c #686868",
"1.	c #B3B6B6",
"2.	c #CED0D0",
"3.	c #D3D6D6",
"4.	c #7FAAB2",
"5.	c #759EA5",
"6.	c #53686C",
"7.	c #626262",
"8.	c #777878",
"9.	c #A1A2A2",
"0.	c #C3C5C5",
"a.	c #D3D5D5",
"b.	c #D6D8D8",
"c.	c #7EA9B1",
"d.	c #6B939A",
"e.	c #979D9E",
"f.	c #8F9090",
"g.	c #6D6E6E",
"h.	c #6B6B6B",
"i.	c #808181",
"j.	c #9B9C9C",
"k.	c #B8BABA",
"l.	c #D0D2D2",
"m.	c #D8DADA",
"n.	c #719BA2",
"o.	c #C5CDCF",
"p.	c #CBCCCC",
"q.	c #B9BBBB",
"r.	c #A2A3A3",
"s.	c #939494",
"t.	c #8A8B8B",
"u.	c #8D8E8E",
"v.	c #959696",
"w.	c #CFD1D1",
"x.	c #D9DBDB",
"y.	c #DADCDC",
"z.	c #C6CED0",
"A.	c #DDDEDE",
"B.	c #DBDCDC",
"C.	c #D4D5D5",
"D.	c #C7C8C8",
"E.	c #B9BABA",
"F.	c #B1B2B2",
"G.	c #E6E5E5",
"H.	c #E5E4E4",
"I.	c #E3E2E2",
"J.	c #DFDEDE",
"K.	c #DCDBDB",
"L.	c #F6F6F6",
". . . . . . . . . . . . . . . . . . . . . . ",
"+ + + + + + + + + + + + + + + + + + + + + + ",
"@ @ @ @ @ @ @ @ @ @ @ @ @ @ @ @ @ @ @ @ @ @ ",
"# # # # # # # # # # # # # # # # # # # # # # ",
"$ $ $ $ $ $ $ $ $ $ $ $ $ $ $ $ $ $ $ $ $ $ ",
"% % % % % % % % % % % % % % % % % $ $ $ $ $ ",
"& & & & & & & * = - ; > , ' ) ! $ ~ ~ ~ ~ ~ ",
"{ { { { { { ] ^ / ( ( _ : < [ } | 1 1 1 1 1 ",
"2 2 2 2 2 3 4 5 6 7 8 7 9 0 a b c d e e e e ",
"f f f f f g h i j j j j j k l m n o o o o o ",
"p p p p q r s t u u u v u w 8 x y c z z z z ",
"A A A A B C D E x F F G x H I J K c L L L L ",
"M M M M N H D O P Q R Q x H S T U V W W W W ",
"X X X X Y Z w `  ...+.m x @.D #.$.%.| | | | ",
"&.&.&.&.*.=.Q -.;.S S D >.,.'.).!.~.{.{.{.{.",
"].].].].^./.(._.:.<.[.}.:.|.m @.1.2.3.3.3.3.",
"].].].].4.5.6.Q I I I I I 7.8.9.0.a.b.b.b.b.",
"c.c.c.c.c.d.e.f.g.S I D h.i.j.k.l.m.m.m.m.m.",
"n.n.n.n.n.o.p.q.r.s.t.u.v.r.q.w.x.y.y.y.y.y.",
"z.z.z.z.z.A.B.C.D.E.F.F.E.D.C.B.A.A.A.A.A.A.",
"G.G.G.G.G.G.G.H.I.J.K.K.J.I.H.G.G.G.G.G.G.G.",
"L.L.L.L.L.L.L.L.L.L.L.L.L.L.L.L.L.L.L.L.L.L."};
