/* XPM */
static char * button_min_active_xpm[] = {
"22 22 173 2",
"  	c None",
". 	c #45666F",
"+ 	c #68858D",
"@ 	c #97ADB4",
"# 	c #6A8A97",
"$ 	c #517887",
"% 	c #507786",
"& 	c #557C8B",
"* 	c #567A87",
"= 	c #65757B",
"- 	c #8A8E90",
"; 	c #989A9B",
"> 	c #8E9193",
", 	c #6A787D",
"' 	c #557784",
") 	c #547B89",
"! 	c #5A828F",
"~ 	c #5C7B85",
"{ 	c #7E8181",
"] 	c #B7B7B7",
"^ 	c #C0C0C0",
"/ 	c #BFBFBF",
"( 	c #BBBBBB",
"_ 	c #8A8B8C",
": 	c #59747C",
"< 	c #587F8C",
"[ 	c #D1D5D6",
"} 	c #5E8693",
"| 	c #5D818D",
"1 	c #717475",
"2 	c #A3A3A3",
"3 	c #A7A7A7",
"4 	c #A5A5A5",
"5 	c #A4A4A4",
"6 	c #7B7C7C",
"7 	c #4C6B76",
"8 	c #CED2D3",
"9 	c #C0C6C7",
"0 	c #638B98",
"a 	c #628A97",
"b 	c #5D6C71",
"c 	c #808080",
"d 	c #8A8A8A",
"e 	c #8B8B8B",
"f 	c #888888",
"g 	c #878787",
"h 	c #868686",
"i 	c #828282",
"j 	c #707171",
"k 	c #B4B9BA",
"l 	c #C1C7C8",
"m 	c #C2C8C9",
"n 	c #67909C",
"o 	c #648C98",
"p 	c #5A5D5E",
"q 	c #6C6C6C",
"r 	c #747474",
"s 	c #797979",
"t 	c #7E7E7E",
"u 	c #7F7F7F",
"v 	c #7B7B7B",
"w 	c #777777",
"x 	c #717171",
"y 	c #6A6A6A",
"z 	c #5B5B5B",
"A 	c #9DA1A2",
"B 	c #C0C5C6",
"C 	c #C5CACB",
"D 	c #6C95A0",
"E 	c #658A93",
"F 	c #545454",
"G 	c #636363",
"H 	c #272727",
"I 	c #2A2A2A",
"J 	c #7D7D7D",
"K 	c #292929",
"L 	c #262626",
"M 	c #656565",
"N 	c #565656",
"O 	c #7E8182",
"P 	c #BCC0C1",
"Q 	c #C7CCCD",
"R 	c #7099A5",
"S 	c #6F98A4",
"T 	c #648791",
"U 	c #525252",
"V 	c #7C7C7C",
"W 	c #646464",
"X 	c #707373",
"Y 	c #B7BCBD",
"Z 	c #C8CDCE",
"` 	c #C9CECF",
" .	c #759EA9",
"..	c #749DA8",
"+.	c #688D97",
"@.	c #4D4E4F",
"#.	c #616161",
"$.	c #282828",
"%.	c #4F4F4F",
"&.	c #707273",
"*.	c #B8BBBC",
"=.	c #CBCFD0",
"-.	c #CCD0D1",
";.	c #7AA4AD",
">.	c #79A3AC",
",.	c #6F959E",
"'.	c #4B5354",
").	c #5D5D5D",
"!.	c #6F6F6F",
"~.	c #757575",
"{.	c #6E6E6E",
"].	c #606060",
"^.	c #4A4A4A",
"/.	c #797C7C",
"(.	c #BCBFC0",
"_.	c #CDD1D2",
":.	c #7EA8B1",
"<.	c #779EA7",
"[.	c #536B70",
"}.	c #535454",
"|.	c #696969",
"1.	c #242424",
"2.	c #595959",
"3.	c #484949",
"4.	c #8E9090",
"5.	c #C5C8C8",
"6.	c #D1D4D4",
"7.	c #81ADB5",
"8.	c #7DA8B0",
"9.	c #688C92",
"0.	c #445254",
"a.	c #5F5F5F",
"b.	c #727272",
"c.	c #626262",
"d.	c #434343",
"e.	c #646565",
"f.	c #ABADAD",
"g.	c #CED0D0",
"h.	c #D3D6D6",
"i.	c #80ACB4",
"j.	c #77A0A8",
"k.	c #4D6A6F",
"l.	c #4F5253",
"m.	c #545555",
"n.	c #3D3D3D",
"o.	c #939595",
"p.	c #C6C8C8",
"q.	c #D5D7D7",
"r.	c #D6D8D8",
"s.	c #7EA9B1",
"t.	c #6F99A0",
"u.	c #B1B8B9",
"v.	c #929393",
"w.	c #616262",
"x.	c #444545",
"y.	c #3D3E3E",
"z.	c #3B3B3B",
"A.	c #454646",
"B.	c #626363",
"C.	c #C1C3C3",
"D.	c #D8DADA",
"E.	c #719BA2",
"F.	c #C6CED0",
"G.	c #C8C9C9",
"H.	c #7E7F7F",
"I.	c #DADCDC",
"J.	c #DDDEDE",
"K.	c #DBDCDC",
"L.	c #D6D7D7",
"M.	c #CFD0D0",
"N.	c #E6E5E5",
"O.	c #E5E4E4",
"P.	c #F6F6F6",
". . . . . . . . . . . . . . . . . . . . . . ",
"+ + + + + + + + + + + + + + + + + + + + + + ",
"@ @ @ @ @ @ @ @ @ @ @ @ @ @ @ @ @ @ @ @ @ @ ",
"# # # # # # # # # # # # # # # # # # # # # # ",
"$ $ $ $ $ $ $ $ $ $ % % $ $ $ $ $ $ $ $ $ $ ",
"& & & & & & & * = - ; > , ' ) & & $ $ $ $ $ ",
"! ! ! ! ! ! ~ { ] ^ ^ / ( _ : < $ [ [ [ [ [ ",
"} } } } } | 1 2 3 3 2 2 4 5 6 7 8 9 9 9 9 9 ",
"0 0 0 0 a b c d e f g h g g i j k l m m m m ",
"n n n n o p q r s t u v w x y z A B C C C C ",
"D D D D E F G H I t t J K L M N O P Q Q Q Q ",
"R R R S T U G H K I V I K L W F X Y Z ` ` ` ",
" . . ...+.@.#.x $.$.$.$.$.x G %.&.*.=.-.-.-.",
";.;.;.>.,.'.).!.r L L L ~.{.].^./.(._.8 8 8 ",
":.:.:.:.<.[.}.|.x r 1.r x y 2.3.4.5.6.6.6.6.",
"7.7.7.7.8.9.0.a.q x b.x q c.d.e.f.g.h.h.h.h.",
"7.7.7.7.i.j.k.l.m.M y M F n.m.o.p.q.r.r.r.r.",
"s.s.s.s.s.t.u.v.w.x.y.z.A.B.v.C.q.D.D.D.D.D.",
"E.E.E.E.E.F.r.G.f.4.H.H.4.f.G.r.I.I.I.I.I.I.",
"F.F.F.F.F.J.J.K.L.M.G.G.M.L.K.J.J.J.J.J.J.J.",
"N.N.N.N.N.N.N.N.N.N.O.O.N.N.N.N.N.N.N.N.N.N.",
"P.P.P.P.P.P.P.P.P.P.P.P.P.P.P.P.P.P.P.P.P.P."};
