/* XPM */
static char * button_close_unfocus_xpm[] = {
"22 22 104 2",
"  	g None",
". 	g #5D5D5D",
"+ 	g #7D7D7D",
"@ 	g #A7A7A7",
"# 	g #818181",
"$ 	g #6D6D6D",
"% 	g #6C6C6C",
"& 	g #6F6F6F",
"* 	g #8C8C8C",
"= 	g #999999",
"- 	g #8F8F8F",
"; 	g #727272",
"> 	g #6B6B6B",
", 	g #D3D3D3",
"' 	g #BABABA",
") 	g #868686",
"! 	g #B7B7B7",
"~ 	g #C0C0C0",
"{ 	g #BFBFBF",
"] 	g #BBBBBB",
"^ 	g #8E8E8E",
"/ 	g #A9A9A9",
"( 	g #CFCFCF",
"_ 	g #C4C4C4",
": 	g #B9B9B9",
"< 	g #787878",
"[ 	g #A3A3A3",
"} 	g #AAAAAA",
"| 	g #ACACAC",
"1 	g #A6A6A6",
"2 	g #A4A4A4",
"3 	g #7E7E7E",
"4 	g #A5A5A5",
"5 	g #C1C1C1",
"6 	g #C6C6C6",
"7 	g #C5C5C5",
"8 	g #808080",
"9 	g #919191",
"0 	g #8B8B8B",
"a 	g #878787",
"b 	g #828282",
"c 	g #C8C8C8",
"d 	g #C3C3C3",
"e 	g #616161",
"f 	g #1B1B1B",
"g 	g #1E1E1E",
"h 	g #1D1D1D",
"i 	g #1A1A1A",
"j 	g #6A6A6A",
"k 	g #5B5B5B",
"l 	g #9F9F9F",
"m 	g #CACACA",
"n 	g #B8B8B8",
"o 	g #545454",
"p 	g #636363",
"q 	g #737373",
"r 	g #7A7A7A",
"s 	g #707070",
"t 	g #656565",
"u 	g #565656",
"v 	g #BEBEBE",
"w 	g #CBCBCB",
"x 	g #CCCCCC",
"y 	g #B1B1B1",
"z 	g #525252",
"A 	g #717171",
"B 	g #747474",
"C 	g #1C1C1C",
"D 	g #646464",
"E 	g #CDCDCD",
"F 	g #CECECE",
"G 	g #505050",
"H 	g #4F4F4F",
"I 	g #D0D0D0",
"J 	g #BDBDBD",
"K 	g #181818",
"L 	g #191919",
"M 	g #606060",
"N 	g #494949",
"O 	g #C7C7C7",
"P 	g #838383",
"Q 	g #595959",
"R 	g #484848",
"S 	g #D5D5D5",
"T 	g #5E5E5E",
"U 	g #434343",
"V 	g #D7D7D7",
"W 	g #D6D6D6",
"X 	g #949494",
"Y 	g #5C5C5C",
"Z 	g #5F5F5F",
"` 	g #3C3C3C",
" .	g #D9D9D9",
"..	g #929292",
"+.	g #444444",
"@.	g #3A3A3A",
"#.	g #454545",
"$.	g #626262",
"%.	g #C2C2C2",
"&.	g #DBDBDB",
"*.	g #DDDDDD",
"=.	g #E5E5E5",
"-.	g #E4E4E4",
";.	g #F6F6F6",
". . . . . . . . . . . . . . . . . . . . . . ",
"+ + + + + + + + + + + + + + + + + + + + + + ",
"@ @ @ @ @ @ @ @ @ @ @ @ @ @ @ @ @ @ @ @ @ @ ",
"# # # # # # # # # # # # # # # # # # # # # # ",
"$ $ $ $ $ $ $ $ $ $ % % $ $ $ $ $ $ $ $ $ $ ",
"$ $ $ $ $ $ $ % & * = - ; > % $ $ $ $ $ $ $ ",
", , , , , , ' ) ! ~ ~ { ] ^ / ( , , , , , , ",
"_ _ _ _ _ : < [ } | } @ 1 2 3 4 5 _ _ _ _ _ ",
"6 6 6 6 7 # 8 * 9 0 a ) a a b $ ! 7 6 6 6 6 ",
"c c c c d e % f g 3 3 + h i j k l d c c c c ",
"m m m m n o p q h h r h h s t u 8 v m m m m ",
"w x x m y z p A B C C C B A D o A ' m x x w ",
"E F F x ! G e $ f f s f f $ p H s ' x F F E ",
"( I I F J k . K L j j j L L M N r v F I I ( ",
", , , , O P o j j j j j j j Q R - O , , , , ",
"S S S S ( | T . t t t t t M U D | ( S S S S ",
"V V V V W O X o G Y Z Y H ` o X O W V V V V ",
" . . . . .W 5 ..e +.` @.#.$...%.W  . . . . .",
"&.&.&.&.&.&.V c | - 3 3 - | c V &.&.&.&.&.&.",
"*.*.*.*.*.*.*.&.W ( c c ( W &.*.*.*.*.*.*.*.",
"=.=.=.=.=.=.=.=.=.=.-.-.=.=.=.=.=.=.=.=.=.=.",
";.;.;.;.;.;.;.;.;.;.;.;.;.;.;.;.;.;.;.;.;.;."};
