/* XPM */
static char * button_max_unfocus_xpm[] = {
"22 22 112 2",
"  	g None",
". 	g #5D5D5D",
"+ 	g #7D7D7D",
"@ 	g #A7A7A7",
"# 	g #818181",
"$ 	g #6D6D6D",
"% 	g #6C6C6C",
"& 	g #6F6F6F",
"* 	g #8C8C8C",
"= 	g #999999",
"- 	g #8F8F8F",
"; 	g #727272",
"> 	g #6B6B6B",
", 	g #D3D3D3",
"' 	g #BABABA",
") 	g #868686",
"! 	g #B7B7B7",
"~ 	g #C0C0C0",
"{ 	g #BFBFBF",
"] 	g #BBBBBB",
"^ 	g #8E8E8E",
"/ 	g #A9A9A9",
"( 	g #CFCFCF",
"_ 	g #C4C4C4",
": 	g #B9B9B9",
"< 	g #787878",
"[ 	g #A3A3A3",
"} 	g #ACACAC",
"| 	g #A8A8A8",
"1 	g #A4A4A4",
"2 	g #7E7E7E",
"3 	g #A5A5A5",
"4 	g #C1C1C1",
"5 	g #C6C6C6",
"6 	g #C5C5C5",
"7 	g #808080",
"8 	g #909090",
"9 	g #919191",
"0 	g #8D8D8D",
"a 	g #898989",
"b 	g #828282",
"c 	g #C8C8C8",
"d 	g #C3C3C3",
"e 	g #616161",
"f 	g #767676",
"g 	g #7F7F7F",
"h 	g #2C2C2C",
"i 	g #848484",
"j 	g #747474",
"k 	g #6A6A6A",
"l 	g #5B5B5B",
"m 	g #9F9F9F",
"n 	g #CACACA",
"o 	g #B8B8B8",
"p 	g #545454",
"q 	g #636363",
"r 	g #2B2B2B",
"s 	g #7C7C7C",
"t 	g #707070",
"u 	g #656565",
"v 	g #565656",
"w 	g #BEBEBE",
"x 	g #CBCBCB",
"y 	g #CCCCCC",
"z 	g #B1B1B1",
"A 	g #525252",
"B 	g #737373",
"C 	g #292929",
"D 	g #2A2A2A",
"E 	g #717171",
"F 	g #646464",
"G 	g #CDCDCD",
"H 	g #CECECE",
"I 	g #505050",
"J 	g #272727",
"K 	g #282828",
"L 	g #777777",
"M 	g #262626",
"N 	g #4F4F4F",
"O 	g #D0D0D0",
"P 	g #BDBDBD",
"Q 	g #252525",
"R 	g #606060",
"S 	g #4A4A4A",
"T 	g #7B7B7B",
"U 	g #C7C7C7",
"V 	g #838383",
"W 	g #676767",
"X 	g #686868",
"Y 	g #595959",
"Z 	g #484848",
"` 	g #D5D5D5",
" .	g #5E5E5E",
"..	g #434343",
"+.	g #D7D7D7",
"@.	g #D6D6D6",
"#.	g #949494",
"$.	g #5C5C5C",
"%.	g #5F5F5F",
"&.	g #3C3C3C",
"*.	g #D9D9D9",
"=.	g #929292",
"-.	g #444444",
";.	g #3A3A3A",
">.	g #454545",
",.	g #626262",
"'.	g #C2C2C2",
").	g #DBDBDB",
"!.	g #DDDDDD",
"~.	g #E5E5E5",
"{.	g #E4E4E4",
"].	g #F6F6F6",
". . . . . . . . . . . . . . . . . . . . . . ",
"+ + + + + + + + + + + + + + + + + + + + + + ",
"@ @ @ @ @ @ @ @ @ @ @ @ @ @ @ @ @ @ @ @ @ @ ",
"# # # # # # # # # # # # # # # # # # # # # # ",
"$ $ $ $ $ $ $ $ $ $ % % $ $ $ $ $ $ $ $ $ $ ",
"$ $ $ $ $ $ $ % & * = - ; > % $ $ $ $ $ $ $ ",
", , , , , , ' ) ! ~ ~ { ] ^ / ( , , , , , , ",
"_ _ _ _ _ : < [ / } / / | 1 2 3 4 _ _ _ _ _ ",
"5 5 5 5 6 # 7 * 8 9 8 ^ 0 a b $ ! 6 5 5 5 5 ",
"c c c c d e % f g ) h i + j k l m d c c c c ",
"n n n n o p q ; 2 r r r s t u v 7 w n n n n ",
"x y y x z A q B C D D D C E F p ; ' n y y y ",
"G H H G ! I e J K K L K K M q N E ' y H H H ",
"( O O ( P l . Q M t t t M Q R S T w H O O O ",
", , , , U V p W k k k k k X Y Z - U , , , , ",
"` ` ` ` ( }  .. u u u u u R ..F } ( ` ` ` ` ",
"+.+.+.+.@.U #.p I $.%.$.N &.p #.U @.+.+.+.+.",
"*.*.*.*.*.@.4 =.e -.&.;.>.,.=.'.@.*.*.*.*.*.",
").).).).).).+.c } - 2 2 - } c +.).).).).).).",
"!.!.!.!.!.!.!.).@.( c c ( @.).!.!.!.!.!.!.!.",
"~.~.~.~.~.~.~.~.~.~.{.{.~.~.~.~.~.~.~.~.~.~.",
"].].].].].].].].].].].].].].].].].].].].].]."};
