/* XPM */
static char * button_stuck_unfocus_xpm[] = {
"22 22 111 2",
"  	g None",
". 	g #5D5D5D",
"+ 	g #7D7D7D",
"@ 	g #A7A7A7",
"# 	g #818181",
"$ 	g #6D6D6D",
"% 	g #717171",
"& 	g #D3D3D3",
"* 	g #777777",
"= 	g #757575",
"- 	g #747474",
"; 	g #8E8E8E",
"> 	g #9A9A9A",
", 	g #919191",
"' 	g #787878",
") 	g #767676",
"! 	g #C4C4C4",
"~ 	g #6B6B6B",
"{ 	g #727272",
"] 	g #B7B7B7",
"^ 	g #C0C0C0",
"/ 	g #BFBFBF",
"( 	g #BBBBBB",
"_ 	g #8C8C8C",
": 	g #797979",
"< 	g #7B7B7B",
"[ 	g #C6C6C6",
"} 	g #C9C9C9",
"| 	g #A3A3A3",
"1 	g #8D8D8D",
"2 	g #6A6A6A",
"3 	g #A4A4A4",
"4 	g #7F7F7F",
"5 	g #808080",
"6 	g #C8C8C8",
"7 	g #878787",
"8 	g #707070",
"9 	g #828282",
"0 	g #676767",
"a 	g #858585",
"b 	g #CACACA",
"c 	g #C7C7C7",
"d 	g #646464",
"e 	g #6C6C6C",
"f 	g #333333",
"g 	g #5B5B5B",
"h 	g #7C7C7C",
"i 	g #898989",
"j 	g #CCCCCC",
"k 	g #555555",
"l 	g #636363",
"m 	g #656565",
"n 	g #565656",
"o 	g #8A8A8A",
"p 	g #CECECE",
"q 	g #BEBEBE",
"r 	g #525252",
"s 	g #545454",
"t 	g #929292",
"u 	g #D0D0D0",
"v 	g #C5C5C5",
"w 	g #616161",
"x 	g #7E7E7E",
"y 	g #4F4F4F",
"z 	g #909090",
"A 	g #989898",
"B 	g #7A7A7A",
"C 	g #8B8B8B",
"D 	g #888888",
"E 	g #868686",
"F 	g #606060",
"G 	g #959595",
"H 	g #9C9C9C",
"I 	g #D5D5D5",
"J 	g #CFCFCF",
"K 	g #585858",
"L 	g #A8A8A8",
"M 	g #A5A5A5",
"N 	g #848484",
"O 	g #686868",
"P 	g #5A5A5A",
"Q 	g #9B9B9B",
"R 	g #A0A0A0",
"S 	g #D7D7D7",
"T 	g #D4D4D4",
"U 	g #454545",
"V 	g #9D9D9D",
"W 	g #D9D9D9",
"X 	g #D1D1D1",
"Y 	g #B9B9B9",
"Z 	g #5F5F5F",
"` 	g #5E5E5E",
" .	g #5C5C5C",
"..	g #979797",
"+.	g #DBDBDB",
"@.	g #DADADA",
"#.	g #BABABA",
"$.	g #A2A2A2",
"%.	g #949494",
"&.	g #9E9E9E",
"*.	g #B4B4B4",
"=.	g #8F8F8F",
"-.	g #DDDDDD",
";.	g #B1B1B1",
">.	g #CBCBCB",
",.	g #E5E5E5",
"'.	g #E4E4E4",
").	g #E2E2E2",
"!.	g #DEDEDE",
"~.	g #E3E3E3",
"{.	g #F6F6F6",
". . . . . . . . . . . . . . . . . . . . . . ",
"+ + + + + + + + + + + + + + + + + + + + + + ",
"@ @ @ @ @ @ @ @ @ @ @ @ @ @ @ @ @ @ @ @ @ @ ",
"# # # # # # # # # # # # # # # # # # # # # # ",
"$ $ $ $ $ $ $ $ $ $ $ $ $ $ $ $ $ $ $ $ $ $ ",
"$ $ $ $ $ % % % % % % % % % % % % % % % % % ",
"& & & & & $ * * = - ; > , ' - ) * * * * * * ",
"! ! ! ! ! & ~ { # ] ^ ^ / ( _ { : < < < < < ",
"[ [ [ [ [ [ } { | 1 $ 2 $ _ 3 + * 4 5 5 5 5 ",
"6 6 6 6 6 6 7 5 4 8 8 8 8 8 4 9 0 4 a a a a ",
"b b b b b c d e % - - f = - = 2 g h 7 i i i ",
"j j j j j ^ k l { ' f f f ' 8 m n { o ; ; ; ",
"p p p p p q r l 8 < f f f ' 8 d s 8 _ t t t ",
"u u u u u v s w e : x f < * ~ l y * z A A A ",
"& & & & & b ~ . B C D 7 E 7 = F k x G H H H ",
"I I I I I J 3 K 0 7 L | M N O P 0 D Q R R R ",
"S S S S S T ! D w m m m m m F U ' t V R R R ",
"W W W W W W X Y z ~ Z Z ` O # 7  ...H H H H ",
"+.+.+.+.+.+.@.J #.$.%.o 1 G $.&.*.1 =.=.=.=.",
"-.-.-.-.-.-.-.+.T c Y ;.;.Y c >.W >.>.>.>.>.",
",.,.,.,.,.,.,.,.'.).!.+.+.!.).~.,.,.,.,.,.,.",
"{.{.{.{.{.{.{.{.{.{.{.{.{.{.{.{.{.{.{.{.{.{."};
