/* XPM */
static char * button_max_active_xpm[] = {
"22 22 147 2",
"  	c None",
". 	c #45666F",
"+ 	c #68858D",
"@ 	c #97ADB4",
"# 	c #6A8A97",
"$ 	c #517887",
"% 	c #507786",
"& 	c #527684",
"* 	c #647379",
"= 	c #898E8F",
"- 	c #989A9B",
"; 	c #8D9192",
"> 	c #69767B",
", 	c #527481",
"' 	c #507785",
") 	c #D1D5D6",
"! 	c #B8BBBC",
"~ 	c #868686",
"{ 	c #B7B7B7",
"] 	c #C0C0C0",
"^ 	c #BFBFBF",
"/ 	c #BBBBBB",
"( 	c #8E8E8E",
"_ 	c #A8AAAB",
": 	c #CDD1D2",
"< 	c #C0C6C7",
"[ 	c #B6BBBC",
"} 	c #787878",
"| 	c #A3A3A3",
"1 	c #A9A9A9",
"2 	c #ACACAC",
"3 	c #A8A8A8",
"4 	c #A4A4A4",
"5 	c #7E7E7E",
"6 	c #A2A7A8",
"7 	c #BDC3C4",
"8 	c #C2C8C9",
"9 	c #C1C7C8",
"0 	c #808283",
"a 	c #808080",
"b 	c #8C8C8C",
"c 	c #909090",
"d 	c #919191",
"e 	c #8D8D8D",
"f 	c #898989",
"g 	c #828282",
"h 	c #6D6E6F",
"i 	c #B4B9BA",
"j 	c #C5CACB",
"k 	c #C0C5C6",
"l 	c #616161",
"m 	c #6C6C6C",
"n 	c #767676",
"o 	c #7F7F7F",
"p 	c #2C2C2C",
"q 	c #848484",
"r 	c #7D7D7D",
"s 	c #747474",
"t 	c #6A6A6A",
"u 	c #5B5B5B",
"v 	c #9DA1A2",
"w 	c #C7CCCD",
"x 	c #B6BABB",
"y 	c #545454",
"z 	c #636363",
"A 	c #727272",
"B 	c #2B2B2B",
"C 	c #7C7C7C",
"D 	c #707070",
"E 	c #656565",
"F 	c #565656",
"G 	c #7E8182",
"H 	c #BCC0C1",
"I 	c #C8CDCE",
"J 	c #C9CECF",
"K 	c #AFB3B4",
"L 	c #525252",
"M 	c #737373",
"N 	c #292929",
"O 	c #2A2A2A",
"P 	c #717171",
"Q 	c #646464",
"R 	c #707373",
"S 	c #B7BCBD",
"T 	c #CBCFD0",
"U 	c #CCD0D1",
"V 	c #B5B9BA",
"W 	c #505050",
"X 	c #272727",
"Y 	c #282828",
"Z 	c #777777",
"` 	c #262626",
" .	c #4F4F4F",
"..	c #707273",
"+.	c #CACECF",
"@.	c #CED2D3",
"#.	c #BBBEBF",
"$.	c #5B5C5C",
"%.	c #5D5D5D",
"&.	c #252525",
"*.	c #606060",
"=.	c #4A4A4A",
"-.	c #797C7C",
";.	c #BCBFC0",
">.	c #D1D4D4",
",.	c #C5C8C8",
"'.	c #828484",
").	c #545555",
"!.	c #676767",
"~.	c #686868",
"{.	c #595959",
"].	c #484949",
"^.	c #8E9090",
"/.	c #D3D6D6",
"(.	c #CED0D0",
"_.	c #ABADAD",
":.	c #5E5F5F",
"<.	c #434343",
"[.	c #646565",
"}.	c #D6D8D8",
"|.	c #D5D7D7",
"1.	c #C6C8C8",
"2.	c #939595",
"3.	c #505151",
"4.	c #5C5C5C",
"5.	c #5F5F5F",
"6.	c #3C3C3C",
"7.	c #D8DADA",
"8.	c #C1C2C2",
"9.	c #929393",
"0.	c #616262",
"a.	c #444545",
"b.	c #3C3D3D",
"c.	c #3A3A3A",
"d.	c #454646",
"e.	c #626363",
"f.	c #C1C3C3",
"g.	c #DADCDC",
"h.	c #C8C9C9",
"i.	c #7E7F7F",
"j.	c #DDDEDE",
"k.	c #DBDCDC",
"l.	c #D6D7D7",
"m.	c #CFD0D0",
"n.	c #E6E5E5",
"o.	c #E5E4E4",
"p.	c #F6F6F6",
". . . . . . . . . . . . . . . . . . . . . . ",
"+ + + + + + + + + + + + + + + + + + + + + + ",
"@ @ @ @ @ @ @ @ @ @ @ @ @ @ @ @ @ @ @ @ @ @ ",
"# # # # # # # # # # # # # # # # # # # # # # ",
"$ $ $ $ $ $ $ $ $ $ % % $ $ $ $ $ $ $ $ $ $ ",
"$ $ $ $ $ $ $ & * = - ; > , ' $ $ $ $ $ $ $ ",
") ) ) ) ) ) ! ~ { ] ] ^ / ( _ : ) ) ) ) ) ) ",
"< < < < < [ } | 1 2 1 1 3 4 5 6 7 < < < < < ",
"8 8 8 8 9 0 a b c d c ( e f g h i 9 8 8 8 8 ",
"j j j j k l m n o ~ p q r s t u v k j j j j ",
"w w w w x y z A 5 B B B C D E F G H w w w w ",
"I J J I K L z M N O O O N P Q y R S w J J J ",
"T U U T V W l X Y Y Z Y Y ` z  ...! +.U U U ",
": @.@.: #.$.%.&.` D D D ` &.*.=.-.;.U @.@.@.",
">.>.>.>.,.'.).!.t t t t t ~.{.].^.,.>.>.>.>.",
"/./././.(._.:.%.E E E E E *.<.[._.(././././.",
"}.}.}.}.|.1.2.).3.4.5.4. .6.).2.1.|.}.}.}.}.",
"7.7.7.7.7.|.8.9.0.a.b.c.d.e.9.f.|.7.7.7.7.7.",
"g.g.g.g.g.g.}.h._.^.i.i.^._.h.}.g.g.g.g.g.g.",
"j.j.j.j.j.j.j.k.l.m.h.h.m.l.k.j.j.j.j.j.j.j.",
"n.n.n.n.n.n.n.n.n.n.o.o.n.n.n.n.n.n.n.n.n.n.",
"p.p.p.p.p.p.p.p.p.p.p.p.p.p.p.p.p.p.p.p.p.p."};
