/* XPM */
static char * button_stuck_xpm[] = {
"22 22 192 2",
"  	c None",
". 	c #45666F",
"+ 	c #68858D",
"@ 	c #97ADB4",
"# 	c #6A8A97",
"$ 	c #517887",
"% 	c #557C8B",
"& 	c #D1D5D6",
"* 	c #5A828F",
"= 	c #59808D",
"- 	c #5D7D86",
"; 	c #7D959A",
"> 	c #8DA0A4",
", 	c #82989D",
"' 	c #628188",
") 	c #587F8B",
"! 	c #59818E",
"~ 	c #C0C6C7",
"{ 	c #517482",
"] 	c #5C7A84",
"^ 	c #6F888D",
"/ 	c #ADBCBE",
"( 	c #B6C4C6",
"_ 	c #B6C4C7",
": 	c #B6C3C6",
"< 	c #B2BFC2",
"[ 	c #7D9296",
"} 	c #597C87",
"| 	c #5D8491",
"1 	c #5E8693",
"2 	c #C2C8C9",
"3 	c #C5CBCC",
"4 	c #62797E",
"5 	c #96A8AC",
"6 	c #7F9398",
"7 	c #58757D",
"8 	c #51747D",
"9 	c #7D9297",
"0 	c #97A9AD",
"a 	c #6D8488",
"b 	c #5C818C",
"c 	c #628A97",
"d 	c #638B98",
"e 	c #C5CACB",
"f 	c #7A8C90",
"g 	c #70878C",
"h 	c #6E868A",
"i 	c #567A82",
"j 	c #567A83",
"k 	c #688890",
"l 	c #72898E",
"m 	c #537076",
"n 	c #638A96",
"o 	c #67909C",
"p 	c #C7CCCD",
"q 	c #C4C9CA",
"r 	c #536B70",
"s 	c #587479",
"t 	c #5C7980",
"u 	c #5A7F88",
"v 	c #1D3C42",
"w 	c #5B8088",
"x 	c #5A7F87",
"y 	c #5B8087",
"z 	c #567379",
"A 	c #496369",
"B 	c #618690",
"C 	c #6A939E",
"D 	c #6C95A0",
"E 	c #C9CECF",
"F 	c #BCC2C4",
"G 	c #435C62",
"H 	c #4E6C73",
"I 	c #597C84",
"J 	c #5E838C",
"K 	c #5E828B",
"L 	c #587A83",
"M 	c #4F6E74",
"N 	c #445E64",
"O 	c #5A7C85",
"P 	c #6D95A1",
"Q 	c #7099A5",
"R 	c #CCD0D1",
"S 	c #BAC0C1",
"T 	c #40595F",
"U 	c #4D6C73",
"V 	c #597A82",
"W 	c #60868D",
"X 	c #5E828A",
"Y 	c #577A81",
"Z 	c #4E6D74",
"` 	c #425B61",
" .	c #597982",
"..	c #7097A2",
"+.	c #759EA9",
"@.	c #CED2D3",
"#.	c #C3C7C8",
"$.	c #445A61",
"%.	c #4B6A72",
"&.	c #5A747A",
"*.	c #61838B",
"=.	c #648890",
"-.	c #62858E",
";.	c #5F8188",
">.	c #587378",
",.	c #3D575C",
"'.	c #749CA4",
").	c #7AA4AD",
"!.	c #D1D4D4",
"~.	c #C8CBCB",
"{.	c #5E7074",
"].	c #48666D",
"^.	c #688187",
"/.	c #779398",
"(.	c #739197",
"_.	c #719096",
":.	c #6F8F95",
"<.	c #739096",
"[.	c #637C82",
"}.	c #4A6971",
"|.	c #425D64",
"1.	c #66888F",
"2.	c #79A1AA",
"3.	c #7EA8B1",
"4.	c #D3D6D6",
"5.	c #CED0D0",
"6.	c #A0A7A7",
"7.	c #456067",
"8.	c #4F717A",
"9.	c #778D93",
"0.	c #9BADB1",
"a.	c #93AAAF",
"b.	c #98AAAE",
"c.	c #748B92",
"d.	c #4F727B",
"e.	c #45636A",
"f.	c #6D939A",
"g.	c #7DA8B0",
"h.	c #81ADB5",
"i.	c #D6D8D8",
"j.	c #D3D5D5",
"k.	c #C3C5C5",
"l.	c #818B8E",
"m.	c #4A6B72",
"n.	c #4C6F78",
"o.	c #496972",
"p.	c #384A4E",
"q.	c #618288",
"r.	c #759EA5",
"s.	c #7FAAB2",
"t.	c #D8DADA",
"u.	c #D0D2D2",
"v.	c #B8BABA",
"w.	c #8B9293",
"x.	c #5B7278",
"y.	c #486871",
"z.	c #476871",
"A.	c #476770",
"B.	c #567076",
"C.	c #7C8385",
"D.	c #84898B",
"E.	c #496469",
"F.	c #79A3AA",
"G.	c #7EA9B1",
"H.	c #DADCDC",
"I.	c #D9DBDB",
"J.	c #B9BBBB",
"K.	c #A2A3A3",
"L.	c #939595",
"M.	c #888C8D",
"N.	c #8C8E8F",
"O.	c #959696",
"P.	c #9D9F9F",
"Q.	c #AFB6B8",
"R.	c #6F99A0",
"S.	c #719BA2",
"T.	c #DDDEDE",
"U.	c #DBDCDC",
"V.	c #D4D5D5",
"W.	c #C7C8C8",
"X.	c #B9BABA",
"Y.	c #B1B2B2",
"Z.	c #CBCCCC",
"`.	c #D9DADA",
" +	c #C6CED0",
".+	c #E6E5E5",
"++	c #E5E4E4",
"@+	c #E3E2E2",
"#+	c #DFDEDE",
"$+	c #DCDBDB",
"%+	c #E4E3E3",
"&+	c #F6F6F6",
". . . . . . . . . . . . . . . . . . . . . . ",
"+ + + + + + + + + + + + + + + + + + + + + + ",
"@ @ @ @ @ @ @ @ @ @ @ @ @ @ @ @ @ @ @ @ @ @ ",
"# # # # # # # # # # # # # # # # # # # # # # ",
"$ $ $ $ $ $ $ $ $ $ $ $ $ $ $ $ $ $ $ $ $ $ ",
"$ $ $ $ $ % % % % % % % % % % % % % % % % % ",
"& & & & & $ * * = - ; > , ' ) ! * * * * * * ",
"~ ~ ~ ~ ~ & { ] ^ / ( _ : < [ } | 1 1 1 1 1 ",
"2 2 2 2 2 2 3 4 5 6 7 8 7 9 0 a b c d d d d ",
"e e e e e e f g h i i j j j k l m n o o o o ",
"p p p p p q r s t u u v w x y z A B C D D D ",
"E E E E E F G H I J v v v K L M N O P Q Q Q ",
"R R R R R S T U V W v v v X Y Z `  ...+.+.+.",
"@.@.@.@.@.#.$.%.&.*.=.v -.;.>.U ,.;.'.).).).",
"!.!.!.!.!.~.{.].^./.(._.:.<.[.}.|.1.2.3.3.3.",
"4.4.4.4.4.5.6.7.8.9.0.a.b.c.d.e.m f.g.h.h.h.",
"i.i.i.i.i.j.k.l.m.n.n.n.n.n.o.p.q.r.s.h.h.h.",
"t.t.t.t.t.t.u.v.w.x.y.z.A.B.C.D.E.F.G.G.G.G.",
"H.H.H.H.H.H.I.5.J.K.L.M.N.O.K.P.Q.R.S.S.S.S.",
"T.T.T.T.T.T.T.U.V.W.X.Y.Y.X.W.Z.`. + + + + +",
".+.+.+.+.+.+.+.+++@+#+$+$+#+@+%+.+.+.+.+.+.+",
"&+&+&+&+&+&+&+&+&+&+&+&+&+&+&+&+&+&+&+&+&+&+"};
