/* XPM */
static char * button_toolbar_pressed_xpm[] = {
"28 22 35 1",
" 	c None",
".	c #3F5C68",
"+	c #4A6D7A",
"@	c #3E5C68",
"#	c #486D7A",
"$	c #405E6A",
"%	c #4C6F7D",
"&	c #44626D",
"*	c #507380",
"=	c #47656F",
"-	c #537883",
";	c #496872",
">	c #567A86",
",	c #4D6C76",
"'	c #5B7F8B",
")	c #506F78",
"!	c #5D828D",
"~	c #52727A",
"{	c #618690",
"]	c #55757F",
"^	c #658A95",
"/	c #597881",
"(	c #688D97",
"_	c #5B7C84",
":	c #6C929B",
"<	c #5F7F86",
"[	c #6F959E",
"}	c #628289",
"|	c #7399A1",
"1	c #64858C",
"2	c #759DA4",
"3	c #62848A",
"4	c #739BA2",
"5	c #5B7A81",
"6	c #6A9097",
"............................",
".+++++++++++++++++++++++++++",
"@###########################",
".+++++++++++++++++++++++++++",
".+++++++++++++++++++++++++++",
"@###########################",
"$%%%%%%%%%%%%%%%%%%%%%%%%%%%",
"&***************************",
"=---------------------------",
";>>>>>>>>>>>>>>>>>>>>>>>>>>>",
",'''''''''''''''''''''''''''",
")!!!!!!!!!!!!!!!!!!!!!!!!!!!",
"~{{{{{{{{{{{{{{{{{{{{{{{{{{{",
"]^^^^^^^^^^^^^^^^^^^^^^^^^^^",
"/(((((((((((((((((((((((((((",
"_:::::::::::::::::::::::::::",
"<[[[[[[[[[[[[[[[[[[[[[[[[[[[",
"}|||||||||||||||||||||||||||",
"1222222222222222222222222222",
"1222222222222222222222222222",
"3444444444444444444444444444",
"5666666666666666666666666666"};
