/* XPM */
static char * button_toolbar_xpm[] = {
"28 22 21 1",
" 	c None",
".	c #7A949B",
"+	c #93AAB2",
"@	c #678895",
"#	c #527887",
"$	c #507887",
"%	c #547A8A",
"&	c #587F8D",
"*	c #5C8491",
"=	c #5F8794",
"-	c #648C99",
";	c #67909C",
">	c #6B949F",
",	c #6F98A4",
"'	c #739CA7",
")	c #77A1AB",
"!	c #7BA5AE",
"~	c #7FA9B2",
"{	c #81ADB5",
"]	c #7FABB3",
"^	c #759FA7",
"............................",
"++++++++++++++++++++++++++++",
"@@@@@@@@@@@@@@@@@@@@@@@@@@@@",
"############################",
"############################",
"$$$$$$$$$$$$$$$$$$$$$$$$$$$$",
"%%%%%%%%%%%%%%%%%%%%%%%%%%%%",
"&&&&&&&&&&&&&&&&&&&&&&&&&&&&",
"****************************",
"============================",
"----------------------------",
";;;;;;;;;;;;;;;;;;;;;;;;;;;;",
">>>>>>>>>>>>>>>>>>>>>>>>>>>>",
",,,,,,,,,,,,,,,,,,,,,,,,,,,,",
"''''''''''''''''''''''''''''",
"))))))))))))))))))))))))))))",
"!!!!!!!!!!!!!!!!!!!!!!!!!!!!",
"~~~~~~~~~~~~~~~~~~~~~~~~~~~~",
"{{{{{{{{{{{{{{{{{{{{{{{{{{{{",
"{{{{{{{{{{{{{{{{{{{{{{{{{{{{",
"]]]]]]]]]]]]]]]]]]]]]]]]]]]]",
"^^^^^^^^^^^^^^^^^^^^^^^^^^^^"};
