/* XPM */
static char * button_min_unfocus_xpm[] = {
"22 22 116 2",
"  	g None",
". 	g #5D5D5D",
"+ 	g #7D7D7D",
"@ 	g #A7A7A7",
"# 	g #818181",
"$ 	g #6D6D6D",
"% 	g #6C6C6C",
"& 	g #717171",
"* 	g #707070",
"= 	g #8D8D8D",
"- 	g #999999",
"; 	g #909090",
"> 	g #747474",
", 	g #6E6E6E",
"' 	g #777777",
") 	g #727272",
"! 	g #808080",
"~ 	g #B7B7B7",
"{ 	g #C0C0C0",
"] 	g #BFBFBF",
"^ 	g #BBBBBB",
"/ 	g #8A8A8A",
"( 	g #D3D3D3",
"_ 	g #7B7B7B",
": 	g #737373",
"< 	g #A3A3A3",
"[ 	g #A5A5A5",
"} 	g #A4A4A4",
"| 	g #626262",
"1 	g #D0D0D0",
"2 	g #C4C4C4",
"3 	g #7F7F7F",
"4 	g #686868",
"5 	g #8B8B8B",
"6 	g #888888",
"7 	g #878787",
"8 	g #868686",
"9 	g #828282",
"0 	g #C5C5C5",
"a 	g #C6C6C6",
"b 	g #858585",
"c 	g #5C5C5C",
"d 	g #797979",
"e 	g #7E7E7E",
"f 	g #6A6A6A",
"g 	g #5B5B5B",
"h 	g #9F9F9F",
"i 	g #C3C3C3",
"j 	g #C8C8C8",
"k 	g #898989",
"l 	g #545454",
"m 	g #636363",
"n 	g #272727",
"o 	g #2A2A2A",
"p 	g #292929",
"q 	g #262626",
"r 	g #656565",
"s 	g #565656",
"t 	g #BEBEBE",
"u 	g #CACACA",
"v 	g #8E8E8E",
"w 	g #525252",
"x 	g #7C7C7C",
"y 	g #646464",
"z 	g #BABABA",
"A 	g #CBCBCB",
"B 	g #CCCCCC",
"C 	g #929292",
"D 	g #919191",
"E 	g #838383",
"F 	g #4D4D4D",
"G 	g #616161",
"H 	g #282828",
"I 	g #4F4F4F",
"J 	g #CDCDCD",
"K 	g #CECECE",
"L 	g #989898",
"M 	g #979797",
"N 	g #505050",
"O 	g #6F6F6F",
"P 	g #757575",
"Q 	g #606060",
"R 	g #4A4A4A",
"S 	g #CFCFCF",
"T 	g #9C9C9C",
"U 	g #939393",
"V 	g #535353",
"W 	g #696969",
"X 	g #242424",
"Y 	g #595959",
"Z 	g #484848",
"` 	g #8F8F8F",
" .	g #C7C7C7",
"..	g #A0A0A0",
"+.	g #9B9B9B",
"@.	g #4E4E4E",
"#.	g #5F5F5F",
"$.	g #434343",
"%.	g #ACACAC",
"&.	g #D5D5D5",
"*.	g #949494",
"=.	g #515151",
"-.	g #3D3D3D",
";.	g #D6D6D6",
">.	g #D7D7D7",
",.	g #B6B6B6",
"'.	g #444444",
").	g #3B3B3B",
"!.	g #454545",
"~.	g #C2C2C2",
"{.	g #D9D9D9",
"].	g #DBDBDB",
"^.	g #DDDDDD",
"/.	g #E5E5E5",
"(.	g #E4E4E4",
"_.	g #F6F6F6",
". . . . . . . . . . . . . . . . . . . . . . ",
"+ + + + + + + + + + + + + + + + + + + + + + ",
"@ @ @ @ @ @ @ @ @ @ @ @ @ @ @ @ @ @ @ @ @ @ ",
"# # # # # # # # # # # # # # # # # # # # # # ",
"$ $ $ $ $ $ $ $ $ $ % % $ $ $ $ $ $ $ $ $ $ ",
"& & & & & & & * * = - ; > , * & & $ $ $ $ $ ",
"' ' ' ' ' ' ) ! ~ { { ] ^ / % > $ ( ( ( ( ( ",
"_ _ _ _ _ ' : < @ @ < < [ } _ | 1 2 2 2 2 2 ",
"! ! ! ! 3 4 ! / 5 6 7 8 7 7 9 * ~ 0 a a a a ",
"b b b b # c % > d e 3 _ ' & f g h i j j j j ",
"k k k k 3 l m n o e e + p q r s ! t u u u u ",
"v v v = + w m n p o x o p q y l ) z A B B B ",
"C C C D E F G & H H H H H & m I & z J K K K ",
"L L L M / N . O > q q q P , Q R _ t S 1 1 1 ",
"T T T T U y V W & > X > & f Y Z `  .( ( ( ( ",
"........+.# @.#.% & ) & % | $.y %.S &.&.&.&.",
"........h *.G =.l r f r l -.l *. .;.>.>.>.>.",
"T T T T T = ,.C G '.-.).!.| C ~.;.{.{.{.{.{.",
"` ` ` ` ` A >.j %.` e e ` %.j >.].].].].].].",
"A A A A A ^.^.].;.S j j S ;.].^.^.^.^.^.^.^.",
"/./././././././././.(.(././././././././././.",
"_._._._._._._._._._._._._._._._._._._._._._."};
