/* XPM */
static char * closepr_xpm[] = {
"23 23 125 2",
"  	c #FBFAF7",
". 	c #CBCAC8",
"+ 	c #7D7D7C",
"@ 	c #D3D2DE",
"# 	c #D6D5E1",
"$ 	c #706F7B",
"% 	c #9D9CA5",
"& 	c #9D9DA5",
"* 	c #9E9DA6",
"= 	c #9E9EA6",
"- 	c #9F9EA7",
"; 	c #9F9FA7",
"> 	c #9F9FA8",
", 	c #A09FA8",
"' 	c #A2A2AA",
") 	c #95959C",
"! 	c #95959D",
"~ 	c #96959D",
"{ 	c #96969D",
"] 	c #96969E",
"^ 	c #96969F",
"/ 	c #A4A4AD",
"( 	c #A7A6AF",
"_ 	c #9999A1",
": 	c #9999A2",
"< 	c #9A99A2",
"[ 	c #9A9AA2",
"} 	c #9B9AA2",
"| 	c #9B9BA2",
"1 	c #AAA9B2",
"2 	c #ACACB4",
"3 	c #9E9DA5",
"4 	c #9F9EA5",
"5 	c #9F9EA6",
"6 	c #9B9BA1",
"7 	c #9F9FA6",
"8 	c #A09FA7",
"9 	c #9C9BA2",
"0 	c #A0A0A8",
"a 	c #AEAEB7",
"b 	c #B1B0B9",
"c 	c #8D8C94",
"d 	c #A3A2AB",
"e 	c #A3A3AB",
"f 	c #9A9AA3",
"g 	c #A4A3AC",
"h 	c #8D8D94",
"i 	c #A4A4AC",
"j 	c #B4B3BC",
"k 	c #B6B5BE",
"l 	c #A7A7AE",
"m 	c #A8A7AF",
"n 	c #929198",
"o 	c #2F2F31",
"p 	c #A8A8AF",
"q 	c #A9A8B0",
"r 	c #302F32",
"s 	c #AAA9B1",
"t 	c #A9A9B0",
"u 	c #B9B8C1",
"v 	c #BBBAC3",
"w 	c #ACABB3",
"x 	c #ACABB4",
"y 	c #828288",
"z 	c #2C2C2E",
"A 	c #ADADB4",
"B 	c #ADADB5",
"C 	c #A8A8B0",
"D 	c #BEBDC6",
"E 	c #D2CFDA",
"F 	c #6C6974",
"G 	c #BDBBC3",
"H 	c #ADACB3",
"I 	c #AEADB4",
"J 	c #A5A4AB",
"K 	c #AFADB4",
"L 	c #AFADB5",
"M 	c #B0ADB5",
"N 	c #C0BDC5",
"O 	c #CCC7CF",
"P 	c #666169",
"Q 	c #BEBAC0",
"R 	c #AEABB0",
"S 	c #AEACB0",
"T 	c #AEACB1",
"U 	c #AAA8AD",
"V 	c #AFACB1",
"W 	c #141414",
"X 	c #AFADB1",
"Y 	c #AFADB2",
"Z 	c #B0ADB1",
"` 	c #ABA8AD",
" .	c #B0ADB2",
"..	c #C0BCC3",
"+.	c #C3BFC5",
"@.	c #B3AFB5",
"#.	c #B3AFB6",
"$.	c #9C999E",
"%.	c #B3B0B6",
"&.	c #B4B0B6",
"*.	c #2E2D2E",
"=.	c #6F6C70",
"-.	c #B4B1B7",
";.	c #B5B1B7",
">.	c #B5B2B7",
",.	c #C5C2C8",
"'.	c #C8C4CA",
").	c #B8B4B9",
"!.	c #B8B5B9",
"~.	c #9F9DA0",
"{.	c #39383A",
"].	c #343335",
"^.	c #8B888C",
"/.	c #8B898C",
"(.	c #A09DA1",
"_.	c #B9B6BB",
":.	c #CAC7CC",
"<.	c #BBB7BE",
"[.	c #B7B3BA",
"}.	c #A29FA5",
"|.	c #B6B2B9",
"1.	c #CAC5CD",
"2.	c #767576",
"3.	c #C4C0BC",
"4.	c #F1ECE5",
"                                              ",
". . . . . . . . . . . . . . . . . . . . . . . ",
"+ + + + + + + + + + + + + + + + + + + + + + + ",
"@ @ @ @ @ @ @ @ @ @ @ @ @ @ @ @ @ @ @ @ @ @ @ ",
"# # # $ $ $ $ $ $ $ $ $ $ $ $ $ $ $ $ $ # # # ",
"# # $ % % & * * * * = = - - - - ; ; > , $ # # ",
"# # $ ' ) ! ~ ~ ~ ~ { { ] ] ] ] ] ^ ^ / $ # # ",
"# # $ ( _ _ : < < < [ } } } } } } | | 1 $ # # ",
"# # $ 2 3 4 5 } 5 5 6 7 | 8 8 9 8 , 0 a $ # # ",
"# # $ b ' ' ' c d d e f g g g h g i i j $ # # ",
"# # $ k l l m n o m m p p q r n q s t u $ # # ",
"# # $ v w x 2 q y z A A B z y C B B B D $ # # ",
"E E F G H H I I J I I I K L J L L L M N F E E ",
"O O P Q R S T U T V V W X Y Z `  . . ...P O O ",
"O O P +.@.@.#.$.%.&.*.=.*.-.-.$.;.;.>.,.P O O ",
"O O P '.).!.!.~.{.].^.R /.].{.(._._._.:.P O O ",
"O O P O <.<.<.[.}.}.|.<.[.}.}.|.<.<.<.O P O O ",
"O O P O O O O O O O O O O O O O O O O O P O O ",
"O O O P P P P P P P P P P P P P P P P P O O O ",
"1.1.1.1.1.1.1.1.1.1.1.1.1.1.1.1.1.1.1.1.1.1.1.",
"2.2.2.2.2.2.2.2.2.2.2.2.2.2.2.2.2.2.2.2.2.2.2.",
"3.3.3.3.3.3.3.3.3.3.3.3.3.3.3.3.3.3.3.3.3.3.3.",
"4.4.4.4.4.4.4.4.4.4.4.4.4.4.4.4.4.4.4.4.4.4.4."};
