/* XPM */
static char * closefcs_xpm[] = {
"23 23 118 2",
"  	c #FBFAF7",
". 	c #CBCAC8",
"+ 	c #7D7D7C",
"@ 	c #D3D2DE",
"# 	c #D6D5E1",
"$ 	c #565561",
"% 	c #D5D4E0",
"& 	c #D4D4DF",
"* 	c #D4D3DF",
"= 	c #D3D2DD",
"- 	c #D2D1DD",
"; 	c #D0CFDB",
"> 	c #BFBEC9",
", 	c #BEBDC8",
"' 	c #BDBCC7",
") 	c #CECDD8",
"! 	c #CBCAD6",
"~ 	c #BAB9C4",
"{ 	c #BAB8C3",
"] 	c #B9B8C3",
"^ 	c #B8B8C3",
"/ 	c #C8C7D3",
"( 	c #C6C5D1",
"_ 	c #B6B5C0",
": 	c #B5B4C0",
"< 	c #B5B4BF",
"[ 	c #B1B0BB",
"} 	c #FFFFFF",
"| 	c #B0AFBA",
"1 	c #B1AFBB",
"2 	c #AFAEB9",
"3 	c #B4B3BE",
"4 	c #C4C2CE",
"5 	c #C1C0CC",
"6 	c #9998A1",
"7 	c #A6A5B0",
"8 	c #9796A0",
"9 	c #BEBDC9",
"0 	c #BCBBC7",
"a 	c #ADACB7",
"b 	c #ACABB6",
"c 	c #95949E",
"d 	c #313033",
"e 	c #303033",
"f 	c #94939C",
"g 	c #ABAAB5",
"h 	c #B9B8C4",
"i 	c #B7B6C2",
"j 	c #A8A7B2",
"k 	c #A8A6B1",
"l 	c #A3A2AD",
"m 	c #7E7D85",
"n 	c #2B2A2D",
"o 	c #2A2A2D",
"p 	c #7D7C85",
"q 	c #A1A0AB",
"r 	c #A6A4B0",
"s 	c #B4B3BF",
"t 	c #D2CFDA",
"u 	c #524F5A",
"v 	c #AEABB6",
"w 	c #A09DA7",
"x 	c #9F9CA6",
"y 	c #97949E",
"z 	c #95929C",
"A 	c #9E9BA5",
"B 	c #ACA9B4",
"C 	c #CCC7CF",
"D 	c #4C474F",
"E 	c #A39EA6",
"F 	c #969198",
"G 	c #969097",
"H 	c #928D93",
"I 	c #111011",
"J 	c #908B92",
"K 	c #948F96",
"L 	c #A09CA3",
"M 	c #9E99A1",
"N 	c #918C94",
"O 	c #908C93",
"P 	c #7D787F",
"Q 	c #252325",
"R 	c #59565B",
"S 	c #7B787E",
"T 	c #8F8B92",
"U 	c #9C969E",
"V 	c #99949C",
"W 	c #8C888F",
"X 	c #79767C",
"Y 	c #2B2A2C",
"Z 	c #272628",
"` 	c #69666B",
" .	c #838086",
"..	c #78747A",
"+.	c #8B868D",
"@.	c #96919A",
"#.	c #969397",
"$.	c #8A888B",
"%.	c #878588",
"&.	c #787678",
"*.	c #878487",
"=.	c #8B888B",
"-.	c #888688",
";.	c #787778",
">.	c #787779",
",.	c #8B898C",
"'.	c #989699",
").	c #9B989C",
"!.	c #9B999C",
"~.	c #9B999D",
"{.	c #9C9A9D",
"].	c #9C9A9E",
"^.	c #9D9A9E",
"/.	c #9D9B9E",
"(.	c #CAC5CD",
"_.	c #767576",
":.	c #C4C0BC",
"<.	c #F1ECE5",
"                                              ",
". . . . . . . . . . . . . . . . . . . . . . . ",
"+ + + + + + + + + + + + + + + + + + + + + + + ",
"@ @ @ @ @ @ @ @ @ @ @ @ @ @ @ @ @ @ @ @ @ @ @ ",
"# # # $ $ $ $ $ $ $ $ $ $ $ $ $ $ $ $ $ # # # ",
"# # $ % % % & * * * * * * @ @ @ @ @ = - $ # # ",
"# # $ ; > > > , , , , , ' ' ' ' ' ' ' ) $ # # ",
"# # $ ! ~ ~ { ] ] ] ] ] ] ^ ^ ^ ^ ^ ^ / $ # # ",
"# # $ ( _ : < [ } } | < 1 } } 2 3 3 3 4 $ # # ",
"# # $ 5 [ [ 1 6 } } } 7 } } } 8 2 2 2 9 $ # # ",
"# # $ 0 a a b c d } } } } } e f g g g h $ # # ",
"# # $ i j j k l m n } } } o p q 7 7 r s $ # # ",
"t t u v w w x x y } } } } } z A A A A B u t t ",
"C C D E F F G H } } } I } } } J K K K L D C C ",
"C C D M N N O P } } Q R Q } } S T T T U D C C ",
"C C D V W W W X Y Z `  .` Z Y ..+.+.+.@.D C C ",
"C C D #.$.$.$.%.&.&.*.=.-.;.>.%.,.,.,.'.D C C ",
"C C D ).).!.!.~.~.~.{.{.{.{.].].^./././.D C C ",
"C C C D D D D D D D D D D D D D D D D D C C C ",
"(.(.(.(.(.(.(.(.(.(.(.(.(.(.(.(.(.(.(.(.(.(.(.",
"_._._._._._._._._._._._._._._._._._._._._._._.",
":.:.:.:.:.:.:.:.:.:.:.:.:.:.:.:.:.:.:.:.:.:.:.",
"<.<.<.<.<.<.<.<.<.<.<.<.<.<.<.<.<.<.<.<.<.<.<."};
