/* XPM */
static char * closeufcs_xpm[] = {
"23 23 117 2",
"  	c #FBFAF7",
". 	c #CBCAC8",
"+ 	c #7D7D7C",
"@ 	c #F7F7F4",
"# 	c #7B7A77",
"$ 	c #FAF9F6",
"% 	c #F9F9F5",
"& 	c #F9F8F5",
"* 	c #F8F7F4",
"= 	c #F8F7F3",
"- 	c #F7F6F3",
"; 	c #F5F4F1",
"> 	c #E1E0DD",
", 	c #E0DFDC",
"' 	c #DFDEDB",
") 	c #F3F2EE",
"! 	c #F0EFEC",
"~ 	c #DCDBD9",
"{ 	c #DCDAD8",
"] 	c #DBDAD8",
"^ 	c #DAD9D8",
"/ 	c #DAD9D7",
"( 	c #EDECE9",
"_ 	c #EBEAE7",
": 	c #D8D7D4",
"< 	c #D7D6D4",
"[ 	c #D7D6D3",
"} 	c #D2D1CE",
"| 	c #FFFFFF",
"1 	c #D1D0CD",
"2 	c #D2D0CE",
"3 	c #D0CFCC",
"4 	c #D6D5D2",
"5 	c #E9E7E4",
"6 	c #E6E5E2",
"7 	c #D3D2CF",
"8 	c #D3D1CF",
"9 	c #B6B5B3",
"0 	c #C6C6C3",
"a 	c #B4B3B2",
"b 	c #D1D0CE",
"c 	c #E3E2DF",
"d 	c #CECECB",
"e 	c #CECDCA",
"f 	c #B3B2AF",
"g 	c #3A3A39",
"h 	c #B1B0AD",
"i 	c #CDCCC9",
"j 	c #DEDDDA",
"k 	c #DCDBD8",
"l 	c #CAC9C6",
"m 	c #CAC8C5",
"n 	c #C4C3C0",
"o 	c #979794",
"p 	c #333332",
"q 	c #979694",
"r 	c #C3C2BF",
"s 	c #C8C7C4",
"t 	c #C8C6C4",
"u 	c #D9D8D5",
"v 	c #F7F4F0",
"w 	c #777470",
"x 	c #D3D0CC",
"y 	c #C2BFBB",
"z 	c #C1BEBA",
"A 	c #B7B4B1",
"B 	c #B5B3AF",
"C 	c #C0BDB9",
"D 	c #D1CECA",
"E 	c #F1ECE5",
"F 	c #716C65",
"G 	c #C8C3BC",
"H 	c #B8B3AD",
"I 	c #B8B2AC",
"J 	c #B4AEA8",
"K 	c #151414",
"L 	c #B1ACA6",
"M 	c #B6B1AB",
"N 	c #C5C1B9",
"O 	c #C3BEB7",
"P 	c #B3AEA8",
"Q 	c #B2AEA7",
"R 	c #9A9691",
"S 	c #2D2C2B",
"T 	c #6E6B67",
"U 	c #99958F",
"V 	c #B1ADA6",
"W 	c #C1BBB4",
"X 	c #BEB9B2",
"Y 	c #AEAAA3",
"Z 	c #97938D",
"` 	c #363432",
" .	c #31302E",
"..	c #827F7A",
"+.	c #A4A099",
"@.	c #95918C",
"#.	c #ADA8A2",
"$.	c #BBB6B0",
"%.	c #B9B4AD",
"&.	c #AAA59F",
"*.	c #AAA49F",
"=.	c #A5A09A",
"-.	c #928E89",
";.	c #A4A09A",
">.	c #A9A49E",
",.	c #928D88",
"'.	c #A39F99",
").	c #A8A39D",
"!.	c #B6B2AB",
"~.	c #B4AFA8",
"{.	c #B4AFA7",
"].	c #B3AEA7",
"^.	c #B2ADA8",
"/.	c #B1ACA8",
"(.	c #EEE9E2",
"_.	c #7B7A79",
":.	c #C4C0BC",
"                                              ",
". . . . . . . . . . . . . . . . . . . . . . . ",
"+ + + + + + + + + + + + + + + + + + + + + + + ",
"@ @ @ @ @ @ @ @ @ @ @ @ @ @ @ @ @ @ @ @ @ @ @ ",
"      # # # # # # # # # # # # # # # # #       ",
"    # $ $ $ % & & & & & & * * * * * = - #     ",
"    # ; > > > , , , , , ' ' ' ' ' ' ' ) #     ",
"    # ! ~ ~ { ] ] ] ] ] ] ^ / / / / / ( #     ",
"    # _ : < [ } | | 1 [ 2 | | 3 4 4 4 5 #     ",
"    # 6 7 7 8 9 | | | 0 | | | a b b b c #     ",
"    # > d d e f g | | | | | g h i i i j #     ",
"    # k l l m n o p | | | p q r s s t u #     ",
"v v w x y y z z A | | | | | B C C C C D w v v ",
"E E F G H H I J | | | K | | | L M M M N F E E ",
"E E F O P P Q R | | S T S | | U V V V W F E E ",
"E E F X Y Y Y Z `  ...+... .` @.#.#.#.$.F E E ",
"E E F %.&.&.*.=.-.-.;.>.=.-.,.'.).).).!.F E E ",
"E E F ~.~.~.~.{.].].].].^.^.^.^.^.^.^./.F E E ",
"E E E F F F F F F F F F F F F F F F F F E E E ",
"(.(.(.(.(.(.(.(.(.(.(.(.(.(.(.(.(.(.(.(.(.(.(.",
"_._._._._._._._._._._._._._._._._._._._._._._.",
":.:.:.:.:.:.:.:.:.:.:.:.:.:.:.:.:.:.:.:.:.:.:.",
"E E E E E E E E E E E E E E E E E E E E E E E "};
