/* XPM */
static char * maxfcs_xpm[] = {
"23 23 113 2",
"  	c #FBFAF7",
". 	c #CBCAC8",
"+ 	c #7D7D7C",
"@ 	c #D3D2DE",
"# 	c #D6D5E1",
"$ 	c #565561",
"% 	c #D5D4E0",
"& 	c #D4D4DF",
"* 	c #D4D3DF",
"= 	c #D3D2DD",
"- 	c #D2D1DD",
"; 	c #D0CFDB",
"> 	c #BFBEC9",
", 	c #BEBDC8",
"' 	c #BDBCC7",
") 	c #CECDD8",
"! 	c #CBCAD6",
"~ 	c #BAB9C4",
"{ 	c #BAB8C3",
"] 	c #B9B8C3",
"^ 	c #B8B8C3",
"/ 	c #C8C7D3",
"( 	c #C6C5D1",
"_ 	c #B6B5C0",
": 	c #B5B4C0",
"< 	c #B5B4BF",
"[ 	c #B1B0BB",
"} 	c #FFFFFF",
"| 	c #AFAEB9",
"1 	c #B4B3BE",
"2 	c #C4C2CE",
"3 	c #C1C0CC",
"4 	c #B1AFBB",
"5 	c #9998A1",
"6 	c #9796A0",
"7 	c #BEBDC9",
"8 	c #BCBBC7",
"9 	c #ADACB7",
"0 	c #ACABB6",
"a 	c #909099",
"b 	c #19191A",
"c 	c #1D1D1F",
"d 	c #8F8E97",
"e 	c #ABAAB5",
"f 	c #B9B8C4",
"g 	c #B7B6C2",
"h 	c #A8A7B2",
"i 	c #A8A6B1",
"j 	c #8B8B94",
"k 	c #75747C",
"l 	c #74747C",
"m 	c #8B8A93",
"n 	c #A6A5B0",
"o 	c #A6A4B0",
"p 	c #B4B3BF",
"q 	c #D2CFDA",
"r 	c #524F5A",
"s 	c #AEABB6",
"t 	c #A09DA7",
"u 	c #9F9CA6",
"v 	c #85828B",
"w 	c #9E9CA6",
"x 	c #84818A",
"y 	c #9E9BA5",
"z 	c #ACA9B4",
"A 	c #CCC7CF",
"B 	c #4C474F",
"C 	c #A39EA6",
"D 	c #969198",
"E 	c #969097",
"F 	c #7D787E",
"G 	c #7C787E",
"H 	c #959097",
"I 	c #7C787D",
"J 	c #7C777D",
"K 	c #948F96",
"L 	c #A09CA3",
"M 	c #9E99A1",
"N 	c #918C94",
"O 	c #908C93",
"P 	c #78747B",
"Q 	c #77747A",
"R 	c #8F8B92",
"S 	c #9C969E",
"T 	c #99949C",
"U 	c #8C888F",
"V 	c #79767C",
"W 	c #2F2E30",
"X 	c #2B2A2C",
"Y 	c #2E2D2F",
"Z 	c #78747A",
"` 	c #8B868D",
" .	c #96919A",
"..	c #969397",
"+.	c #8A888B",
"@.	c #878588",
"#.	c #787678",
"$.	c #747275",
"%.	c #747274",
"&.	c #787679",
"*.	c #8B898C",
"=.	c #989699",
"-.	c #9B989C",
";.	c #9B999C",
">.	c #9B999D",
",.	c #9C9A9D",
"'.	c #9C9A9E",
").	c #9D9A9E",
"!.	c #9D9B9E",
"~.	c #CAC5CD",
"{.	c #767576",
"].	c #C4C0BC",
"^.	c #F1ECE5",
"                                              ",
". . . . . . . . . . . . . . . . . . . . . . . ",
"+ + + + + + + + + + + + + + + + + + + + + + + ",
"@ @ @ @ @ @ @ @ @ @ @ @ @ @ @ @ @ @ @ @ @ @ @ ",
"# # # $ $ $ $ $ $ $ $ $ $ $ $ $ $ $ $ $ # # # ",
"# # $ % % % & * * * * * * @ @ @ @ @ = - $ # # ",
"# # $ ; > > > , , , , , ' ' ' ' ' ' ' ) $ # # ",
"# # $ ! ~ ~ { ] ] ] ] ] ] ^ ^ ^ ^ ^ ^ / $ # # ",
"# # $ ( _ : < [ } } } } } } } | 1 1 1 2 $ # # ",
"# # $ 3 [ [ 4 5 } } } } } } } 6 | | | 7 $ # # ",
"# # $ 8 9 9 0 a } b c c c b } d e e e f $ # # ",
"# # $ g h h i j } k j j j l } m n n o p $ # # ",
"q q r s t t u v } v u u w x } x y y y z r q q ",
"A A B C D D E F } G H H H I } J K K K L B A A ",
"A A B M N N O P } } } } } } } Q R R R S B A A ",
"A A B T U U U V W X Y Y Y X Y Z ` ` `  .B A A ",
"A A B ..+.+.+.@.#.$.%.%.%.%.&.@.*.*.*.=.B A A ",
"A A B -.-.;.;.>.>.>.,.,.,.,.'.'.).!.!.!.B A A ",
"A A A B B B B B B B B B B B B B B B B B A A A ",
"~.~.~.~.~.~.~.~.~.~.~.~.~.~.~.~.~.~.~.~.~.~.~.",
"{.{.{.{.{.{.{.{.{.{.{.{.{.{.{.{.{.{.{.{.{.{.{.",
"].].].].].].].].].].].].].].].].].].].].].].].",
"^.^.^.^.^.^.^.^.^.^.^.^.^.^.^.^.^.^.^.^.^.^.^."};
