/* XPM */
static char * maxpr_xpm[] = {
"23 23 130 2",
"  	c #FBFAF7",
". 	c #CBCAC8",
"+ 	c #7D7D7C",
"@ 	c #D3D2DE",
"# 	c #D6D5E1",
"$ 	c #706F7B",
"% 	c #9D9CA5",
"& 	c #9D9DA5",
"* 	c #9E9DA6",
"= 	c #9E9EA6",
"- 	c #9F9EA7",
"; 	c #9F9FA7",
"> 	c #9F9FA8",
", 	c #A09FA8",
"' 	c #A2A2AA",
") 	c #95959C",
"! 	c #95959D",
"~ 	c #96959D",
"{ 	c #96969D",
"] 	c #96969E",
"^ 	c #96969F",
"/ 	c #A4A4AD",
"( 	c #A7A6AF",
"_ 	c #9999A1",
": 	c #9999A2",
"< 	c #9A99A2",
"[ 	c #9A9AA2",
"} 	c #9B9AA2",
"| 	c #9B9BA2",
"1 	c #AAA9B2",
"2 	c #ACACB4",
"3 	c #9E9DA5",
"4 	c #9F9EA5",
"5 	c #9F9EA6",
"6 	c #9F9FA6",
"7 	c #A09FA7",
"8 	c #9C9BA2",
"9 	c #A0A0A8",
"0 	c #AEAEB7",
"a 	c #B1B0B9",
"b 	c #8D8C94",
"c 	c #A3A2AB",
"d 	c #A3A3AB",
"e 	c #A3A3AC",
"f 	c #A4A3AC",
"g 	c #8D8D94",
"h 	c #A4A4AC",
"i 	c #B4B3BC",
"j 	c #B6B5BE",
"k 	c #A7A7AE",
"l 	c #A8A7AF",
"m 	c #8D8C93",
"n 	c #181819",
"o 	c #1C1C1E",
"p 	c #19181A",
"q 	c #A9A8B0",
"r 	c #AAA9B1",
"s 	c #A9A9B0",
"t 	c #B9B8C1",
"u 	c #BBBAC3",
"v 	c #ACABB3",
"w 	c #ACABB4",
"x 	c #919096",
"y 	c #ADACB4",
"z 	c #79787E",
"A 	c #919196",
"B 	c #919197",
"C 	c #79797E",
"D 	c #ADADB5",
"E 	c #BEBDC6",
"F 	c #D2CFDA",
"G 	c #6C6974",
"H 	c #BDBBC3",
"I 	c #ADACB3",
"J 	c #AEADB4",
"K 	c #AFADB4",
"L 	c #929197",
"M 	c #AFADB5",
"N 	c #B0ADB5",
"O 	c #C0BDC5",
"P 	c #CCC7CF",
"Q 	c #666169",
"R 	c #BEBAC0",
"S 	c #AEABB0",
"T 	c #AEACB0",
"U 	c #AEACB1",
"V 	c #919094",
"W 	c #929094",
"X 	c #AFACB1",
"Y 	c #AFADB1",
"Z 	c #929195",
"` 	c #B0ADB1",
" .	c #939195",
"..	c #B0ADB2",
"+.	c #C0BCC3",
"@.	c #C3BFC5",
"#.	c #B3AFB5",
"$.	c #B3AFB6",
"%.	c #969398",
"&.	c #B3B0B6",
"*.	c #B4B0B6",
"=.	c #B4B1B6",
"-.	c #B4B1B7",
";.	c #979499",
">.	c #B5B1B7",
",.	c #B5B2B7",
"'.	c #C5C2C8",
").	c #C8C4CA",
"!.	c #B8B4B9",
"~.	c #B8B5B9",
"{.	c #9F9DA0",
"].	c #3E3D3F",
"^.	c #39383A",
"/.	c #3D3C3E",
"(.	c #3D3D3E",
"_.	c #3E3D3E",
":.	c #A09DA1",
"<.	c #B9B6BB",
"[.	c #CAC7CC",
"}.	c #BBB7BE",
"|.	c #B7B3BA",
"1.	c #A29FA5",
"2.	c #9D9A9F",
"3.	c #9C999F",
"4.	c #A19EA4",
"5.	c #B6B2B9",
"6.	c #CAC5CD",
"7.	c #767576",
"8.	c #C4C0BC",
"9.	c #F1ECE5",
"                                              ",
". . . . . . . . . . . . . . . . . . . . . . . ",
"+ + + + + + + + + + + + + + + + + + + + + + + ",
"@ @ @ @ @ @ @ @ @ @ @ @ @ @ @ @ @ @ @ @ @ @ @ ",
"# # # $ $ $ $ $ $ $ $ $ $ $ $ $ $ $ $ $ # # # ",
"# # $ % % & * * * * = = - - - - ; ; > , $ # # ",
"# # $ ' ) ! ~ ~ ~ ~ { { ] ] ] ] ] ^ ^ / $ # # ",
"# # $ ( _ _ : < < < [ } } } } } } | | 1 $ # # ",
"# # $ 2 3 4 5 } 5 5 6 6 6 7 7 8 7 , 9 0 $ # # ",
"# # $ a ' ' ' b c c d e f f f g f h h i $ # # ",
"# # $ j k k l m l n o o o p q m q r s t $ # # ",
"# # $ u v w 2 x y z A A B C D B D D D E $ # # ",
"F F G H I I J A J A J J K L M L M M N O G F F ",
"P P Q R S T U V U W X X Y Z `  .......+.Q P P ",
"P P Q @.#.#.$.%.&.*.*.*.=.-.-.;.>.>.,.'.Q P P ",
"P P Q ).!.~.~.{.].^././.(.^._.:.<.<.<.[.Q P P ",
"P P Q P }.}.}.|.1.2.3.3.3.3.4.5.}.}.}.P Q P P ",
"P P Q P P P P P P P P P P P P P P P P P Q P P ",
"P P P Q Q Q Q Q Q Q Q Q Q Q Q Q Q Q Q Q P P P ",
"6.6.6.6.6.6.6.6.6.6.6.6.6.6.6.6.6.6.6.6.6.6.6.",
"7.7.7.7.7.7.7.7.7.7.7.7.7.7.7.7.7.7.7.7.7.7.7.",
"8.8.8.8.8.8.8.8.8.8.8.8.8.8.8.8.8.8.8.8.8.8.8.",
"9.9.9.9.9.9.9.9.9.9.9.9.9.9.9.9.9.9.9.9.9.9.9."};
