/* XPM */
static char * maxufcs_xpm[] = {
"23 23 114 2",
"  	c #FBFAF7",
". 	c #CBCAC8",
"+ 	c #7D7D7C",
"@ 	c #F7F7F4",
"# 	c #7B7A77",
"$ 	c #FAF9F6",
"% 	c #F9F9F5",
"& 	c #F9F8F5",
"* 	c #F8F7F4",
"= 	c #F8F7F3",
"- 	c #F7F6F3",
"; 	c #F5F4F1",
"> 	c #E1E0DD",
", 	c #E0DFDC",
"' 	c #DFDEDB",
") 	c #F3F2EE",
"! 	c #F0EFEC",
"~ 	c #DCDBD9",
"{ 	c #DCDAD8",
"] 	c #DBDAD8",
"^ 	c #DAD9D8",
"/ 	c #DAD9D7",
"( 	c #EDECE9",
"_ 	c #EBEAE7",
": 	c #D8D7D4",
"< 	c #D7D6D4",
"[ 	c #D7D6D3",
"} 	c #D2D1CE",
"| 	c #FFFFFF",
"1 	c #D0CFCC",
"2 	c #D6D5D2",
"3 	c #E9E7E4",
"4 	c #E6E5E2",
"5 	c #D3D2CF",
"6 	c #D3D1CF",
"7 	c #B6B5B3",
"8 	c #B4B3B2",
"9 	c #D1D0CE",
"0 	c #E3E2DF",
"a 	c #CECECB",
"b 	c #CECDCA",
"c 	c #ADACAA",
"d 	c #1E1E1D",
"e 	c #232322",
"f 	c #ABAAA8",
"g 	c #CDCCC9",
"h 	c #DEDDDA",
"i 	c #DCDBD8",
"j 	c #CAC9C6",
"k 	c #CAC8C5",
"l 	c #A8A7A5",
"m 	c #8C8C8A",
"n 	c #A7A6A4",
"o 	c #C8C7C4",
"p 	c #C8C6C4",
"q 	c #D9D8D5",
"r 	c #F7F4F0",
"s 	c #777470",
"t 	c #D3D0CC",
"u 	c #C2BFBB",
"v 	c #C1BEBA",
"w 	c #A19F9B",
"x 	c #C0BEBA",
"y 	c #A09E9B",
"z 	c #C0BDB9",
"A 	c #D1CECA",
"B 	c #F1ECE5",
"C 	c #716C65",
"D 	c #C8C3BC",
"E 	c #B8B3AD",
"F 	c #B8B2AC",
"G 	c #9A9590",
"H 	c #999590",
"I 	c #B7B2AC",
"J 	c #99958F",
"K 	c #98948F",
"L 	c #B6B1AB",
"M 	c #C5C1B9",
"N 	c #C3BEB7",
"O 	c #B3AEA8",
"P 	c #B2AEA7",
"Q 	c #95918B",
"R 	c #94918B",
"S 	c #B1ADA6",
"T 	c #C1BBB4",
"U 	c #BEB9B2",
"V 	c #AEAAA3",
"W 	c #97938D",
"X 	c #3A3937",
"Y 	c #363432",
"Z 	c #3A3836",
"` 	c #95918C",
" .	c #ADA8A2",
"..	c #BBB6B0",
"+.	c #B9B4AD",
"@.	c #AAA59F",
"#.	c #AAA49F",
"$.	c #A5A09A",
"%.	c #928E89",
"&.	c #8E8A85",
"*.	c #8D8984",
"=.	c #8C8984",
"-.	c #918D87",
";.	c #A39F99",
">.	c #A8A39D",
",.	c #B6B2AB",
"'.	c #B4AFA8",
").	c #B4AFA7",
"!.	c #B3AEA7",
"~.	c #B2ADA8",
"{.	c #B1ACA8",
"].	c #EEE9E2",
"^.	c #7B7A79",
"/.	c #C4C0BC",
"                                              ",
". . . . . . . . . . . . . . . . . . . . . . . ",
"+ + + + + + + + + + + + + + + + + + + + + + + ",
"@ @ @ @ @ @ @ @ @ @ @ @ @ @ @ @ @ @ @ @ @ @ @ ",
"      # # # # # # # # # # # # # # # # #       ",
"    # $ $ $ % & & & & & & * * * * * = - #     ",
"    # ; > > > , , , , , ' ' ' ' ' ' ' ) #     ",
"    # ! ~ ~ { ] ] ] ] ] ] ^ / / / / / ( #     ",
"    # _ : < [ } | | | | | | | 1 2 2 2 3 #     ",
"    # 4 5 5 6 7 | | | | | | | 8 9 9 9 0 #     ",
"    # > a a b c | d e e e d | f g g g h #     ",
"    # i j j k l | m l l l m | n o o p q #     ",
"r r s t u u v w | w v v x y | y z z z A s r r ",
"B B C D E E F G | H I I I J | K L L L M C B B ",
"B B C N O O P Q | | | | | | | R S S S T C B B ",
"B B C U V V V W X Y Z Z Z Y Z `  . . ...C B B ",
"B B C +.@.@.#.$.%.&.*.*.*.=.-.;.>.>.>.,.C B B ",
"B B C '.'.'.'.).!.!.!.!.~.~.~.~.~.~.~.{.C B B ",
"B B B C C C C C C C C C C C C C C C C C B B B ",
"].].].].].].].].].].].].].].].].].].].].].].].",
"^.^.^.^.^.^.^.^.^.^.^.^.^.^.^.^.^.^.^.^.^.^.^.",
"/././././././././././././././././././././././.",
"B B B B B B B B B B B B B B B B B B B B B B B "};
