/* XPM */
static char * menuiconpr_xpm[] = {
"23 23 123 2",
"  	c #FBFAF7",
". 	c #CBCAC8",
"+ 	c #7D7D7C",
"@ 	c #D3D2DE",
"# 	c #D6D5E1",
"$ 	c #706F7B",
"% 	c #9D9CA5",
"& 	c #9D9DA5",
"* 	c #9E9DA6",
"= 	c #9E9EA6",
"- 	c #9F9EA7",
"; 	c #9F9FA7",
"> 	c #9F9FA8",
", 	c #A09FA8",
"' 	c #A2A2AA",
") 	c #95959C",
"! 	c #95959D",
"~ 	c #96959D",
"{ 	c #96969D",
"] 	c #96969E",
"^ 	c #96969F",
"/ 	c #A4A4AD",
"( 	c #A7A6AF",
"_ 	c #9999A1",
": 	c #9999A2",
"< 	c #9A99A2",
"[ 	c #9A9AA2",
"} 	c #9B9AA2",
"| 	c #9B9BA2",
"1 	c #AAA9B2",
"2 	c #ACACB4",
"3 	c #9E9DA5",
"4 	c #9F9EA5",
"5 	c #9F9EA6",
"6 	c #9F9FA6",
"7 	c #A09FA7",
"8 	c #A0A0A8",
"9 	c #AEAEB7",
"0 	c #B1B0B9",
"a 	c #A3A2AB",
"b 	c #A3A3AB",
"c 	c #A3A3AC",
"d 	c #A4A3AC",
"e 	c #A4A4AC",
"f 	c #B4B3BC",
"g 	c #B6B5BE",
"h 	c #A7A7AE",
"i 	c #A8A7AF",
"j 	c #96959C",
"k 	c #4B4B4E",
"l 	c #39383B",
"m 	c #38383A",
"n 	c #4C4B4F",
"o 	c #A9A8B0",
"p 	c #AAA9B1",
"q 	c #A9A9B0",
"r 	c #B9B8C1",
"s 	c #BBBAC3",
"t 	c #ACABB3",
"u 	c #ACABB4",
"v 	c #ADACB4",
"w 	c #A4A3AB",
"x 	c #ADADB4",
"y 	c #ADADB5",
"z 	c #A4A4AB",
"A 	c #BEBDC6",
"B 	c #D2CFDA",
"C 	c #6C6974",
"D 	c #BDBBC3",
"E 	c #ADACB3",
"F 	c #AEADB4",
"G 	c #9B9AA0",
"H 	c #4E4D50",
"I 	c #3B3A3D",
"J 	c #3A3A3C",
"K 	c #4E4D51",
"L 	c #9C9AA1",
"M 	c #AFADB5",
"N 	c #B0ADB5",
"O 	c #C0BDC5",
"P 	c #CCC7CF",
"Q 	c #666169",
"R 	c #BEBAC0",
"S 	c #AEABB0",
"T 	c #AEACB0",
"U 	c #AEACB1",
"V 	c #A5A3A8",
"W 	c #AFACB1",
"X 	c #AFADB1",
"Y 	c #AFADB2",
"Z 	c #A6A4A7",
"` 	c #B0ADB2",
" .	c #C0BCC3",
"..	c #C3BFC5",
"+.	c #B3AFB5",
"@.	c #B3AFB6",
"#.	c #B4B0B6",
"$.	c #9F9DA2",
"%.	c #504F51",
"&.	c #3D3B3D",
"*.	c #3C3B3D",
"=.	c #504F52",
"-.	c #A09EA3",
";.	c #B5B1B7",
">.	c #B5B2B7",
",.	c #C5C2C8",
"'.	c #C8C4CA",
").	c #B8B4B9",
"!.	c #B8B5B9",
"~.	c #B4B1B6",
"{.	c #9F9DA1",
"].	c #9A989C",
"^.	c #9A979B",
"/.	c #9A989B",
"(.	c #9F9DA0",
"_.	c #B4B1B5",
":.	c #B9B6BB",
"<.	c #CAC7CC",
"[.	c #BBB7BE",
"}.	c #CAC5CD",
"|.	c #767576",
"1.	c #C4C0BC",
"2.	c #F1ECE5",
"                                              ",
". . . . . . . . . . . . . . . . . . . . . . . ",
"+ + + + + + + + + + + + + + + + + + + + + + + ",
"@ @ @ @ @ @ @ @ @ @ @ @ @ @ @ @ @ @ @ @ @ @ @ ",
"# # # $ $ $ $ $ $ $ $ $ $ $ $ $ $ $ $ $ # # # ",
"# # $ % % & * * * * = = - - - - ; ; > , $ # # ",
"# # $ ' ) ! ~ ~ ~ ~ { { ] ] ] ] ] ^ ^ / $ # # ",
"# # $ ( _ _ : < < < [ } } } } } } | | 1 $ # # ",
"# # $ 2 3 4 5 5 5 5 6 6 6 7 7 7 7 , 8 9 $ # # ",
"# # $ 0 ' ' ' a - a b c d d 7 d d e e f $ # # ",
"# # $ g h h i i j k l m m n { o o p q r $ # # ",
"# # $ s t u 2 v w v x x y y z y y y y A $ # # ",
"B B C D E E F F G H I J J K L M M M N O C B B ",
"P P Q R S T U U V W W W X Y Z ` ` ` `  .Q P P ",
"P P Q ..+.+.@.#.$.%.&.*.*.=.-.;.;.;.>.,.Q P P ",
"P P Q '.).!.!.!.~.{.].^./.(._.:.:.:.:.<.Q P P ",
"P P Q P [.[.[.[.[.[.[.[.[.[.[.[.[.[.[.P Q P P ",
"P P Q P P P P P P P P P P P P P P P P P Q P P ",
"P P P Q Q Q Q Q Q Q Q Q Q Q Q Q Q Q Q Q P P P ",
"}.}.}.}.}.}.}.}.}.}.}.}.}.}.}.}.}.}.}.}.}.}.}.",
"|.|.|.|.|.|.|.|.|.|.|.|.|.|.|.|.|.|.|.|.|.|.|.",
"1.1.1.1.1.1.1.1.1.1.1.1.1.1.1.1.1.1.1.1.1.1.1.",
"2.2.2.2.2.2.2.2.2.2.2.2.2.2.2.2.2.2.2.2.2.2.2."};
