/* XPM */
static char * menuiconfcs_xpm[] = {
"23 23 118 2",
"  	c #FBFAF7",
". 	c #CBCAC8",
"+ 	c #7D7D7C",
"@ 	c #D3D2DE",
"# 	c #D6D5E1",
"$ 	c #565561",
"% 	c #D5D4E0",
"& 	c #D4D4DF",
"* 	c #D4D3DF",
"= 	c #D3D2DD",
"- 	c #D2D1DD",
"; 	c #D0CFDB",
"> 	c #BFBEC9",
", 	c #BEBDC8",
"' 	c #BDBCC7",
") 	c #CECDD8",
"! 	c #CBCAD6",
"~ 	c #BAB9C4",
"{ 	c #BAB8C3",
"] 	c #B9B8C3",
"^ 	c #B8B8C3",
"/ 	c #C8C7D3",
"( 	c #C6C5D1",
"_ 	c #B6B5C0",
": 	c #B5B4C0",
"< 	c #B5B4BF",
"[ 	c #B5B3BF",
"} 	c #B4B3BE",
"| 	c #C4C2CE",
"1 	c #C1C0CC",
"2 	c #B1B0BB",
"3 	c #B1AFBB",
"4 	c #B0AFBA",
"5 	c #ACABB6",
"6 	c #FFFFFF",
"7 	c #AAA9B4",
"8 	c #AFAEB9",
"9 	c #BEBDC9",
"0 	c #BCBBC7",
"a 	c #ADACB7",
"b 	c #9998A2",
"c 	c #4D4C51",
"d 	c #3A3A3D",
"e 	c #39393D",
"f 	c #4C4C51",
"g 	c #9897A1",
"h 	c #ABAAB5",
"i 	c #B9B8C4",
"j 	c #B7B6C2",
"k 	c #A8A7B2",
"l 	c #A8A6B1",
"m 	c #A7A6B1",
"n 	c #9E9EA8",
"o 	c #9D9CA6",
"p 	c #A6A5B0",
"q 	c #A6A4B0",
"r 	c #B4B3BF",
"s 	c #D2CFDA",
"t 	c #524F5A",
"u 	c #AEABB6",
"v 	c #A09DA7",
"w 	c #9F9CA6",
"x 	c #8E8B94",
"y 	c #47464A",
"z 	c #363538",
"A 	c #353437",
"B 	c #47454A",
"C 	c #8D8A93",
"D 	c #9E9BA5",
"E 	c #ACA9B4",
"F 	c #CCC7CF",
"G 	c #4C474F",
"H 	c #A39EA6",
"I 	c #969198",
"J 	c #969097",
"K 	c #8D898F",
"L 	c #8C878F",
"M 	c #948F96",
"N 	c #A09CA3",
"O 	c #9E99A1",
"P 	c #918C94",
"Q 	c #908C93",
"R 	c #908B93",
"S 	c #807C83",
"T 	c #403E42",
"U 	c #312F32",
"V 	c #302E31",
"W 	c #403E41",
"X 	c #7F7C82",
"Y 	c #8F8B92",
"Z 	c #9C969E",
"` 	c #99949C",
" .	c #8C888F",
"..	c #88848B",
"+.	c #78757B",
"@.	c #757177",
"#.	c #747177",
"$.	c #78747B",
"%.	c #87838A",
"&.	c #8B868D",
"*.	c #96919A",
"=.	c #969397",
"-.	c #8A888B",
";.	c #8B888B",
">.	c #8B898B",
",.	c #8B898C",
"'.	c #989699",
").	c #9B989C",
"!.	c #9B999C",
"~.	c #9B999D",
"{.	c #9C9A9D",
"].	c #9C9A9E",
"^.	c #9D9A9E",
"/.	c #9D9B9E",
"(.	c #CAC5CD",
"_.	c #767576",
":.	c #C4C0BC",
"<.	c #F1ECE5",
"                                              ",
". . . . . . . . . . . . . . . . . . . . . . . ",
"+ + + + + + + + + + + + + + + + + + + + + + + ",
"@ @ @ @ @ @ @ @ @ @ @ @ @ @ @ @ @ @ @ @ @ @ @ ",
"# # # $ $ $ $ $ $ $ $ $ $ $ $ $ $ $ $ $ # # # ",
"# # $ % % % & * * * * * * @ @ @ @ @ = - $ # # ",
"# # $ ; > > > , , , , , ' ' ' ' ' ' ' ) $ # # ",
"# # $ ! ~ ~ { ] ] ] ] ] ] ^ ^ ^ ^ ^ ^ / $ # # ",
"# # $ ( _ : < < < < < < [ } } } } } } | $ # # ",
"# # $ 1 2 2 3 4 5 6 6 6 6 6 7 8 8 8 8 9 $ # # ",
"# # $ 0 a a 5 5 b c d e e f g h h h h i $ # # ",
"# # $ j k k l m n 6 6 6 6 6 o p p p q r $ # # ",
"s s t u v v w w x y z A A B C D D D D E t s s ",
"F F G H I I J J K 6 6 6 6 6 L M M M M N G F F ",
"F F G O P P Q R S T U V V W X Y Y Y Y Z G F F ",
"F F G `  . . . ...+.@.#.#.$.%.&.&.&.&.*.G F F ",
"F F G =.-.-.-.-.-.-.;.;.>.>.,.,.,.,.,.'.G F F ",
"F F G ).).!.!.~.~.~.{.{.{.{.].].^./././.G F F ",
"F F F G G G G G G G G G G G G G G G G G F F F ",
"(.(.(.(.(.(.(.(.(.(.(.(.(.(.(.(.(.(.(.(.(.(.(.",
"_._._._._._._._._._._._._._._._._._._._._._._.",
":.:.:.:.:.:.:.:.:.:.:.:.:.:.:.:.:.:.:.:.:.:.:.",
"<.<.<.<.<.<.<.<.<.<.<.<.<.<.<.<.<.<.<.<.<.<.<."};
