/* XPM */
static char * menuiconufcs_xpm[] = {
"23 23 114 2",
"  	c #FBFAF7",
". 	c #CBCAC8",
"+ 	c #7D7D7C",
"@ 	c #F7F7F4",
"# 	c #7B7A77",
"$ 	c #FAF9F6",
"% 	c #F9F9F5",
"& 	c #F9F8F5",
"* 	c #F8F7F4",
"= 	c #F8F7F3",
"- 	c #F7F6F3",
"; 	c #F5F4F1",
"> 	c #E1E0DD",
", 	c #E0DFDC",
"' 	c #DFDEDB",
") 	c #F3F2EE",
"! 	c #F0EFEC",
"~ 	c #DCDBD9",
"{ 	c #DCDAD8",
"] 	c #DBDAD8",
"^ 	c #DAD9D8",
"/ 	c #DAD9D7",
"( 	c #EDECE9",
"_ 	c #EBEAE7",
": 	c #D8D7D4",
"< 	c #D7D6D4",
"[ 	c #D7D6D3",
"} 	c #D7D5D3",
"| 	c #D6D5D2",
"1 	c #E9E7E4",
"2 	c #E6E5E2",
"3 	c #D3D2CF",
"4 	c #D3D1CF",
"5 	c #D2D1CE",
"6 	c #CDCCC9",
"7 	c #FFFFFF",
"8 	c #D1D0CE",
"9 	c #E3E2DF",
"0 	c #CECECB",
"a 	c #CECDCA",
"b 	c #B7B6B4",
"c 	c #5C5C5A",
"d 	c #454544",
"e 	c #454443",
"f 	c #5C5B5A",
"g 	c #B6B6B3",
"h 	c #DEDDDA",
"i 	c #DCDBD8",
"j 	c #CAC9C6",
"k 	c #CAC8C5",
"l 	c #C9C8C5",
"m 	c #BFBEBB",
"n 	c #BDBCB9",
"o 	c #C8C7C4",
"p 	c #C8C6C4",
"q 	c #D9D8D5",
"r 	c #F7F4F0",
"s 	c #777470",
"t 	c #D3D0CC",
"u 	c #C2BFBB",
"v 	c #C1BEBA",
"w 	c #ACA9A6",
"x 	c #565553",
"y 	c #41403F",
"z 	c #403F3E",
"A 	c #565453",
"B 	c #ABA8A5",
"C 	c #C0BDB9",
"D 	c #D1CECA",
"E 	c #F1ECE5",
"F 	c #716C65",
"G 	c #C8C3BC",
"H 	c #B8B3AD",
"I 	c #B8B2AC",
"J 	c #AEA9A3",
"K 	c #ACA7A3",
"L 	c #B6B1AB",
"M 	c #C5C1B9",
"N 	c #C3BEB7",
"O 	c #B3AEA8",
"P 	c #B2AEA7",
"Q 	c #B2ADA7",
"R 	c #9E9A95",
"S 	c #504D4B",
"T 	c #3C3A38",
"U 	c #3B3A38",
"V 	c #504D4A",
"W 	c #9E9A94",
"X 	c #B1ADA6",
"Y 	c #C1BBB4",
"Z 	c #BEB9B2",
"` 	c #AEAAA3",
" .	c #A9A59E",
"..	c #96928C",
"+.	c #918E88",
"@.	c #918D87",
"#.	c #95928C",
"$.	c #A8A49E",
"%.	c #ADA8A2",
"&.	c #BBB6B0",
"*.	c #B9B4AD",
"=.	c #AAA59F",
"-.	c #AAA49F",
";.	c #A9A49E",
">.	c #A8A39D",
",.	c #B6B2AB",
"'.	c #B4AFA8",
").	c #B4AFA7",
"!.	c #B3AEA7",
"~.	c #B2ADA8",
"{.	c #B1ACA8",
"].	c #EEE9E2",
"^.	c #7B7A79",
"/.	c #C4C0BC",
"                                              ",
". . . . . . . . . . . . . . . . . . . . . . . ",
"+ + + + + + + + + + + + + + + + + + + + + + + ",
"@ @ @ @ @ @ @ @ @ @ @ @ @ @ @ @ @ @ @ @ @ @ @ ",
"      # # # # # # # # # # # # # # # # #       ",
"    # $ $ $ % & & & & & & * * * * * = - #     ",
"    # ; > > > , , , , , ' ' ' ' ' ' ' ) #     ",
"    # ! ~ ~ { ] ] ] ] ] ] ^ / / / / / ( #     ",
"    # _ : < [ [ [ [ [ [ } | | | | | | 1 #     ",
"    # 2 3 3 4 5 6 7 7 7 7 7 . 8 8 8 8 9 #     ",
"    # > 0 0 a a b c d e e f g 6 6 6 6 h #     ",
"    # i j j k l m 7 7 7 7 7 n o o o p q #     ",
"r r s t u u v v w x y z z A B C C C C D s r r ",
"E E F G H H I I J 7 7 7 7 7 K L L L L M F E E ",
"E E F N O O P Q R S T U U V W X X X X Y F E E ",
"E E F Z ` ` ` `  ...+.@.@.#.$.%.%.%.%.&.F E E ",
"E E F *.=.=.-.;.;.;.;.;.;.$.>.>.>.>.>.,.F E E ",
"E E F '.'.'.'.).!.!.!.!.~.~.~.~.~.~.~.{.F E E ",
"E E E F F F F F F F F F F F F F F F F F E E E ",
"].].].].].].].].].].].].].].].].].].].].].].].",
"^.^.^.^.^.^.^.^.^.^.^.^.^.^.^.^.^.^.^.^.^.^.^.",
"/././././././././././././././././././././././.",
"E E E E E E E E E E E E E E E E E E E E E E E "};
