/* XPM */
static char * shadepr_xpm[] = {
"23 23 115 2",
"  	c #FBFAF7",
". 	c #CBCAC8",
"+ 	c #7D7D7C",
"@ 	c #D3D2DE",
"# 	c #D6D5E1",
"$ 	c #706F7B",
"% 	c #9D9CA5",
"& 	c #9D9DA5",
"* 	c #9E9DA6",
"= 	c #9E9EA6",
"- 	c #9F9EA7",
"; 	c #9F9FA7",
"> 	c #9F9FA8",
", 	c #A09FA8",
"' 	c #A2A2AA",
") 	c #95959C",
"! 	c #95959D",
"~ 	c #96959D",
"{ 	c #96969D",
"] 	c #96969E",
"^ 	c #96969F",
"/ 	c #A4A4AD",
"( 	c #A7A6AF",
"_ 	c #9999A1",
": 	c #9999A2",
"< 	c #9A99A2",
"[ 	c #9A9AA2",
"} 	c #9B9AA2",
"| 	c #9B9BA2",
"1 	c #AAA9B2",
"2 	c #ACACB4",
"3 	c #9E9DA5",
"4 	c #9F9EA5",
"5 	c #9F9EA6",
"6 	c #9F9FA6",
"7 	c #A09FA7",
"8 	c #A0A0A8",
"9 	c #AEAEB7",
"0 	c #B1B0B9",
"a 	c #A3A2AB",
"b 	c #A3A3AB",
"c 	c #A3A3AC",
"d 	c #A4A3AC",
"e 	c #A4A4AC",
"f 	c #B4B3BC",
"g 	c #B6B5BE",
"h 	c #A7A7AE",
"i 	c #A8A7AF",
"j 	c #A8A8AF",
"k 	c #A9A8B0",
"l 	c #AAA9B1",
"m 	c #A9A9B0",
"n 	c #B9B8C1",
"o 	c #BBBAC3",
"p 	c #ACABB3",
"q 	c #ACABB4",
"r 	c #ADACB4",
"s 	c #ADADB4",
"t 	c #ADADB5",
"u 	c #BEBDC6",
"v 	c #D2CFDA",
"w 	c #6C6974",
"x 	c #BDBBC3",
"y 	c #ADACB3",
"z 	c #AEADB4",
"A 	c #AFADB4",
"B 	c #AFADB5",
"C 	c #B0ADB5",
"D 	c #C0BDC5",
"E 	c #CCC7CF",
"F 	c #666169",
"G 	c #BEBAC0",
"H 	c #AEABB0",
"I 	c #AEACB0",
"J 	c #AEACB1",
"K 	c #AFACB1",
"L 	c #AFADB1",
"M 	c #AFADB2",
"N 	c #B0ADB1",
"O 	c #B0ADB2",
"P 	c #C0BCC3",
"Q 	c #C3BFC5",
"R 	c #B3AFB5",
"S 	c #B3AFB6",
"T 	c #B0ACB2",
"U 	c #B3B0B6",
"V 	c #B4B0B6",
"W 	c #B4B1B6",
"X 	c #B4B1B7",
"Y 	c #B5B1B7",
"Z 	c #B5B2B7",
"` 	c #C5C2C8",
" .	c #C8C4CA",
"..	c #B8B4B9",
"+.	c #B8B5B9",
"@.	c #A4A1A5",
"#.	c #525153",
"$.	c #3E3D3F",
"%.	c #3D3C3E",
"&.	c #3D3D3E",
"*.	c #535153",
"=.	c #A5A2A6",
"-.	c #B9B6BB",
";.	c #CAC7CC",
">.	c #BBB7BE",
",.	c #B7B3BA",
"'.	c #A29FA5",
").	c #9D9A9F",
"!.	c #9C999F",
"~.	c #A19EA4",
"{.	c #B6B2B9",
"].	c #CAC5CD",
"^.	c #767576",
"/.	c #C4C0BC",
"(.	c #F1ECE5",
"                                              ",
". . . . . . . . . . . . . . . . . . . . . . . ",
"+ + + + + + + + + + + + + + + + + + + + + + + ",
"@ @ @ @ @ @ @ @ @ @ @ @ @ @ @ @ @ @ @ @ @ @ @ ",
"# # # $ $ $ $ $ $ $ $ $ $ $ $ $ $ $ $ $ # # # ",
"# # $ % % & * * * * = = - - - - ; ; > , $ # # ",
"# # $ ' ) ! ~ ~ ~ ~ { { ] ] ] ] ] ^ ^ / $ # # ",
"# # $ ( _ _ : < < < [ } } } } } } | | 1 $ # # ",
"# # $ 2 3 4 5 5 5 5 6 6 6 7 7 7 7 , 8 9 $ # # ",
"# # $ 0 ' ' ' a a a b c d d d d d e e f $ # # ",
"# # $ g h h i i i i i j j k k k k l m n $ # # ",
"# # $ o p q 2 r r r s s t t t t t t t u $ # # ",
"v v w x y y z z z z z z A B B B B B C D w v v ",
"E E F G H I J J J K K K L M N O O O O P F E E ",
"E E F Q R R S T U V V V W X X T Y Y Z ` F E E ",
"E E F  ...+.+.@.#.$.%.%.&.&.*.=.-.-.-.;.F E E ",
"E E F E >.>.>.,.'.).!.!.!.!.~.{.>.>.>.E F E E ",
"E E F E E E E E E E E E E E E E E E E E F E E ",
"E E E F F F F F F F F F F F F F F F F F E E E ",
"].].].].].].].].].].].].].].].].].].].].].].].",
"^.^.^.^.^.^.^.^.^.^.^.^.^.^.^.^.^.^.^.^.^.^.^.",
"/././././././././././././././././././././././.",
"(.(.(.(.(.(.(.(.(.(.(.(.(.(.(.(.(.(.(.(.(.(.(."};
