/* XPM */
static char * shadeufcs_xpm[] = {
"23 23 103 2",
"  	c #FBFAF7",
". 	c #CBCAC8",
"+ 	c #7D7D7C",
"@ 	c #F7F7F4",
"# 	c #7B7A77",
"$ 	c #FAF9F6",
"% 	c #F9F9F5",
"& 	c #F9F8F5",
"* 	c #F8F7F4",
"= 	c #F8F7F3",
"- 	c #F7F6F3",
"; 	c #F5F4F1",
"> 	c #E1E0DD",
", 	c #E0DFDC",
"' 	c #DFDEDB",
") 	c #F3F2EE",
"! 	c #F0EFEC",
"~ 	c #DCDBD9",
"{ 	c #DCDAD8",
"] 	c #DBDAD8",
"^ 	c #DAD9D8",
"/ 	c #DAD9D7",
"( 	c #EDECE9",
"_ 	c #EBEAE7",
": 	c #D8D7D4",
"< 	c #D7D6D4",
"[ 	c #D7D6D3",
"} 	c #D7D5D3",
"| 	c #D6D5D2",
"1 	c #E9E7E4",
"2 	c #E6E5E2",
"3 	c #D3D2CF",
"4 	c #D3D1CF",
"5 	c #D2D1CE",
"6 	c #D1D0CE",
"7 	c #E3E2DF",
"8 	c #CECECB",
"9 	c #CECDCA",
"0 	c #CDCCC9",
"a 	c #DEDDDA",
"b 	c #DCDBD8",
"c 	c #CAC9C6",
"d 	c #CAC8C5",
"e 	c #C9C8C5",
"f 	c #C8C8C5",
"g 	c #C8C7C4",
"h 	c #C8C6C4",
"i 	c #D9D8D5",
"j 	c #F7F4F0",
"k 	c #777470",
"l 	c #D3D0CC",
"m 	c #C2BFBB",
"n 	c #C1BEBA",
"o 	c #C0BEBA",
"p 	c #C0BDB9",
"q 	c #D1CECA",
"r 	c #F1ECE5",
"s 	c #716C65",
"t 	c #C8C3BC",
"u 	c #B8B3AD",
"v 	c #B8B2AC",
"w 	c #B7B2AC",
"x 	c #B7B2AB",
"y 	c #B6B1AC",
"z 	c #B6B1AB",
"A 	c #C5C1B9",
"B 	c #C3BEB7",
"C 	c #B3AEA8",
"D 	c #B2AEA7",
"E 	c #AEA9A3",
"F 	c #FFFFFF",
"G 	c #ACA8A1",
"H 	c #B1ADA6",
"I 	c #C1BBB4",
"J 	c #BEB9B2",
"K 	c #AEAAA3",
"L 	c #9B9791",
"M 	c #4D4C48",
"N 	c #3A3937",
"O 	c #3A3836",
"P 	c #9A9690",
"Q 	c #ADA8A2",
"R 	c #BBB6B0",
"S 	c #B9B4AD",
"T 	c #AAA59F",
"U 	c #AAA49F",
"V 	c #A5A09A",
"W 	c #928E89",
"X 	c #8E8A85",
"Y 	c #8D8984",
"Z 	c #8C8984",
"` 	c #918D87",
" .	c #A39F99",
"..	c #A8A39D",
"+.	c #B6B2AB",
"@.	c #B4AFA8",
"#.	c #B4AFA7",
"$.	c #B3AEA7",
"%.	c #B2ADA8",
"&.	c #B1ACA8",
"*.	c #EEE9E2",
"=.	c #7B7A79",
"-.	c #C4C0BC",
"                                              ",
". . . . . . . . . . . . . . . . . . . . . . . ",
"+ + + + + + + + + + + + + + + + + + + + + + + ",
"@ @ @ @ @ @ @ @ @ @ @ @ @ @ @ @ @ @ @ @ @ @ @ ",
"      # # # # # # # # # # # # # # # # #       ",
"    # $ $ $ % & & & & & & * * * * * = - #     ",
"    # ; > > > , , , , , ' ' ' ' ' ' ' ) #     ",
"    # ! ~ ~ { ] ] ] ] ] ] ^ / / / / / ( #     ",
"    # _ : < [ [ [ [ [ [ } | | | | | | 1 #     ",
"    # 2 3 3 4 5 5 5 5 5 5 6 6 6 6 6 6 7 #     ",
"    # > 8 8 9 9 9 9 9 9 9 0 0 0 0 0 0 a #     ",
"    # b c c d e e e e e e f g g g g h i #     ",
"j j k l m m n n n n n n o p p p p p p q k j j ",
"r r s t u u v v w w w w w x y z z z z A s r r ",
"r r s B C C D E F F F F F F F G H H H I s r r ",
"r r s J K K K L M N O O O O M P Q Q Q R s r r ",
"r r s S T T U V W X Y Y Y Z `  .......+.s r r ",
"r r s @.@.@.@.#.$.$.$.$.%.%.%.%.%.%.%.&.s r r ",
"r r r s s s s s s s s s s s s s s s s s r r r ",
"*.*.*.*.*.*.*.*.*.*.*.*.*.*.*.*.*.*.*.*.*.*.*.",
"=.=.=.=.=.=.=.=.=.=.=.=.=.=.=.=.=.=.=.=.=.=.=.",
"-.-.-.-.-.-.-.-.-.-.-.-.-.-.-.-.-.-.-.-.-.-.-.",
"r r r r r r r r r r r r r r r r r r r r r r r "};
