/* XPM */
static char * shadefcs_xpm[] = {
"23 23 104 2",
"  	c #FBFAF7",
". 	c #CBCAC8",
"+ 	c #7D7D7C",
"@ 	c #D3D2DE",
"# 	c #D6D5E1",
"$ 	c #565561",
"% 	c #D5D4E0",
"& 	c #D4D4DF",
"* 	c #D4D3DF",
"= 	c #D3D2DD",
"- 	c #D2D1DD",
"; 	c #D0CFDB",
"> 	c #BFBEC9",
", 	c #BEBDC8",
"' 	c #BDBCC7",
") 	c #CECDD8",
"! 	c #CBCAD6",
"~ 	c #BAB9C4",
"{ 	c #BAB8C3",
"] 	c #B9B8C3",
"^ 	c #B8B8C3",
"/ 	c #C8C7D3",
"( 	c #C6C5D1",
"_ 	c #B6B5C0",
": 	c #B5B4C0",
"< 	c #B5B4BF",
"[ 	c #B5B3BF",
"} 	c #B4B3BE",
"| 	c #C4C2CE",
"1 	c #C1C0CC",
"2 	c #B1B0BB",
"3 	c #B1AFBB",
"4 	c #B0AFBA",
"5 	c #AFAEBA",
"6 	c #AFAEB9",
"7 	c #BEBDC9",
"8 	c #BCBBC7",
"9 	c #ADACB7",
"0 	c #ACABB6",
"a 	c #ABAAB5",
"b 	c #B9B8C4",
"c 	c #B7B6C2",
"d 	c #A8A7B2",
"e 	c #A8A6B1",
"f 	c #A7A6B1",
"g 	c #A6A6B1",
"h 	c #A6A5B0",
"i 	c #A6A4B0",
"j 	c #B4B3BF",
"k 	c #D2CFDA",
"l 	c #524F5A",
"m 	c #AEABB6",
"n 	c #A09DA7",
"o 	c #9F9CA6",
"p 	c #9E9CA6",
"q 	c #9E9BA5",
"r 	c #ACA9B4",
"s 	c #CCC7CF",
"t 	c #4C474F",
"u 	c #A39EA6",
"v 	c #969198",
"w 	c #969097",
"x 	c #959097",
"y 	c #959096",
"z 	c #948F97",
"A 	c #948F96",
"B 	c #A09CA3",
"C 	c #9E99A1",
"D 	c #918C94",
"E 	c #908C93",
"F 	c #8D8890",
"G 	c #FFFFFF",
"H 	c #8B878E",
"I 	c #8F8B92",
"J 	c #9C969E",
"K 	c #99949C",
"L 	c #8C888F",
"M 	c #7D797F",
"N 	c #3E3C3F",
"O 	c #2F2E30",
"P 	c #2E2D2F",
"Q 	c #7C777E",
"R 	c #8B868D",
"S 	c #96919A",
"T 	c #969397",
"U 	c #8A888B",
"V 	c #878588",
"W 	c #787678",
"X 	c #747275",
"Y 	c #747274",
"Z 	c #787679",
"` 	c #8B898C",
" .	c #989699",
"..	c #9B989C",
"+.	c #9B999C",
"@.	c #9B999D",
"#.	c #9C9A9D",
"$.	c #9C9A9E",
"%.	c #9D9A9E",
"&.	c #9D9B9E",
"*.	c #CAC5CD",
"=.	c #767576",
"-.	c #C4C0BC",
";.	c #F1ECE5",
"                                              ",
". . . . . . . . . . . . . . . . . . . . . . . ",
"+ + + + + + + + + + + + + + + + + + + + + + + ",
"@ @ @ @ @ @ @ @ @ @ @ @ @ @ @ @ @ @ @ @ @ @ @ ",
"# # # $ $ $ $ $ $ $ $ $ $ $ $ $ $ $ $ $ # # # ",
"# # $ % % % & * * * * * * @ @ @ @ @ = - $ # # ",
"# # $ ; > > > , , , , , ' ' ' ' ' ' ' ) $ # # ",
"# # $ ! ~ ~ { ] ] ] ] ] ] ^ ^ ^ ^ ^ ^ / $ # # ",
"# # $ ( _ : < < < < < < [ } } } } } } | $ # # ",
"# # $ 1 2 2 3 4 4 4 4 4 4 5 6 6 6 6 6 7 $ # # ",
"# # $ 8 9 9 0 0 0 0 0 0 0 a a a a a a b $ # # ",
"# # $ c d d e f f f f f f g h h h h i j $ # # ",
"k k l m n n o o o o o o p q q q q q q r l k k ",
"s s t u v v w w x x x x x y z A A A A B t s s ",
"s s t C D D E F G G G G G G G H I I I J t s s ",
"s s t K L L L M N O P P P P N Q R R R S t s s ",
"s s t T U U U V W X Y Y Y Y Z V ` ` `  .t s s ",
"s s t ....+.+.@.@.@.#.#.#.#.$.$.%.&.&.&.t s s ",
"s s s t t t t t t t t t t t t t t t t t s s s ",
"*.*.*.*.*.*.*.*.*.*.*.*.*.*.*.*.*.*.*.*.*.*.*.",
"=.=.=.=.=.=.=.=.=.=.=.=.=.=.=.=.=.=.=.=.=.=.=.",
"-.-.-.-.-.-.-.-.-.-.-.-.-.-.-.-.-.-.-.-.-.-.-.",
";.;.;.;.;.;.;.;.;.;.;.;.;.;.;.;.;.;.;.;.;.;.;."};
