/* XPM */
static char * stickpr_xpm[] = {
"23 23 118 2",
"  	c #FBFAF7",
". 	c #CBCAC8",
"+ 	c #7D7D7C",
"@ 	c #D3D2DE",
"# 	c #D6D5E1",
"$ 	c #706F7B",
"% 	c #9D9CA5",
"& 	c #9D9DA5",
"* 	c #9E9DA6",
"= 	c #9E9EA6",
"- 	c #9F9EA7",
"; 	c #9F9FA7",
"> 	c #9F9FA8",
", 	c #A09FA8",
"' 	c #A2A2AA",
") 	c #95959C",
"! 	c #95959D",
"~ 	c #96959D",
"{ 	c #96969D",
"] 	c #96969E",
"^ 	c #96969F",
"/ 	c #A4A4AD",
"( 	c #A7A6AF",
"_ 	c #9999A1",
": 	c #9999A2",
"< 	c #9A99A2",
"[ 	c #9A9AA2",
"} 	c #9B9AA2",
"| 	c #9B9BA2",
"1 	c #AAA9B2",
"2 	c #ACACB4",
"3 	c #9E9DA5",
"4 	c #9F9EA5",
"5 	c #9F9EA6",
"6 	c #9F9FA6",
"7 	c #A09FA7",
"8 	c #A0A0A8",
"9 	c #AEAEB7",
"0 	c #B1B0B9",
"a 	c #A3A2AB",
"b 	c #A3A3AB",
"c 	c #A3A3AC",
"d 	c #A4A3AC",
"e 	c #A4A4AC",
"f 	c #B4B3BC",
"g 	c #B6B5BE",
"h 	c #A7A7AE",
"i 	c #A8A7AF",
"j 	c #A4A3AB",
"k 	c #464649",
"l 	c #39393B",
"m 	c #A9A8B0",
"n 	c #AAA9B1",
"o 	c #A9A9B0",
"p 	c #B9B8C1",
"q 	c #BBBAC3",
"r 	c #ACABB3",
"s 	c #ACABB4",
"t 	c #ADACB4",
"u 	c #96959C",
"v 	c #7E7E83",
"w 	c #919196",
"x 	c #ADADB5",
"y 	c #BEBDC6",
"z 	c #D2CFDA",
"A 	c #6C6974",
"B 	c #BDBBC3",
"C 	c #ADACB3",
"D 	c #AEADB4",
"E 	c #929197",
"F 	c #939197",
"G 	c #AFADB5",
"H 	c #939198",
"I 	c #B0ADB5",
"J 	c #C0BDC5",
"K 	c #CCC7CF",
"L 	c #666169",
"M 	c #BEBAC0",
"N 	c #AEABB0",
"O 	c #AEACB0",
"P 	c #AEACB1",
"Q 	c #979599",
"R 	c #49484A",
"S 	c #AFACB1",
"T 	c #AFADB1",
"U 	c #49494B",
"V 	c #989599",
"W 	c #B0ADB2",
"X 	c #C0BCC3",
"Y 	c #C3BFC5",
"Z 	c #B3AFB5",
"` 	c #B3AFB6",
" .	c #B4B0B6",
"..	c #AFACB2",
"+.	c #8C898E",
"@.	c #4C4A4C",
"#.	c #3D3B3D",
"$.	c #8C8A8F",
"%.	c #B5B1B7",
"&.	c #B5B2B7",
"*.	c #C5C2C8",
"=.	c #C8C4CA",
"-.	c #B8B4B9",
";.	c #B8B5B9",
">.	c #B8B5BA",
",.	c #B4B1B6",
"'.	c #9F9DA1",
").	c #9A989C",
"!.	c #9F9DA0",
"~.	c #B3B1B5",
"{.	c #B9B6BA",
"].	c #B9B6BB",
"^.	c #CAC7CC",
"/.	c #BBB7BE",
"(.	c #CAC5CD",
"_.	c #767576",
":.	c #C4C0BC",
"<.	c #F1ECE5",
"                                              ",
". . . . . . . . . . . . . . . . . . . . . . . ",
"+ + + + + + + + + + + + + + + + + + + + + + + ",
"@ @ @ @ @ @ @ @ @ @ @ @ @ @ @ @ @ @ @ @ @ @ @ ",
"# # # $ $ $ $ $ $ $ $ $ $ $ $ $ $ $ $ $ # # # ",
"# # $ % % & * * * * = = - - - - ; ; > , $ # # ",
"# # $ ' ) ! ~ ~ ~ ~ { { ] ] ] ] ] ^ ^ / $ # # ",
"# # $ ( _ _ : < < < [ } } } } } } | | 1 $ # # ",
"# # $ 2 3 4 5 5 5 5 6 6 6 7 7 7 7 , 8 9 $ # # ",
"# # $ 0 ' ' ' a a - b c d 7 d d d e e f $ # # ",
"# # $ g h h i i j i k l k m j m m n o p $ # # ",
"# # $ q r s 2 t u t v w v x ) x x x x y $ # # ",
"z z A B C C D D E D E D F G H G G G I J A z z ",
"K K L M N O P P Q R S S T U V W W W W X L K K ",
"K K L Y Z Z `  ...+.@.#.@.$...%.%.%.&.*.L K K ",
"K K L =.-.;.;.;.>.,.'.).!.~.{.].].].].^.L K K ",
"K K L K /././././././././././././././.K L K K ",
"K K L K K K K K K K K K K K K K K K K K L K K ",
"K K K L L L L L L L L L L L L L L L L L K K K ",
"(.(.(.(.(.(.(.(.(.(.(.(.(.(.(.(.(.(.(.(.(.(.(.",
"_._._._._._._._._._._._._._._._._._._._._._._.",
":.:.:.:.:.:.:.:.:.:.:.:.:.:.:.:.:.:.:.:.:.:.:.",
"<.<.<.<.<.<.<.<.<.<.<.<.<.<.<.<.<.<.<.<.<.<.<."};
