/* XPM */
static char * stickfcs_xpm[] = {
"23 23 113 2",
"  	c #FBFAF7",
". 	c #CBCAC8",
"+ 	c #7D7D7C",
"@ 	c #D3D2DE",
"# 	c #D6D5E1",
"$ 	c #565561",
"% 	c #D5D4E0",
"& 	c #D4D4DF",
"* 	c #D4D3DF",
"= 	c #D3D2DD",
"- 	c #D2D1DD",
"; 	c #D0CFDB",
"> 	c #BFBEC9",
", 	c #BEBDC8",
"' 	c #BDBCC7",
") 	c #CECDD8",
"! 	c #CBCAD6",
"~ 	c #BAB9C4",
"{ 	c #BAB8C3",
"] 	c #B9B8C3",
"^ 	c #B8B8C3",
"/ 	c #C8C7D3",
"( 	c #C6C5D1",
"_ 	c #B6B5C0",
": 	c #B5B4C0",
"< 	c #B5B4BF",
"[ 	c #B5B3BF",
"} 	c #B4B3BE",
"| 	c #C4C2CE",
"1 	c #C1C0CC",
"2 	c #B1B0BB",
"3 	c #B1AFBB",
"4 	c #B0AFBA",
"5 	c #ACABB6",
"6 	c #FFFFFF",
"7 	c #AAA9B5",
"8 	c #AFAEB9",
"9 	c #BEBDC9",
"0 	c #BCBBC7",
"a 	c #ADACB7",
"b 	c #A8A7B2",
"c 	c #48484C",
"d 	c #3A3A3D",
"e 	c #A6A5B0",
"f 	c #ABAAB5",
"g 	c #B9B8C4",
"h 	c #B7B6C2",
"i 	c #A8A6B1",
"j 	c #A7A6B1",
"k 	c #919099",
"l 	c #7A7981",
"m 	c #8B8B94",
"n 	c #797880",
"o 	c #8F8E98",
"p 	c #A6A4B0",
"q 	c #B4B3BF",
"r 	c #D2CFDA",
"s 	c #524F5A",
"t 	c #AEABB6",
"u 	c #A09DA7",
"v 	c #9F9CA6",
"w 	c #85838B",
"x 	c #85828A",
"y 	c #9E9BA5",
"z 	c #ACA9B4",
"A 	c #CCC7CF",
"B 	c #4C474F",
"C 	c #A39EA6",
"D 	c #969198",
"E 	c #969097",
"F 	c #817D83",
"G 	c #3F3C3F",
"H 	c #807B82",
"I 	c #948F96",
"J 	c #A09CA3",
"K 	c #9E99A1",
"L 	c #918C94",
"M 	c #908C93",
"N 	c #908B93",
"O 	c #8D8890",
"P 	c #706C73",
"Q 	c #3C3A3E",
"R 	c #312F32",
"S 	c #706C72",
"T 	c #8B878E",
"U 	c #8F8B92",
"V 	c #9C969E",
"W 	c #99949C",
"X 	c #8C888F",
"Y 	c #88848B",
"Z 	c #78757B",
"` 	c #757177",
" .	c #78747B",
"..	c #87838A",
"+.	c #8B868D",
"@.	c #96919A",
"#.	c #969397",
"$.	c #8A888B",
"%.	c #8B888B",
"&.	c #8B898B",
"*.	c #8B898C",
"=.	c #989699",
"-.	c #9B989C",
";.	c #9B999C",
">.	c #9B999D",
",.	c #9C9A9D",
"'.	c #9C9A9E",
").	c #9D9A9E",
"!.	c #9D9B9E",
"~.	c #CAC5CD",
"{.	c #767576",
"].	c #C4C0BC",
"^.	c #F1ECE5",
"                                              ",
". . . . . . . . . . . . . . . . . . . . . . . ",
"+ + + + + + + + + + + + + + + + + + + + + + + ",
"@ @ @ @ @ @ @ @ @ @ @ @ @ @ @ @ @ @ @ @ @ @ @ ",
"# # # $ $ $ $ $ $ $ $ $ $ $ $ $ $ $ $ $ # # # ",
"# # $ % % % & * * * * * * @ @ @ @ @ = - $ # # ",
"# # $ ; > > > , , , , , ' ' ' ' ' ' ' ) $ # # ",
"# # $ ! ~ ~ { ] ] ] ] ] ] ^ ^ ^ ^ ^ ^ / $ # # ",
"# # $ ( _ : < < < < < < [ } } } } } } | $ # # ",
"# # $ 1 2 2 3 4 4 5 6 6 6 7 8 8 8 8 8 9 $ # # ",
"# # $ 0 a a 5 5 b 6 c d c 6 e f f f f g $ # # ",
"# # $ h b b i j k 6 l m n 6 o e e e p q $ # # ",
"r r s t u u v v w 6 w v w 6 x y y y y z s r r ",
"A A B C D D E E F G 6 6 6 G H I I I I J B A A ",
"A A B K L L M N O P Q R Q S T U U U U V B A A ",
"A A B W X X X X T Y Z `  ...T +.+.+.+.@.B A A ",
"A A B #.$.$.$.$.$.$.%.%.&.&.*.*.*.*.*.=.B A A ",
"A A B -.-.;.;.>.>.>.,.,.,.,.'.'.).!.!.!.B A A ",
"A A A B B B B B B B B B B B B B B B B B A A A ",
"~.~.~.~.~.~.~.~.~.~.~.~.~.~.~.~.~.~.~.~.~.~.~.",
"{.{.{.{.{.{.{.{.{.{.{.{.{.{.{.{.{.{.{.{.{.{.{.",
"].].].].].].].].].].].].].].].].].].].].].].].",
"^.^.^.^.^.^.^.^.^.^.^.^.^.^.^.^.^.^.^.^.^.^.^."};
