/* XPM */
static char * stickufcs_xpm[] = {
"23 23 111 2",
"  	c #FBFAF7",
". 	c #CBCAC8",
"+ 	c #7D7D7C",
"@ 	c #F7F7F4",
"# 	c #7B7A77",
"$ 	c #FAF9F6",
"% 	c #F9F9F5",
"& 	c #F9F8F5",
"* 	c #F8F7F4",
"= 	c #F8F7F3",
"- 	c #F7F6F3",
"; 	c #F5F4F1",
"> 	c #E1E0DD",
", 	c #E0DFDC",
"' 	c #DFDEDB",
") 	c #F3F2EE",
"! 	c #F0EFEC",
"~ 	c #DCDBD9",
"{ 	c #DCDAD8",
"] 	c #DBDAD8",
"^ 	c #DAD9D8",
"/ 	c #DAD9D7",
"( 	c #EDECE9",
"_ 	c #EBEAE7",
": 	c #D8D7D4",
"< 	c #D7D6D4",
"[ 	c #D7D6D3",
"} 	c #D7D5D3",
"| 	c #D6D5D2",
"1 	c #E9E7E4",
"2 	c #E6E5E2",
"3 	c #D3D2CF",
"4 	c #D3D1CF",
"5 	c #D2D1CE",
"6 	c #CDCCC9",
"7 	c #FFFFFF",
"8 	c #D1D0CE",
"9 	c #E3E2DF",
"0 	c #CECECB",
"a 	c #CECDCA",
"b 	c #C9C8C5",
"c 	c #565655",
"d 	c #454544",
"e 	c #C7C6C3",
"f 	c #DEDDDA",
"g 	c #DCDBD8",
"h 	c #CAC9C6",
"i 	c #CAC8C5",
"j 	c #AEADAB",
"k 	c #939290",
"l 	c #A8A7A5",
"m 	c #92918F",
"n 	c #ADACA9",
"o 	c #C8C7C4",
"p 	c #C8C6C4",
"q 	c #D9D8D5",
"r 	c #F7F4F0",
"s 	c #777470",
"t 	c #D3D0CC",
"u 	c #C2BFBB",
"v 	c #C1BEBA",
"w 	c #A29F9C",
"x 	c #A19F9C",
"y 	c #A19F9B",
"z 	c #C0BDB9",
"A 	c #D1CECA",
"B 	c #F1ECE5",
"C 	c #716C65",
"D 	c #C8C3BC",
"E 	c #B8B3AD",
"F 	c #B8B2AC",
"G 	c #9F9A95",
"H 	c #4D4B48",
"I 	c #9D9994",
"J 	c #B6B1AB",
"K 	c #C5C1B9",
"L 	c #C3BEB7",
"M 	c #B3AEA8",
"N 	c #B2AEA7",
"O 	c #B2ADA7",
"P 	c #AEA9A3",
"Q 	c #8B8782",
"R 	c #4B4946",
"S 	c #3C3A38",
"T 	c #ACA8A1",
"U 	c #B1ADA6",
"V 	c #C1BBB4",
"W 	c #BEB9B2",
"X 	c #AEAAA3",
"Y 	c #ADA9A2",
"Z 	c #A9A59E",
"` 	c #96928C",
" .	c #918E88",
"..	c #95928C",
"+.	c #A8A49E",
"@.	c #ADA8A2",
"#.	c #BBB6B0",
"$.	c #B9B4AD",
"%.	c #AAA59F",
"&.	c #AAA49F",
"*.	c #A9A49E",
"=.	c #A8A39D",
"-.	c #B6B2AB",
";.	c #B4AFA8",
">.	c #B4AFA7",
",.	c #B3AEA7",
"'.	c #B2ADA8",
").	c #B1ACA8",
"!.	c #EEE9E2",
"~.	c #7B7A79",
"{.	c #C4C0BC",
"                                              ",
". . . . . . . . . . . . . . . . . . . . . . . ",
"+ + + + + + + + + + + + + + + + + + + + + + + ",
"@ @ @ @ @ @ @ @ @ @ @ @ @ @ @ @ @ @ @ @ @ @ @ ",
"      # # # # # # # # # # # # # # # # #       ",
"    # $ $ $ % & & & & & & * * * * * = - #     ",
"    # ; > > > , , , , , ' ' ' ' ' ' ' ) #     ",
"    # ! ~ ~ { ] ] ] ] ] ] ^ / / / / / ( #     ",
"    # _ : < [ [ [ [ [ [ } | | | | | | 1 #     ",
"    # 2 3 3 4 5 5 6 7 7 7 . 8 8 8 8 8 9 #     ",
"    # > 0 0 a a b 7 c d c 7 e 6 6 6 6 f #     ",
"    # g h h i b j 7 k l m 7 n o o o p q #     ",
"r r s t u u v v w 7 w v x 7 y z z z z A s r r ",
"B B C D E E F F G H 7 7 7 H I J J J J K C B B ",
"B B C L M M N O P Q R S R Q T U U U U V C B B ",
"B B C W X X X X Y Z `  ...+.Y @.@.@.@.#.C B B ",
"B B C $.%.%.&.*.*.*.*.*.*.+.=.=.=.=.=.-.C B B ",
"B B C ;.;.;.;.>.,.,.,.,.'.'.'.'.'.'.'.).C B B ",
"B B B C C C C C C C C C C C C C C C C C B B B ",
"!.!.!.!.!.!.!.!.!.!.!.!.!.!.!.!.!.!.!.!.!.!.!.",
"~.~.~.~.~.~.~.~.~.~.~.~.~.~.~.~.~.~.~.~.~.~.~.",
"{.{.{.{.{.{.{.{.{.{.{.{.{.{.{.{.{.{.{.{.{.{.{.",
"B B B B B B B B B B B B B B B B B B B B B B B "};
