/* XPM */
static char * stuckufcs_xpm[] = {
"23 23 105 2",
"  	c #FBFAF7",
". 	c #CBCAC8",
"+ 	c #7D7D7C",
"@ 	c #F7F7F4",
"# 	c #7B7A77",
"$ 	c #FAF9F6",
"% 	c #F9F9F5",
"& 	c #F9F8F5",
"* 	c #F8F7F4",
"= 	c #F8F7F3",
"- 	c #F7F6F3",
"; 	c #F5F4F1",
"> 	c #E1E0DD",
", 	c #E0DFDC",
"' 	c #DFDEDB",
") 	c #F3F2EE",
"! 	c #F0EFEC",
"~ 	c #DCDBD9",
"{ 	c #DCDAD8",
"] 	c #DBDAD8",
"^ 	c #DAD9D8",
"/ 	c #DAD9D7",
"( 	c #EDECE9",
"_ 	c #EBEAE7",
": 	c #D8D7D4",
"< 	c #D7D6D4",
"[ 	c #D7D6D3",
"} 	c #D7D5D3",
"| 	c #D6D5D2",
"1 	c #E9E7E4",
"2 	c #E6E5E2",
"3 	c #D3D2CF",
"4 	c #D3D1CF",
"5 	c #D2D1CE",
"6 	c #CDCCC9",
"7 	c #FFFFFF",
"8 	c #D1D0CE",
"9 	c #E3E2DF",
"0 	c #CECECB",
"a 	c #CECDCA",
"b 	c #C9C8C5",
"c 	c #C7C6C3",
"d 	c #DEDDDA",
"e 	c #DCDBD8",
"f 	c #CAC9C6",
"g 	c #CAC8C5",
"h 	c #AEADAB",
"i 	c #ADACA9",
"j 	c #C8C7C4",
"k 	c #C8C6C4",
"l 	c #D9D8D5",
"m 	c #F7F4F0",
"n 	c #777470",
"o 	c #D3D0CC",
"p 	c #C2BFBB",
"q 	c #C1BEBA",
"r 	c #A29F9C",
"s 	c #A19F9B",
"t 	c #C0BDB9",
"u 	c #D1CECA",
"v 	c #F1ECE5",
"w 	c #716C65",
"x 	c #C8C3BC",
"y 	c #B8B3AD",
"z 	c #B8B2AC",
"A 	c #9F9A95",
"B 	c #4D4B48",
"C 	c #9D9994",
"D 	c #B6B1AB",
"E 	c #C5C1B9",
"F 	c #C3BEB7",
"G 	c #B3AEA8",
"H 	c #B2AEA7",
"I 	c #B2ADA7",
"J 	c #AEA9A3",
"K 	c #8B8782",
"L 	c #4B4946",
"M 	c #3C3A38",
"N 	c #ACA8A1",
"O 	c #B1ADA6",
"P 	c #C1BBB4",
"Q 	c #BEB9B2",
"R 	c #AEAAA3",
"S 	c #ADA9A2",
"T 	c #A9A59E",
"U 	c #96928C",
"V 	c #918E88",
"W 	c #95928C",
"X 	c #A8A49E",
"Y 	c #ADA8A2",
"Z 	c #BBB6B0",
"` 	c #B9B4AD",
" .	c #AAA59F",
"..	c #AAA49F",
"+.	c #A9A49E",
"@.	c #A8A39D",
"#.	c #B6B2AB",
"$.	c #B4AFA8",
"%.	c #B4AFA7",
"&.	c #B3AEA7",
"*.	c #B2ADA8",
"=.	c #B1ACA8",
"-.	c #EEE9E2",
";.	c #7B7A79",
">.	c #C4C0BC",
"                                              ",
". . . . . . . . . . . . . . . . . . . . . . . ",
"+ + + + + + + + + + + + + + + + + + + + + + + ",
"@ @ @ @ @ @ @ @ @ @ @ @ @ @ @ @ @ @ @ @ @ @ @ ",
"      # # # # # # # # # # # # # # # # #       ",
"    # $ $ $ % & & & & & & * * * * * = - #     ",
"    # ; > > > , , , , , ' ' ' ' ' ' ' ) #     ",
"    # ! ~ ~ { ] ] ] ] ] ] ^ / / / / / ( #     ",
"    # _ : < [ [ [ [ [ [ } | | | | | | 1 #     ",
"    # 2 3 3 4 5 5 6 7 7 7 . 8 8 8 8 8 9 #     ",
"    # > 0 0 a a b 7 7 7 7 7 c 6 6 6 6 d #     ",
"    # e f f g b h 7 7 7 7 7 i j j j k l #     ",
"m m n o p p q q r 7 7 7 7 7 s t t t t u n m m ",
"v v w x y y z z A B 7 7 7 B C D D D D E w v v ",
"v v w F G G H I J K L M L K N O O O O P w v v ",
"v v w Q R R R R S T U V W X S Y Y Y Y Z w v v ",
"v v w `  . ...+.+.+.+.+.+.X @.@.@.@.@.#.w v v ",
"v v w $.$.$.$.%.&.&.&.&.*.*.*.*.*.*.*.=.w v v ",
"v v v w w w w w w w w w w w w w w w w w v v v ",
"-.-.-.-.-.-.-.-.-.-.-.-.-.-.-.-.-.-.-.-.-.-.-.",
";.;.;.;.;.;.;.;.;.;.;.;.;.;.;.;.;.;.;.;.;.;.;.",
">.>.>.>.>.>.>.>.>.>.>.>.>.>.>.>.>.>.>.>.>.>.>.",
"v v v v v v v v v v v v v v v v v v v v v v v "};
