/* XPM */
static char * stuckfcs_xpm[] = {
"23 23 108 2",
"  	c #FBFAF7",
". 	c #CBCAC8",
"+ 	c #7D7D7C",
"@ 	c #D3D2DE",
"# 	c #D6D5E1",
"$ 	c #565561",
"% 	c #D5D4E0",
"& 	c #D4D4DF",
"* 	c #D4D3DF",
"= 	c #D3D2DD",
"- 	c #D2D1DD",
"; 	c #D0CFDB",
"> 	c #BFBEC9",
", 	c #BEBDC8",
"' 	c #BDBCC7",
") 	c #CECDD8",
"! 	c #CBCAD6",
"~ 	c #BAB9C4",
"{ 	c #BAB8C3",
"] 	c #B9B8C3",
"^ 	c #B8B8C3",
"/ 	c #C8C7D3",
"( 	c #C6C5D1",
"_ 	c #B6B5C0",
": 	c #B5B4C0",
"< 	c #B5B4BF",
"[ 	c #B5B3BF",
"} 	c #B4B3BE",
"| 	c #C4C2CE",
"1 	c #C1C0CC",
"2 	c #B1B0BB",
"3 	c #B1AFBB",
"4 	c #B0AFBA",
"5 	c #ACABB6",
"6 	c #FFFFFF",
"7 	c #AAA9B5",
"8 	c #AFAEB9",
"9 	c #BEBDC9",
"0 	c #BCBBC7",
"a 	c #ADACB7",
"b 	c #A8A7B2",
"c 	c #A6A5B0",
"d 	c #ABAAB5",
"e 	c #B9B8C4",
"f 	c #B7B6C2",
"g 	c #A8A6B1",
"h 	c #A7A6B1",
"i 	c #919099",
"j 	c #8F8E98",
"k 	c #A6A4B0",
"l 	c #B4B3BF",
"m 	c #D2CFDA",
"n 	c #524F5A",
"o 	c #AEABB6",
"p 	c #A09DA7",
"q 	c #9F9CA6",
"r 	c #85838B",
"s 	c #85828A",
"t 	c #9E9BA5",
"u 	c #ACA9B4",
"v 	c #CCC7CF",
"w 	c #4C474F",
"x 	c #A39EA6",
"y 	c #969198",
"z 	c #969097",
"A 	c #817D83",
"B 	c #3F3C3F",
"C 	c #807B82",
"D 	c #948F96",
"E 	c #A09CA3",
"F 	c #9E99A1",
"G 	c #918C94",
"H 	c #908C93",
"I 	c #908B93",
"J 	c #8D8890",
"K 	c #706C73",
"L 	c #3C3A3E",
"M 	c #312F32",
"N 	c #706C72",
"O 	c #8B878E",
"P 	c #8F8B92",
"Q 	c #9C969E",
"R 	c #99949C",
"S 	c #8C888F",
"T 	c #88848B",
"U 	c #78757B",
"V 	c #757177",
"W 	c #78747B",
"X 	c #87838A",
"Y 	c #8B868D",
"Z 	c #96919A",
"` 	c #969397",
" .	c #8A888B",
"..	c #8B888B",
"+.	c #8B898B",
"@.	c #8B898C",
"#.	c #989699",
"$.	c #9B989C",
"%.	c #9B999C",
"&.	c #9B999D",
"*.	c #9C9A9D",
"=.	c #9C9A9E",
"-.	c #9D9A9E",
";.	c #9D9B9E",
">.	c #CAC5CD",
",.	c #767576",
"'.	c #C4C0BC",
").	c #F1ECE5",
"                                              ",
". . . . . . . . . . . . . . . . . . . . . . . ",
"+ + + + + + + + + + + + + + + + + + + + + + + ",
"@ @ @ @ @ @ @ @ @ @ @ @ @ @ @ @ @ @ @ @ @ @ @ ",
"# # # $ $ $ $ $ $ $ $ $ $ $ $ $ $ $ $ $ # # # ",
"# # $ % % % & * * * * * * @ @ @ @ @ = - $ # # ",
"# # $ ; > > > , , , , , ' ' ' ' ' ' ' ) $ # # ",
"# # $ ! ~ ~ { ] ] ] ] ] ] ^ ^ ^ ^ ^ ^ / $ # # ",
"# # $ ( _ : < < < < < < [ } } } } } } | $ # # ",
"# # $ 1 2 2 3 4 4 5 6 6 6 7 8 8 8 8 8 9 $ # # ",
"# # $ 0 a a 5 5 b 6 6 6 6 6 c d d d d e $ # # ",
"# # $ f b b g h i 6 6 6 6 6 j c c c k l $ # # ",
"m m n o p p q q r 6 6 6 6 6 s t t t t u n m m ",
"v v w x y y z z A B 6 6 6 B C D D D D E w v v ",
"v v w F G G H I J K L M L N O P P P P Q w v v ",
"v v w R S S S S O T U V W X O Y Y Y Y Z w v v ",
"v v w `  . . . . . .....+.+.@.@.@.@.@.#.w v v ",
"v v w $.$.%.%.&.&.&.*.*.*.*.=.=.-.;.;.;.w v v ",
"v v v w w w w w w w w w w w w w w w w w v v v ",
">.>.>.>.>.>.>.>.>.>.>.>.>.>.>.>.>.>.>.>.>.>.>.",
",.,.,.,.,.,.,.,.,.,.,.,.,.,.,.,.,.,.,.,.,.,.,.",
"'.'.'.'.'.'.'.'.'.'.'.'.'.'.'.'.'.'.'.'.'.'.'.",
").).).).).).).).).).).).).).).).).).).).).).)."};
