/* XPM */
static char * unshadeufcs_xpm[] = {
"23 23 107 2",
"  	c #FBFAF7",
". 	c #CBCAC8",
"+ 	c #7D7D7C",
"@ 	c #F7F7F4",
"# 	c #7B7A77",
"$ 	c #FAF9F6",
"% 	c #F9F9F5",
"& 	c #F9F8F5",
"* 	c #F8F7F4",
"= 	c #F8F7F3",
"- 	c #F7F6F3",
"; 	c #F5F4F1",
"> 	c #E1E0DD",
", 	c #E0DFDC",
"' 	c #DFDEDB",
") 	c #F3F2EE",
"! 	c #F0EFEC",
"~ 	c #DCDBD9",
"{ 	c #DCDAD8",
"] 	c #DBDAD8",
"^ 	c #DAD9D8",
"/ 	c #DAD9D7",
"( 	c #EDECE9",
"_ 	c #EBEAE7",
": 	c #D8D7D4",
"< 	c #D7D6D4",
"[ 	c #D7D6D3",
"} 	c #D2D1CE",
"| 	c #FFFFFF",
"1 	c #D0CFCC",
"2 	c #D6D5D2",
"3 	c #E9E7E4",
"4 	c #E6E5E2",
"5 	c #D3D2CF",
"6 	c #D3D1CF",
"7 	c #BBBAB7",
"8 	c #5E5D5C",
"9 	c #474645",
"0 	c #464645",
"a 	c #464545",
"b 	c #5D5D5C",
"c 	c #BAB9B7",
"d 	c #D1D0CE",
"e 	c #E3E2DF",
"f 	c #CECECB",
"g 	c #CECDCA",
"h 	c #C9C8C5",
"i 	c #B3B2AF",
"j 	c #ADACAA",
"k 	c #ACABA9",
"l 	c #ABAAA8",
"m 	c #B1B0AD",
"n 	c #C7C6C3",
"o 	c #CDCCC9",
"p 	c #DEDDDA",
"q 	c #DCDBD8",
"r 	c #CAC9C6",
"s 	c #CAC8C5",
"t 	c #C8C8C5",
"u 	c #C8C7C4",
"v 	c #C8C6C4",
"w 	c #D9D8D5",
"x 	c #F7F4F0",
"y 	c #777470",
"z 	c #D3D0CC",
"A 	c #C2BFBB",
"B 	c #C1BEBA",
"C 	c #C0BEBA",
"D 	c #C0BDB9",
"E 	c #D1CECA",
"F 	c #F1ECE5",
"G 	c #716C65",
"H 	c #C8C3BC",
"I 	c #B8B3AD",
"J 	c #B8B2AC",
"K 	c #B7B2AC",
"L 	c #B7B2AB",
"M 	c #B6B1AC",
"N 	c #B6B1AB",
"O 	c #C5C1B9",
"P 	c #C3BEB7",
"Q 	c #B3AEA8",
"R 	c #B2AEA7",
"S 	c #B2ADA7",
"T 	c #B2ADA6",
"U 	c #B1ADA6",
"V 	c #C1BBB4",
"W 	c #BEB9B2",
"X 	c #AEAAA3",
"Y 	c #ADA9A2",
"Z 	c #ADA8A2",
"` 	c #BBB6B0",
" .	c #B9B4AD",
"..	c #AAA59F",
"+.	c #AAA49F",
"@.	c #A9A49E",
"#.	c #A8A49E",
"$.	c #A8A39D",
"%.	c #B6B2AB",
"&.	c #B4AFA8",
"*.	c #B4AFA7",
"=.	c #B3AEA7",
"-.	c #B2ADA8",
";.	c #B1ACA8",
">.	c #EEE9E2",
",.	c #7B7A79",
"'.	c #C4C0BC",
"                                              ",
". . . . . . . . . . . . . . . . . . . . . . . ",
"+ + + + + + + + + + + + + + + + + + + + + + + ",
"@ @ @ @ @ @ @ @ @ @ @ @ @ @ @ @ @ @ @ @ @ @ @ ",
"      # # # # # # # # # # # # # # # # #       ",
"    # $ $ $ % & & & & & & * * * * * = - #     ",
"    # ; > > > , , , , , ' ' ' ' ' ' ' ) #     ",
"    # ! ~ ~ { ] ] ] ] ] ] ^ / / / / / ( #     ",
"    # _ : < [ } | | | | | | | 1 2 2 2 3 #     ",
"    # 4 5 5 6 7 8 9 0 0 0 a b c d d d e #     ",
"    # > f f g h i j k k k l m n o o o p #     ",
"    # q r r s h h h h h h t u u u u v w #     ",
"x x y z A A B B B B B B C D D D D D D E y x x ",
"F F G H I I J J K K K K K L M N N N N O G F F ",
"F F G P Q Q R S S S S S S T U U U U U V G F F ",
"F F G W X X X X Y Y Y Y Y Y Y Z Z Z Z ` G F F ",
"F F G  .....+.@.@.@.@.@.@.#.$.$.$.$.$.%.G F F ",
"F F G &.&.&.&.*.=.=.=.=.-.-.-.-.-.-.-.;.G F F ",
"F F F G G G G G G G G G G G G G G G G G F F F ",
">.>.>.>.>.>.>.>.>.>.>.>.>.>.>.>.>.>.>.>.>.>.>.",
",.,.,.,.,.,.,.,.,.,.,.,.,.,.,.,.,.,.,.,.,.,.,.",
"'.'.'.'.'.'.'.'.'.'.'.'.'.'.'.'.'.'.'.'.'.'.'.",
"F F F F F F F F F F F F F F F F F F F F F F F "};
