/* XPM */
static char * unshadefcs_xpm[] = {
"23 23 106 2",
"  	c #FBFAF7",
". 	c #CBCAC8",
"+ 	c #7D7D7C",
"@ 	c #D3D2DE",
"# 	c #D6D5E1",
"$ 	c #565561",
"% 	c #D5D4E0",
"& 	c #D4D4DF",
"* 	c #D4D3DF",
"= 	c #D3D2DD",
"- 	c #D2D1DD",
"; 	c #D0CFDB",
"> 	c #BFBEC9",
", 	c #BEBDC8",
"' 	c #BDBCC7",
") 	c #CECDD8",
"! 	c #CBCAD6",
"~ 	c #BAB9C4",
"{ 	c #BAB8C3",
"] 	c #B9B8C3",
"^ 	c #B8B8C3",
"/ 	c #C8C7D3",
"( 	c #C6C5D1",
"_ 	c #B6B5C0",
": 	c #B5B4C0",
"< 	c #B5B4BF",
"[ 	c #B1B0BB",
"} 	c #FFFFFF",
"| 	c #AFAEB9",
"1 	c #B4B3BE",
"2 	c #C4C2CE",
"3 	c #C1C0CC",
"4 	c #B1AFBB",
"5 	c #9D9CA6",
"6 	c #4F4E53",
"7 	c #3B3B3F",
"8 	c #3B3A3E",
"9 	c #3A3A3E",
"0 	c #4E4E53",
"a 	c #9C9BA5",
"b 	c #BEBDC9",
"c 	c #BCBBC7",
"d 	c #ADACB7",
"e 	c #ACABB6",
"f 	c #A8A7B2",
"g 	c #95949E",
"h 	c #909099",
"i 	c #908F98",
"j 	c #8F8E97",
"k 	c #94939C",
"l 	c #A6A5B0",
"m 	c #ABAAB5",
"n 	c #B9B8C4",
"o 	c #B7B6C2",
"p 	c #A8A6B1",
"q 	c #A7A6B1",
"r 	c #A6A6B1",
"s 	c #A6A4B0",
"t 	c #B4B3BF",
"u 	c #D2CFDA",
"v 	c #524F5A",
"w 	c #AEABB6",
"x 	c #A09DA7",
"y 	c #9F9CA6",
"z 	c #9E9CA6",
"A 	c #9E9BA5",
"B 	c #ACA9B4",
"C 	c #CCC7CF",
"D 	c #4C474F",
"E 	c #A39EA6",
"F 	c #969198",
"G 	c #969097",
"H 	c #959097",
"I 	c #959096",
"J 	c #948F97",
"K 	c #948F96",
"L 	c #A09CA3",
"M 	c #9E99A1",
"N 	c #918C94",
"O 	c #908C93",
"P 	c #908B93",
"Q 	c #908B92",
"R 	c #8F8B92",
"S 	c #9C969E",
"T 	c #99949C",
"U 	c #8C888F",
"V 	c #8B878E",
"W 	c #8B868D",
"X 	c #96919A",
"Y 	c #969397",
"Z 	c #8A888B",
"` 	c #8B888B",
" .	c #8B898B",
"..	c #8B898C",
"+.	c #989699",
"@.	c #9B989C",
"#.	c #9B999C",
"$.	c #9B999D",
"%.	c #9C9A9D",
"&.	c #9C9A9E",
"*.	c #9D9A9E",
"=.	c #9D9B9E",
"-.	c #CAC5CD",
";.	c #767576",
">.	c #C4C0BC",
",.	c #F1ECE5",
"                                              ",
". . . . . . . . . . . . . . . . . . . . . . . ",
"+ + + + + + + + + + + + + + + + + + + + + + + ",
"@ @ @ @ @ @ @ @ @ @ @ @ @ @ @ @ @ @ @ @ @ @ @ ",
"# # # $ $ $ $ $ $ $ $ $ $ $ $ $ $ $ $ $ # # # ",
"# # $ % % % & * * * * * * @ @ @ @ @ = - $ # # ",
"# # $ ; > > > , , , , , ' ' ' ' ' ' ' ) $ # # ",
"# # $ ! ~ ~ { ] ] ] ] ] ] ^ ^ ^ ^ ^ ^ / $ # # ",
"# # $ ( _ : < [ } } } } } } } | 1 1 1 2 $ # # ",
"# # $ 3 [ [ 4 5 6 7 8 8 8 9 0 a | | | b $ # # ",
"# # $ c d d e f g h i i i j k l m m m n $ # # ",
"# # $ o f f p q q q q q q r l l l l s t $ # # ",
"u u v w x x y y y y y y z A A A A A A B v u u ",
"C C D E F F G G H H H H H I J K K K K L D C C ",
"C C D M N N O P P P P P P Q R R R R R S D C C ",
"C C D T U U U U V V V V V V V W W W W X D C C ",
"C C D Y Z Z Z Z Z Z ` `  . ...........+.D C C ",
"C C D @.@.#.#.$.$.$.%.%.%.%.&.&.*.=.=.=.D C C ",
"C C C D D D D D D D D D D D D D D D D D C C C ",
"-.-.-.-.-.-.-.-.-.-.-.-.-.-.-.-.-.-.-.-.-.-.-.",
";.;.;.;.;.;.;.;.;.;.;.;.;.;.;.;.;.;.;.;.;.;.;.",
">.>.>.>.>.>.>.>.>.>.>.>.>.>.>.>.>.>.>.>.>.>.>.",
",.,.,.,.,.,.,.,.,.,.,.,.,.,.,.,.,.,.,.,.,.,.,."};
