/* XPM */
static char * unshadepr_xpm[] = {
"23 23 113 2",
"  	c #FBFAF7",
". 	c #CBCAC8",
"+ 	c #7D7D7C",
"@ 	c #D3D2DE",
"# 	c #D6D5E1",
"$ 	c #706F7B",
"% 	c #9D9CA5",
"& 	c #9D9DA5",
"* 	c #9E9DA6",
"= 	c #9E9EA6",
"- 	c #9F9EA7",
"; 	c #9F9FA7",
"> 	c #9F9FA8",
", 	c #A09FA8",
"' 	c #A2A2AA",
") 	c #95959C",
"! 	c #95959D",
"~ 	c #96959D",
"{ 	c #96969D",
"] 	c #96969E",
"^ 	c #96969F",
"/ 	c #A4A4AD",
"( 	c #A7A6AF",
"_ 	c #9999A1",
": 	c #9999A2",
"< 	c #9A99A2",
"[ 	c #9A9AA2",
"} 	c #9B9AA2",
"| 	c #9B9BA2",
"1 	c #AAA9B2",
"2 	c #ACACB4",
"3 	c #9E9DA5",
"4 	c #9F9EA5",
"5 	c #9F9EA6",
"6 	c #9F9FA6",
"7 	c #A09FA7",
"8 	c #9C9BA2",
"9 	c #A0A0A8",
"0 	c #AEAEB7",
"a 	c #B1B0B9",
"b 	c #919098",
"c 	c #49484C",
"d 	c #37373A",
"e 	c #363639",
"f 	c #373639",
"g 	c #49494D",
"h 	c #929199",
"i 	c #A4A3AC",
"j 	c #A4A4AC",
"k 	c #B4B3BC",
"l 	c #B6B5BE",
"m 	c #A7A7AE",
"n 	c #A8A7AF",
"o 	c #A4A3AB",
"p 	c #929198",
"q 	c #8D8C93",
"r 	c #8C8B92",
"s 	c #8C8C92",
"t 	c #A9A8B0",
"u 	c #AAA9B1",
"v 	c #A9A9B0",
"w 	c #B9B8C1",
"x 	c #BBBAC3",
"y 	c #ACABB3",
"z 	c #ACABB4",
"A 	c #ADACB4",
"B 	c #ADADB4",
"C 	c #ADADB5",
"D 	c #BEBDC6",
"E 	c #D2CFDA",
"F 	c #6C6974",
"G 	c #BDBBC3",
"H 	c #ADACB3",
"I 	c #AEADB4",
"J 	c #AFADB4",
"K 	c #AFADB5",
"L 	c #B0ADB5",
"M 	c #C0BDC5",
"N 	c #CCC7CF",
"O 	c #666169",
"P 	c #BEBAC0",
"Q 	c #AEABB0",
"R 	c #AEACB0",
"S 	c #AEACB1",
"T 	c #AFACB1",
"U 	c #AFADB1",
"V 	c #AFADB2",
"W 	c #B0ADB1",
"X 	c #B0ADB2",
"Y 	c #C0BCC3",
"Z 	c #C3BFC5",
"` 	c #B3AFB5",
" .	c #B3AFB6",
"..	c #B4B0B6",
"+.	c #B3B0B6",
"@.	c #B4B1B6",
"#.	c #B4B1B7",
"$.	c #B5B1B7",
"%.	c #B5B2B7",
"&.	c #C5C2C8",
"*.	c #C8C4CA",
"=.	c #B8B4B9",
"-.	c #B8B5B9",
";.	c #B8B5BA",
">.	c #B8B6BA",
",.	c #B9B6BA",
"'.	c #B9B6BB",
").	c #CAC7CC",
"!.	c #BBB7BE",
"~.	c #CAC5CD",
"{.	c #767576",
"].	c #C4C0BC",
"^.	c #F1ECE5",
"                                              ",
". . . . . . . . . . . . . . . . . . . . . . . ",
"+ + + + + + + + + + + + + + + + + + + + + + + ",
"@ @ @ @ @ @ @ @ @ @ @ @ @ @ @ @ @ @ @ @ @ @ @ ",
"# # # $ $ $ $ $ $ $ $ $ $ $ $ $ $ $ $ $ # # # ",
"# # $ % % & * * * * = = - - - - ; ; > , $ # # ",
"# # $ ' ) ! ~ ~ ~ ~ { { ] ] ] ] ] ^ ^ / $ # # ",
"# # $ ( _ _ : < < < [ } } } } } } | | 1 $ # # ",
"# # $ 2 3 4 5 } 5 5 6 6 6 7 7 8 7 , 9 0 $ # # ",
"# # $ a ' ' ' b c d e e f f g h i j j k $ # # ",
"# # $ l m m n o p q r s s q p o t u v w $ # # ",
"# # $ x y z 2 A A A B B C C C C C C C D $ # # ",
"E E F G H H I I I I I I J K K K K K L M F E E ",
"N N O P Q R S S S T T T U V W X X X X Y O N N ",
"N N O Z ` `  ...+.......@.#.#.$.$.$.%.&.O N N ",
"N N O *.=.-.-.-.;.;.;.;.>.>.,.'.'.'.'.).O N N ",
"N N O N !.!.!.!.!.!.!.!.!.!.!.!.!.!.!.N O N N ",
"N N O N N N N N N N N N N N N N N N N N O N N ",
"N N N O O O O O O O O O O O O O O O O O N N N ",
"~.~.~.~.~.~.~.~.~.~.~.~.~.~.~.~.~.~.~.~.~.~.~.",
"{.{.{.{.{.{.{.{.{.{.{.{.{.{.{.{.{.{.{.{.{.{.{.",
"].].].].].].].].].].].].].].].].].].].].].].].",
"^.^.^.^.^.^.^.^.^.^.^.^.^.^.^.^.^.^.^.^.^.^.^."};
