/* XPM */
static char * windowlabelfcs_xpm[] = {
"23 23 11 1",
" 	c #FBFAF7",
".	c #CBCAC8",
"+	c #7D7D7C",
"@	c #D3D2DE",
"#	c #D6D5E1",
"$	c #D2CFDA",
"%	c #CCC7CF",
"&	c #CAC5CD",
"*	c #767576",
"=	c #C4C0BC",
"-	c #F1ECE5",
"                       ",
".......................",
"+++++++++++++++++++++++",
"@@@@@@@@@@@@@@@@@@@@@@@",
"#######################",
"#######################",
"#######################",
"#######################",
"#######################",
"#######################",
"#######################",
"#######################",
"$$$$$$$$$$$$$$$$$$$$$$$",
"%%%%%%%%%%%%%%%%%%%%%%%",
"%%%%%%%%%%%%%%%%%%%%%%%",
"%%%%%%%%%%%%%%%%%%%%%%%",
"%%%%%%%%%%%%%%%%%%%%%%%",
"%%%%%%%%%%%%%%%%%%%%%%%",
"%%%%%%%%%%%%%%%%%%%%%%%",
"&&&&&&&&&&&&&&&&&&&&&&&",
"***********************",
"=======================",
"-----------------------"};
