/* XPM */
static char * windowlabelufcs_xpm[] = {
"23 23 9 1",
" 	c #FBFAF7",
".	c #CBCAC8",
"+	c #7D7D7C",
"@	c #F7F7F4",
"#	c #F7F4F0",
"$	c #F1ECE5",
"%	c #EEE9E2",
"&	c #7B7A79",
"*	c #C4C0BC",
"                       ",
".......................",
"+++++++++++++++++++++++",
"@@@@@@@@@@@@@@@@@@@@@@@",
"                       ",
"                       ",
"                       ",
"                       ",
"                       ",
"                       ",
"                       ",
"                       ",
"#######################",
"$$$$$$$$$$$$$$$$$$$$$$$",
"$$$$$$$$$$$$$$$$$$$$$$$",
"$$$$$$$$$$$$$$$$$$$$$$$",
"$$$$$$$$$$$$$$$$$$$$$$$",
"$$$$$$$$$$$$$$$$$$$$$$$",
"$$$$$$$$$$$$$$$$$$$$$$$",
"%%%%%%%%%%%%%%%%%%%%%%%",
"&&&&&&&&&&&&&&&&&&&&&&&",
"***********************",
"$$$$$$$$$$$$$$$$$$$$$$$"};
